G04 #@! TF.FileFunction,Soldermask,Top*
%FSLAX46Y46*%
G04 Gerber Fmt 4.6, Leading zero omitted, Abs format (unit mm)*
G04 Created by KiCad (PCBNEW 4.0.6) date Monday, March 26, 2018 'PMt' 03:20:40 PM*
%MOMM*%
%LPD*%
G01*
G04 APERTURE LIST*
%ADD10C,0.100000*%
%ADD11R,1.700000X1.100000*%
%ADD12R,2.100000X2.100000*%
%ADD13O,2.100000X2.100000*%
%ADD14R,0.800000X2.500000*%
%ADD15O,4.210000X4.210000*%
%ADD16R,1.400000X1.650000*%
%ADD17R,1.598880X1.598880*%
%ADD18R,1.197560X1.197560*%
%ADD19R,1.200000X1.300000*%
%ADD20R,1.100000X1.700000*%
%ADD21R,2.200000X1.050000*%
%ADD22R,2.200000X0.900000*%
%ADD23R,2.200000X1.060000*%
%ADD24R,1.300000X1.700000*%
%ADD25C,1.300000*%
%ADD26R,1.100000X1.900000*%
%ADD27R,1.400000X1.200000*%
%ADD28R,0.700000X2.600000*%
%ADD29C,2.600000*%
G04 APERTURE END LIST*
D10*
D11*
X163449000Y-115250000D03*
X163449000Y-113350000D03*
D12*
X150622000Y-116713000D03*
D13*
X148082000Y-116713000D03*
X150622000Y-114173000D03*
X148082000Y-114173000D03*
X150622000Y-111633000D03*
X148082000Y-111633000D03*
D14*
X154883000Y-128905000D03*
X156083000Y-128905000D03*
X157283000Y-128905000D03*
D15*
X149352000Y-124968000D03*
X170688000Y-124968000D03*
D16*
X155813000Y-115697000D03*
X153813000Y-115697000D03*
D17*
X165354000Y-108173520D03*
X165354000Y-106075480D03*
D18*
X169418000Y-107429300D03*
X169418000Y-105930700D03*
D19*
X163769000Y-122031000D03*
X165669000Y-122031000D03*
X164719000Y-120031000D03*
D20*
X161864000Y-125603000D03*
X163764000Y-125603000D03*
D11*
X167386000Y-116710500D03*
X167386000Y-114810500D03*
X159512000Y-114488000D03*
X159512000Y-112588000D03*
D21*
X171058000Y-116999000D03*
D22*
X171058000Y-115824000D03*
D23*
X171058000Y-114649000D03*
D24*
X173008000Y-117674000D03*
X173008000Y-113974000D03*
D25*
X171958000Y-113699000D03*
X171958000Y-117949000D03*
D26*
X150213500Y-108680000D03*
X151713500Y-108680000D03*
X154713500Y-108680000D03*
D27*
X156113500Y-105580000D03*
X156113500Y-107780000D03*
X148813500Y-107780000D03*
X148813500Y-105580000D03*
D28*
X155108000Y-120114500D03*
X155108000Y-124614500D03*
X155758000Y-120114500D03*
X155758000Y-124614500D03*
X156408000Y-120114500D03*
X156408000Y-124614500D03*
X157058000Y-120114500D03*
X157058000Y-124614500D03*
D29*
X160020000Y-107251500D03*
M02*
