G04 #@! TF.FileFunction,Copper,L2,Bot,Signal*
%FSLAX46Y46*%
G04 Gerber Fmt 4.6, Leading zero omitted, Abs format (unit mm)*
G04 Created by KiCad (PCBNEW 4.0.7) date 08/05/18 15:32:24*
%MOMM*%
%LPD*%
G01*
G04 APERTURE LIST*
%ADD10C,0.100000*%
%ADD11R,1.700000X1.700000*%
%ADD12O,1.700000X1.700000*%
%ADD13O,3.810000X3.810000*%
%ADD14C,10.160000*%
%ADD15C,1.371600*%
%ADD16C,0.685800*%
%ADD17C,0.304800*%
%ADD18C,0.152400*%
%ADD19C,0.254000*%
G04 APERTURE END LIST*
D10*
D11*
X155003500Y-108712000D03*
D12*
X155003500Y-111252000D03*
X152463500Y-108712000D03*
X152463500Y-111252000D03*
X149923500Y-108712000D03*
X149923500Y-111252000D03*
D13*
X149352000Y-124968000D03*
X170688000Y-124968000D03*
D14*
X160020000Y-124968000D03*
D15*
X172593000Y-127635000D03*
X171704000Y-133096000D03*
X148336000Y-133096000D03*
X148336000Y-128905000D03*
D16*
X162303688Y-113342909D03*
X162119411Y-114160613D03*
X150622000Y-118110000D03*
X163893500Y-108521500D03*
X164973000Y-113030000D03*
X167576500Y-108712000D03*
X165671500Y-113919000D03*
X166560500Y-112585500D03*
X169418000Y-113792000D03*
D17*
X171704000Y-133096000D02*
X172593000Y-132207000D01*
X172593000Y-132207000D02*
X172593000Y-127635000D01*
X148336000Y-128905000D02*
X148336000Y-133096000D01*
D18*
X161960789Y-113000010D02*
X162303688Y-113342909D01*
X155003500Y-108712000D02*
X157672779Y-108712000D01*
X157672779Y-108712000D02*
X161960789Y-113000010D01*
X161634478Y-114160613D02*
X162119411Y-114160613D01*
X155372113Y-114160613D02*
X161634478Y-114160613D01*
X152463500Y-111252000D02*
X155372113Y-114160613D01*
X150622000Y-118110000D02*
X151002101Y-117729899D01*
X151002101Y-117729899D02*
X151002101Y-112776899D01*
X151002101Y-112776899D02*
X151257000Y-112522000D01*
X151257000Y-112522000D02*
X151257000Y-110045500D01*
X151257000Y-110045500D02*
X149923500Y-108712000D01*
X164973000Y-113030000D02*
X163893500Y-111950500D01*
X163893500Y-111950500D02*
X163893500Y-108521500D01*
X167233601Y-109054899D02*
X167576500Y-108712000D01*
X165671500Y-110617000D02*
X167233601Y-109054899D01*
X165671500Y-113919000D02*
X165671500Y-110617000D01*
X167767000Y-113792000D02*
X166560500Y-112585500D01*
X169418000Y-113792000D02*
X167767000Y-113792000D01*
D19*
G36*
X172144989Y-105510152D02*
X172734170Y-105903830D01*
X173127848Y-106493011D01*
X173280000Y-107257931D01*
X173280000Y-126490126D01*
X172856876Y-126314430D01*
X172834254Y-126314410D01*
X173084416Y-125940016D01*
X173277762Y-124968000D01*
X173084416Y-123995984D01*
X172533813Y-123171949D01*
X171709778Y-122621346D01*
X170737762Y-122428000D01*
X170638238Y-122428000D01*
X169666222Y-122621346D01*
X168842187Y-123171949D01*
X168291584Y-123995984D01*
X168098238Y-124968000D01*
X168291584Y-125940016D01*
X168842187Y-126764051D01*
X169666222Y-127314654D01*
X170638238Y-127508000D01*
X170737762Y-127508000D01*
X171272403Y-127401653D01*
X171271971Y-127896571D01*
X171472627Y-128382196D01*
X171805600Y-128715750D01*
X171805600Y-131775288D01*
X171442429Y-131774971D01*
X170956804Y-131975627D01*
X170584933Y-132346850D01*
X170383430Y-132832124D01*
X170382971Y-133357571D01*
X170583627Y-133843196D01*
X170650315Y-133910000D01*
X166312929Y-133910000D01*
X166251514Y-133897784D01*
X166243413Y-133893166D01*
X164112445Y-132388953D01*
X164080788Y-132374880D01*
X164054615Y-132352180D01*
X163916619Y-132273516D01*
X163808661Y-132237530D01*
X163703517Y-132193978D01*
X163460513Y-132145642D01*
X163390584Y-132145642D01*
X163322000Y-132132000D01*
X157226000Y-132132000D01*
X157181974Y-132140757D01*
X157137197Y-132137575D01*
X156979603Y-132157442D01*
X156871636Y-132193431D01*
X156761404Y-132221672D01*
X156537998Y-132328805D01*
X156490177Y-132364671D01*
X156435555Y-132388953D01*
X154325252Y-133878578D01*
X154259728Y-133910000D01*
X149390104Y-133910000D01*
X149455067Y-133845150D01*
X149656570Y-133359876D01*
X149657029Y-132834429D01*
X149456373Y-132348804D01*
X149123400Y-132015250D01*
X149123400Y-129985239D01*
X149455067Y-129654150D01*
X149656570Y-129168876D01*
X149656660Y-129064828D01*
X156102777Y-129064828D01*
X156698556Y-129755641D01*
X158783537Y-130662265D01*
X161056758Y-130701989D01*
X163172142Y-129868765D01*
X163341444Y-129755641D01*
X163937223Y-129064828D01*
X160020000Y-125147605D01*
X156102777Y-129064828D01*
X149656660Y-129064828D01*
X149657029Y-128643429D01*
X149456373Y-128157804D01*
X149085150Y-127785933D01*
X148599876Y-127584430D01*
X148074429Y-127583971D01*
X147588804Y-127784627D01*
X147216933Y-128155850D01*
X147015430Y-128641124D01*
X147014971Y-129166571D01*
X147215627Y-129652196D01*
X147548600Y-129985750D01*
X147548600Y-132015761D01*
X147216933Y-132346850D01*
X147015430Y-132832124D01*
X147015345Y-132929428D01*
X146912152Y-132774989D01*
X146760000Y-132010069D01*
X146760000Y-124968000D01*
X146762238Y-124968000D01*
X146955584Y-125940016D01*
X147506187Y-126764051D01*
X148330222Y-127314654D01*
X149302238Y-127508000D01*
X149401762Y-127508000D01*
X150373778Y-127314654D01*
X151197813Y-126764051D01*
X151705156Y-126004758D01*
X154286011Y-126004758D01*
X155119235Y-128120142D01*
X155232359Y-128289444D01*
X155923172Y-128885223D01*
X159840395Y-124968000D01*
X160199605Y-124968000D01*
X164116828Y-128885223D01*
X164807641Y-128289444D01*
X165714265Y-126204463D01*
X165753989Y-123931242D01*
X164920765Y-121815858D01*
X164807641Y-121646556D01*
X164116828Y-121050777D01*
X160199605Y-124968000D01*
X159840395Y-124968000D01*
X155923172Y-121050777D01*
X155232359Y-121646556D01*
X154325735Y-123731537D01*
X154286011Y-126004758D01*
X151705156Y-126004758D01*
X151748416Y-125940016D01*
X151941762Y-124968000D01*
X151748416Y-123995984D01*
X151197813Y-123171949D01*
X150373778Y-122621346D01*
X149401762Y-122428000D01*
X149302238Y-122428000D01*
X148330222Y-122621346D01*
X147506187Y-123171949D01*
X146955584Y-123995984D01*
X146762238Y-124968000D01*
X146760000Y-124968000D01*
X146760000Y-120871172D01*
X156102777Y-120871172D01*
X160020000Y-124788395D01*
X163937223Y-120871172D01*
X163341444Y-120180359D01*
X161256463Y-119273735D01*
X158983242Y-119234011D01*
X156867858Y-120067235D01*
X156698556Y-120180359D01*
X156102777Y-120871172D01*
X146760000Y-120871172D01*
X146760000Y-111608892D01*
X148482014Y-111608892D01*
X148728317Y-112133358D01*
X149156576Y-112523645D01*
X149566610Y-112693476D01*
X149796500Y-112572155D01*
X149796500Y-111379000D01*
X148602681Y-111379000D01*
X148482014Y-111608892D01*
X146760000Y-111608892D01*
X146760000Y-108682907D01*
X148438500Y-108682907D01*
X148438500Y-108741093D01*
X148551539Y-109309378D01*
X148873446Y-109791147D01*
X149156601Y-109980345D01*
X149156576Y-109980355D01*
X148728317Y-110370642D01*
X148482014Y-110895108D01*
X148602681Y-111125000D01*
X149796500Y-111125000D01*
X149796500Y-111105000D01*
X150050500Y-111105000D01*
X150050500Y-111125000D01*
X150070500Y-111125000D01*
X150070500Y-111379000D01*
X150050500Y-111379000D01*
X150050500Y-112572155D01*
X150280390Y-112693476D01*
X150309929Y-112681242D01*
X150290901Y-112776899D01*
X150290901Y-117188718D01*
X150068788Y-117280493D01*
X149793460Y-117555341D01*
X149644270Y-117914630D01*
X149643931Y-118303663D01*
X149792493Y-118663212D01*
X150067341Y-118938540D01*
X150426630Y-119087730D01*
X150815663Y-119088069D01*
X151175212Y-118939507D01*
X151450540Y-118664659D01*
X151599730Y-118305370D01*
X151599853Y-118163873D01*
X170872812Y-118163873D01*
X171037646Y-118562800D01*
X171342595Y-118868282D01*
X171741233Y-119033811D01*
X172172873Y-119034188D01*
X172571800Y-118869354D01*
X172877282Y-118564405D01*
X173042811Y-118165767D01*
X173043188Y-117734127D01*
X172878354Y-117335200D01*
X172573405Y-117029718D01*
X172174767Y-116864189D01*
X171743127Y-116863812D01*
X171344200Y-117028646D01*
X171038718Y-117333595D01*
X170873189Y-117732233D01*
X170872812Y-118163873D01*
X151599853Y-118163873D01*
X151599917Y-118090733D01*
X151659164Y-118002064D01*
X151713301Y-117729899D01*
X151713301Y-113071488D01*
X151759895Y-113024894D01*
X151914063Y-112794164D01*
X151940346Y-112662031D01*
X152463500Y-112766093D01*
X152887472Y-112681760D01*
X154869219Y-114663507D01*
X155099948Y-114817676D01*
X155372113Y-114871813D01*
X161447617Y-114871813D01*
X161564752Y-114989153D01*
X161924041Y-115138343D01*
X162313074Y-115138682D01*
X162672623Y-114990120D01*
X162947951Y-114715272D01*
X163097141Y-114355983D01*
X163097480Y-113966950D01*
X163087331Y-113942387D01*
X163132228Y-113897568D01*
X163281418Y-113538279D01*
X163281757Y-113149246D01*
X163133195Y-112789697D01*
X162858347Y-112514369D01*
X162499058Y-112365179D01*
X162331600Y-112365033D01*
X158175673Y-108209106D01*
X157944944Y-108054937D01*
X157672779Y-108000800D01*
X156500940Y-108000800D01*
X156500940Y-107862000D01*
X156456662Y-107626683D01*
X156436339Y-107595099D01*
X158284699Y-107595099D01*
X158548281Y-108233015D01*
X159035918Y-108721504D01*
X159673373Y-108986199D01*
X160363599Y-108986801D01*
X161001515Y-108723219D01*
X161009585Y-108715163D01*
X162915431Y-108715163D01*
X163063993Y-109074712D01*
X163182300Y-109193226D01*
X163182300Y-111950500D01*
X163236437Y-112222665D01*
X163390606Y-112453394D01*
X163995075Y-113057864D01*
X163994931Y-113223663D01*
X164143493Y-113583212D01*
X164418341Y-113858540D01*
X164693553Y-113972818D01*
X164693431Y-114112663D01*
X164841993Y-114472212D01*
X165116841Y-114747540D01*
X165476130Y-114896730D01*
X165865163Y-114897069D01*
X166224712Y-114748507D01*
X166500040Y-114473659D01*
X166649230Y-114114370D01*
X166649569Y-113725337D01*
X166617898Y-113648686D01*
X167264106Y-114294895D01*
X167494836Y-114449063D01*
X167767000Y-114503200D01*
X168746206Y-114503200D01*
X168863341Y-114620540D01*
X169222630Y-114769730D01*
X169611663Y-114770069D01*
X169971212Y-114621507D01*
X170246540Y-114346659D01*
X170395730Y-113987370D01*
X170395794Y-113913873D01*
X170872812Y-113913873D01*
X171037646Y-114312800D01*
X171342595Y-114618282D01*
X171741233Y-114783811D01*
X172172873Y-114784188D01*
X172571800Y-114619354D01*
X172877282Y-114314405D01*
X173042811Y-113915767D01*
X173043188Y-113484127D01*
X172878354Y-113085200D01*
X172573405Y-112779718D01*
X172174767Y-112614189D01*
X171743127Y-112613812D01*
X171344200Y-112778646D01*
X171038718Y-113083595D01*
X170873189Y-113482233D01*
X170872812Y-113913873D01*
X170395794Y-113913873D01*
X170396069Y-113598337D01*
X170247507Y-113238788D01*
X169972659Y-112963460D01*
X169613370Y-112814270D01*
X169224337Y-112813931D01*
X168864788Y-112962493D01*
X168746274Y-113080800D01*
X168061589Y-113080800D01*
X167538425Y-112557636D01*
X167538569Y-112391837D01*
X167390007Y-112032288D01*
X167115159Y-111756960D01*
X166755870Y-111607770D01*
X166382700Y-111607445D01*
X166382700Y-110911588D01*
X167604364Y-109689925D01*
X167770163Y-109690069D01*
X168129712Y-109541507D01*
X168405040Y-109266659D01*
X168554230Y-108907370D01*
X168554569Y-108518337D01*
X168406007Y-108158788D01*
X168131159Y-107883460D01*
X167771870Y-107734270D01*
X167382837Y-107733931D01*
X167023288Y-107882493D01*
X166747960Y-108157341D01*
X166598770Y-108516630D01*
X166598624Y-108684087D01*
X165168606Y-110114106D01*
X165014437Y-110344835D01*
X165014437Y-110344836D01*
X164960300Y-110617000D01*
X164960300Y-112011511D01*
X164604700Y-111655912D01*
X164604700Y-109193294D01*
X164722040Y-109076159D01*
X164871230Y-108716870D01*
X164871569Y-108327837D01*
X164723007Y-107968288D01*
X164448159Y-107692960D01*
X164088870Y-107543770D01*
X163699837Y-107543431D01*
X163340288Y-107691993D01*
X163064960Y-107966841D01*
X162915770Y-108326130D01*
X162915431Y-108715163D01*
X161009585Y-108715163D01*
X161490004Y-108235582D01*
X161754699Y-107598127D01*
X161755301Y-106907901D01*
X161491719Y-106269985D01*
X161004082Y-105781496D01*
X160366627Y-105516801D01*
X159676401Y-105516199D01*
X159038485Y-105779781D01*
X158549996Y-106267418D01*
X158285301Y-106904873D01*
X158284699Y-107595099D01*
X156436339Y-107595099D01*
X156317590Y-107410559D01*
X156105390Y-107265569D01*
X155853500Y-107214560D01*
X154153500Y-107214560D01*
X153918183Y-107258838D01*
X153702059Y-107397910D01*
X153557069Y-107610110D01*
X153543414Y-107677541D01*
X153513554Y-107632853D01*
X153031785Y-107310946D01*
X152463500Y-107197907D01*
X151895215Y-107310946D01*
X151413446Y-107632853D01*
X151193500Y-107962026D01*
X150973554Y-107632853D01*
X150491785Y-107310946D01*
X149923500Y-107197907D01*
X149355215Y-107310946D01*
X148873446Y-107632853D01*
X148551539Y-108114622D01*
X148438500Y-108682907D01*
X146760000Y-108682907D01*
X146760000Y-107257931D01*
X146912152Y-106493011D01*
X147305830Y-105903830D01*
X147895011Y-105510152D01*
X148659931Y-105358000D01*
X171380069Y-105358000D01*
X172144989Y-105510152D01*
X172144989Y-105510152D01*
G37*
X172144989Y-105510152D02*
X172734170Y-105903830D01*
X173127848Y-106493011D01*
X173280000Y-107257931D01*
X173280000Y-126490126D01*
X172856876Y-126314430D01*
X172834254Y-126314410D01*
X173084416Y-125940016D01*
X173277762Y-124968000D01*
X173084416Y-123995984D01*
X172533813Y-123171949D01*
X171709778Y-122621346D01*
X170737762Y-122428000D01*
X170638238Y-122428000D01*
X169666222Y-122621346D01*
X168842187Y-123171949D01*
X168291584Y-123995984D01*
X168098238Y-124968000D01*
X168291584Y-125940016D01*
X168842187Y-126764051D01*
X169666222Y-127314654D01*
X170638238Y-127508000D01*
X170737762Y-127508000D01*
X171272403Y-127401653D01*
X171271971Y-127896571D01*
X171472627Y-128382196D01*
X171805600Y-128715750D01*
X171805600Y-131775288D01*
X171442429Y-131774971D01*
X170956804Y-131975627D01*
X170584933Y-132346850D01*
X170383430Y-132832124D01*
X170382971Y-133357571D01*
X170583627Y-133843196D01*
X170650315Y-133910000D01*
X166312929Y-133910000D01*
X166251514Y-133897784D01*
X166243413Y-133893166D01*
X164112445Y-132388953D01*
X164080788Y-132374880D01*
X164054615Y-132352180D01*
X163916619Y-132273516D01*
X163808661Y-132237530D01*
X163703517Y-132193978D01*
X163460513Y-132145642D01*
X163390584Y-132145642D01*
X163322000Y-132132000D01*
X157226000Y-132132000D01*
X157181974Y-132140757D01*
X157137197Y-132137575D01*
X156979603Y-132157442D01*
X156871636Y-132193431D01*
X156761404Y-132221672D01*
X156537998Y-132328805D01*
X156490177Y-132364671D01*
X156435555Y-132388953D01*
X154325252Y-133878578D01*
X154259728Y-133910000D01*
X149390104Y-133910000D01*
X149455067Y-133845150D01*
X149656570Y-133359876D01*
X149657029Y-132834429D01*
X149456373Y-132348804D01*
X149123400Y-132015250D01*
X149123400Y-129985239D01*
X149455067Y-129654150D01*
X149656570Y-129168876D01*
X149656660Y-129064828D01*
X156102777Y-129064828D01*
X156698556Y-129755641D01*
X158783537Y-130662265D01*
X161056758Y-130701989D01*
X163172142Y-129868765D01*
X163341444Y-129755641D01*
X163937223Y-129064828D01*
X160020000Y-125147605D01*
X156102777Y-129064828D01*
X149656660Y-129064828D01*
X149657029Y-128643429D01*
X149456373Y-128157804D01*
X149085150Y-127785933D01*
X148599876Y-127584430D01*
X148074429Y-127583971D01*
X147588804Y-127784627D01*
X147216933Y-128155850D01*
X147015430Y-128641124D01*
X147014971Y-129166571D01*
X147215627Y-129652196D01*
X147548600Y-129985750D01*
X147548600Y-132015761D01*
X147216933Y-132346850D01*
X147015430Y-132832124D01*
X147015345Y-132929428D01*
X146912152Y-132774989D01*
X146760000Y-132010069D01*
X146760000Y-124968000D01*
X146762238Y-124968000D01*
X146955584Y-125940016D01*
X147506187Y-126764051D01*
X148330222Y-127314654D01*
X149302238Y-127508000D01*
X149401762Y-127508000D01*
X150373778Y-127314654D01*
X151197813Y-126764051D01*
X151705156Y-126004758D01*
X154286011Y-126004758D01*
X155119235Y-128120142D01*
X155232359Y-128289444D01*
X155923172Y-128885223D01*
X159840395Y-124968000D01*
X160199605Y-124968000D01*
X164116828Y-128885223D01*
X164807641Y-128289444D01*
X165714265Y-126204463D01*
X165753989Y-123931242D01*
X164920765Y-121815858D01*
X164807641Y-121646556D01*
X164116828Y-121050777D01*
X160199605Y-124968000D01*
X159840395Y-124968000D01*
X155923172Y-121050777D01*
X155232359Y-121646556D01*
X154325735Y-123731537D01*
X154286011Y-126004758D01*
X151705156Y-126004758D01*
X151748416Y-125940016D01*
X151941762Y-124968000D01*
X151748416Y-123995984D01*
X151197813Y-123171949D01*
X150373778Y-122621346D01*
X149401762Y-122428000D01*
X149302238Y-122428000D01*
X148330222Y-122621346D01*
X147506187Y-123171949D01*
X146955584Y-123995984D01*
X146762238Y-124968000D01*
X146760000Y-124968000D01*
X146760000Y-120871172D01*
X156102777Y-120871172D01*
X160020000Y-124788395D01*
X163937223Y-120871172D01*
X163341444Y-120180359D01*
X161256463Y-119273735D01*
X158983242Y-119234011D01*
X156867858Y-120067235D01*
X156698556Y-120180359D01*
X156102777Y-120871172D01*
X146760000Y-120871172D01*
X146760000Y-111608892D01*
X148482014Y-111608892D01*
X148728317Y-112133358D01*
X149156576Y-112523645D01*
X149566610Y-112693476D01*
X149796500Y-112572155D01*
X149796500Y-111379000D01*
X148602681Y-111379000D01*
X148482014Y-111608892D01*
X146760000Y-111608892D01*
X146760000Y-108682907D01*
X148438500Y-108682907D01*
X148438500Y-108741093D01*
X148551539Y-109309378D01*
X148873446Y-109791147D01*
X149156601Y-109980345D01*
X149156576Y-109980355D01*
X148728317Y-110370642D01*
X148482014Y-110895108D01*
X148602681Y-111125000D01*
X149796500Y-111125000D01*
X149796500Y-111105000D01*
X150050500Y-111105000D01*
X150050500Y-111125000D01*
X150070500Y-111125000D01*
X150070500Y-111379000D01*
X150050500Y-111379000D01*
X150050500Y-112572155D01*
X150280390Y-112693476D01*
X150309929Y-112681242D01*
X150290901Y-112776899D01*
X150290901Y-117188718D01*
X150068788Y-117280493D01*
X149793460Y-117555341D01*
X149644270Y-117914630D01*
X149643931Y-118303663D01*
X149792493Y-118663212D01*
X150067341Y-118938540D01*
X150426630Y-119087730D01*
X150815663Y-119088069D01*
X151175212Y-118939507D01*
X151450540Y-118664659D01*
X151599730Y-118305370D01*
X151599853Y-118163873D01*
X170872812Y-118163873D01*
X171037646Y-118562800D01*
X171342595Y-118868282D01*
X171741233Y-119033811D01*
X172172873Y-119034188D01*
X172571800Y-118869354D01*
X172877282Y-118564405D01*
X173042811Y-118165767D01*
X173043188Y-117734127D01*
X172878354Y-117335200D01*
X172573405Y-117029718D01*
X172174767Y-116864189D01*
X171743127Y-116863812D01*
X171344200Y-117028646D01*
X171038718Y-117333595D01*
X170873189Y-117732233D01*
X170872812Y-118163873D01*
X151599853Y-118163873D01*
X151599917Y-118090733D01*
X151659164Y-118002064D01*
X151713301Y-117729899D01*
X151713301Y-113071488D01*
X151759895Y-113024894D01*
X151914063Y-112794164D01*
X151940346Y-112662031D01*
X152463500Y-112766093D01*
X152887472Y-112681760D01*
X154869219Y-114663507D01*
X155099948Y-114817676D01*
X155372113Y-114871813D01*
X161447617Y-114871813D01*
X161564752Y-114989153D01*
X161924041Y-115138343D01*
X162313074Y-115138682D01*
X162672623Y-114990120D01*
X162947951Y-114715272D01*
X163097141Y-114355983D01*
X163097480Y-113966950D01*
X163087331Y-113942387D01*
X163132228Y-113897568D01*
X163281418Y-113538279D01*
X163281757Y-113149246D01*
X163133195Y-112789697D01*
X162858347Y-112514369D01*
X162499058Y-112365179D01*
X162331600Y-112365033D01*
X158175673Y-108209106D01*
X157944944Y-108054937D01*
X157672779Y-108000800D01*
X156500940Y-108000800D01*
X156500940Y-107862000D01*
X156456662Y-107626683D01*
X156436339Y-107595099D01*
X158284699Y-107595099D01*
X158548281Y-108233015D01*
X159035918Y-108721504D01*
X159673373Y-108986199D01*
X160363599Y-108986801D01*
X161001515Y-108723219D01*
X161009585Y-108715163D01*
X162915431Y-108715163D01*
X163063993Y-109074712D01*
X163182300Y-109193226D01*
X163182300Y-111950500D01*
X163236437Y-112222665D01*
X163390606Y-112453394D01*
X163995075Y-113057864D01*
X163994931Y-113223663D01*
X164143493Y-113583212D01*
X164418341Y-113858540D01*
X164693553Y-113972818D01*
X164693431Y-114112663D01*
X164841993Y-114472212D01*
X165116841Y-114747540D01*
X165476130Y-114896730D01*
X165865163Y-114897069D01*
X166224712Y-114748507D01*
X166500040Y-114473659D01*
X166649230Y-114114370D01*
X166649569Y-113725337D01*
X166617898Y-113648686D01*
X167264106Y-114294895D01*
X167494836Y-114449063D01*
X167767000Y-114503200D01*
X168746206Y-114503200D01*
X168863341Y-114620540D01*
X169222630Y-114769730D01*
X169611663Y-114770069D01*
X169971212Y-114621507D01*
X170246540Y-114346659D01*
X170395730Y-113987370D01*
X170395794Y-113913873D01*
X170872812Y-113913873D01*
X171037646Y-114312800D01*
X171342595Y-114618282D01*
X171741233Y-114783811D01*
X172172873Y-114784188D01*
X172571800Y-114619354D01*
X172877282Y-114314405D01*
X173042811Y-113915767D01*
X173043188Y-113484127D01*
X172878354Y-113085200D01*
X172573405Y-112779718D01*
X172174767Y-112614189D01*
X171743127Y-112613812D01*
X171344200Y-112778646D01*
X171038718Y-113083595D01*
X170873189Y-113482233D01*
X170872812Y-113913873D01*
X170395794Y-113913873D01*
X170396069Y-113598337D01*
X170247507Y-113238788D01*
X169972659Y-112963460D01*
X169613370Y-112814270D01*
X169224337Y-112813931D01*
X168864788Y-112962493D01*
X168746274Y-113080800D01*
X168061589Y-113080800D01*
X167538425Y-112557636D01*
X167538569Y-112391837D01*
X167390007Y-112032288D01*
X167115159Y-111756960D01*
X166755870Y-111607770D01*
X166382700Y-111607445D01*
X166382700Y-110911588D01*
X167604364Y-109689925D01*
X167770163Y-109690069D01*
X168129712Y-109541507D01*
X168405040Y-109266659D01*
X168554230Y-108907370D01*
X168554569Y-108518337D01*
X168406007Y-108158788D01*
X168131159Y-107883460D01*
X167771870Y-107734270D01*
X167382837Y-107733931D01*
X167023288Y-107882493D01*
X166747960Y-108157341D01*
X166598770Y-108516630D01*
X166598624Y-108684087D01*
X165168606Y-110114106D01*
X165014437Y-110344835D01*
X165014437Y-110344836D01*
X164960300Y-110617000D01*
X164960300Y-112011511D01*
X164604700Y-111655912D01*
X164604700Y-109193294D01*
X164722040Y-109076159D01*
X164871230Y-108716870D01*
X164871569Y-108327837D01*
X164723007Y-107968288D01*
X164448159Y-107692960D01*
X164088870Y-107543770D01*
X163699837Y-107543431D01*
X163340288Y-107691993D01*
X163064960Y-107966841D01*
X162915770Y-108326130D01*
X162915431Y-108715163D01*
X161009585Y-108715163D01*
X161490004Y-108235582D01*
X161754699Y-107598127D01*
X161755301Y-106907901D01*
X161491719Y-106269985D01*
X161004082Y-105781496D01*
X160366627Y-105516801D01*
X159676401Y-105516199D01*
X159038485Y-105779781D01*
X158549996Y-106267418D01*
X158285301Y-106904873D01*
X158284699Y-107595099D01*
X156436339Y-107595099D01*
X156317590Y-107410559D01*
X156105390Y-107265569D01*
X155853500Y-107214560D01*
X154153500Y-107214560D01*
X153918183Y-107258838D01*
X153702059Y-107397910D01*
X153557069Y-107610110D01*
X153543414Y-107677541D01*
X153513554Y-107632853D01*
X153031785Y-107310946D01*
X152463500Y-107197907D01*
X151895215Y-107310946D01*
X151413446Y-107632853D01*
X151193500Y-107962026D01*
X150973554Y-107632853D01*
X150491785Y-107310946D01*
X149923500Y-107197907D01*
X149355215Y-107310946D01*
X148873446Y-107632853D01*
X148551539Y-108114622D01*
X148438500Y-108682907D01*
X146760000Y-108682907D01*
X146760000Y-107257931D01*
X146912152Y-106493011D01*
X147305830Y-105903830D01*
X147895011Y-105510152D01*
X148659931Y-105358000D01*
X171380069Y-105358000D01*
X172144989Y-105510152D01*
M02*
