M48
;DRILL file {KiCad 4.0.6} date Monday, March 26, 2018 'PMt' 03:20:48 PM
;FORMAT={-:-/ absolute / inch / decimal}
FMAT,2
INCH,TZ
T1C0.013
T2C0.026
T3C0.039
T4C0.079
%
G90
G05
M72
T1
X5.855Y-4.7475
X5.9325Y-4.77
X6.0175Y-4.4825
X6.335Y-4.55
X6.4525Y-4.3871
X6.664Y-4.5565
T2
X5.835Y-5.1075
X6.0575Y-4.4575
X6.1375Y-4.4025
X6.175Y-4.625
X6.58Y-4.41
X6.625Y-4.8025
X6.6893Y-4.6876
X6.745Y-5.1775
T3
X5.83Y-4.395
X5.83Y-4.495
X5.83Y-4.595
X5.93Y-4.395
X5.93Y-4.495
X5.93Y-4.595
T4
X5.88Y-4.92
X6.72Y-4.92
T0
M30
