G04 #@! TF.FileFunction,Soldermask,Top*
%FSLAX46Y46*%
G04 Gerber Fmt 4.6, Leading zero omitted, Abs format (unit mm)*
G04 Created by KiCad (PCBNEW 4.0.7) date 08/05/18 15:32:24*
%MOMM*%
%LPD*%
G01*
G04 APERTURE LIST*
%ADD10C,0.100000*%
%ADD11R,1.401600X0.801600*%
%ADD12R,1.801600X1.801600*%
%ADD13O,1.801600X1.801600*%
%ADD14R,0.501600X2.201600*%
%ADD15O,3.911600X3.911600*%
%ADD16R,1.101600X1.351600*%
%ADD17R,1.300480X1.300480*%
%ADD18R,0.901600X1.001600*%
%ADD19R,0.801600X1.401600*%
%ADD20R,1.901600X0.751600*%
%ADD21R,1.901600X0.601600*%
%ADD22R,1.901600X0.761600*%
%ADD23R,1.001600X1.401600*%
%ADD24C,1.001600*%
%ADD25R,0.401600X2.301600*%
%ADD26C,2.301600*%
%ADD27R,2.311400X1.651000*%
G04 APERTURE END LIST*
D10*
D11*
X163449000Y-115250000D03*
X163449000Y-113350000D03*
D12*
X155003500Y-108712000D03*
D13*
X155003500Y-111252000D03*
X152463500Y-108712000D03*
X152463500Y-111252000D03*
X149923500Y-108712000D03*
X149923500Y-111252000D03*
D14*
X154883000Y-128905000D03*
X156083000Y-128905000D03*
X157283000Y-128905000D03*
D15*
X149352000Y-124968000D03*
X170688000Y-124968000D03*
D16*
X155813000Y-115697000D03*
X153813000Y-115697000D03*
D17*
X165354000Y-108173520D03*
X165354000Y-106075480D03*
D18*
X163769000Y-122031000D03*
X165669000Y-122031000D03*
X164719000Y-120031000D03*
D19*
X161864000Y-125603000D03*
X163764000Y-125603000D03*
D11*
X167386000Y-116710500D03*
X167386000Y-114810500D03*
X159512000Y-114488000D03*
X159512000Y-112588000D03*
D20*
X171058000Y-116999000D03*
D21*
X171058000Y-115824000D03*
D22*
X171058000Y-114649000D03*
D23*
X173008000Y-117674000D03*
X173008000Y-113974000D03*
D24*
X171958000Y-113699000D03*
X171958000Y-117949000D03*
D25*
X155108000Y-120114500D03*
X155108000Y-124614500D03*
X155758000Y-120114500D03*
X155758000Y-124614500D03*
X156408000Y-120114500D03*
X156408000Y-124614500D03*
X157058000Y-120114500D03*
X157058000Y-124614500D03*
D26*
X160020000Y-107251500D03*
D27*
X169926000Y-107226100D03*
X169926000Y-109689900D03*
M02*
