G04 #@! TF.GenerationSoftware,KiCad,Pcbnew,(5.0.2)-1*
G04 #@! TF.CreationDate,2019-05-02T14:31:50-05:00*
G04 #@! TF.ProjectId,roomba_wall_v3,726f6f6d-6261-45f7-9761-6c6c5f76332e,B*
G04 #@! TF.SameCoordinates,Original*
G04 #@! TF.FileFunction,Copper,L2,Bot*
G04 #@! TF.FilePolarity,Positive*
%FSLAX46Y46*%
G04 Gerber Fmt 4.6, Leading zero omitted, Abs format (unit mm)*
G04 Created by KiCad (PCBNEW (5.0.2)-1) date 5/2/2019 2:31:50 PM*
%MOMM*%
%LPD*%
G01*
G04 APERTURE LIST*
G04 #@! TA.AperFunction,ComponentPad*
%ADD10R,1.700000X1.700000*%
G04 #@! TD*
G04 #@! TA.AperFunction,ComponentPad*
%ADD11O,1.700000X1.700000*%
G04 #@! TD*
G04 #@! TA.AperFunction,ComponentPad*
%ADD12O,3.810000X3.810000*%
G04 #@! TD*
G04 #@! TA.AperFunction,BGAPad,CuDef*
%ADD13C,10.160000*%
G04 #@! TD*
G04 #@! TA.AperFunction,ViaPad*
%ADD14C,1.371600*%
G04 #@! TD*
G04 #@! TA.AperFunction,ViaPad*
%ADD15C,0.685800*%
G04 #@! TD*
G04 #@! TA.AperFunction,Conductor*
%ADD16C,0.304800*%
G04 #@! TD*
G04 #@! TA.AperFunction,Conductor*
%ADD17C,0.152400*%
G04 #@! TD*
G04 #@! TA.AperFunction,Conductor*
%ADD18C,0.254000*%
G04 #@! TD*
G04 APERTURE END LIST*
D10*
G04 #@! TO.P,CON1,1*
G04 #@! TO.N,/MISO/IR*
X155003500Y-108712000D03*
D11*
G04 #@! TO.P,CON1,2*
G04 #@! TO.N,+3V3*
X155003500Y-111252000D03*
G04 #@! TO.P,CON1,3*
G04 #@! TO.N,/SCK/BUTTON*
X152463500Y-108712000D03*
G04 #@! TO.P,CON1,4*
G04 #@! TO.N,/MOSI/INDICATOR*
X152463500Y-111252000D03*
G04 #@! TO.P,CON1,5*
G04 #@! TO.N,/RST*
X149923500Y-108712000D03*
G04 #@! TO.P,CON1,6*
G04 #@! TO.N,GND*
X149923500Y-111252000D03*
G04 #@! TD*
D12*
G04 #@! TO.P,BT1,1*
G04 #@! TO.N,+3V3*
X149352000Y-124968000D03*
X170688000Y-124968000D03*
D13*
G04 #@! TO.P,BT1,2*
G04 #@! TO.N,GND*
X160020000Y-124968000D03*
G04 #@! TD*
D14*
G04 #@! TO.N,+3V3*
X172593000Y-127635000D03*
X171704000Y-133096000D03*
X148336000Y-133096000D03*
X148336000Y-128905000D03*
D15*
G04 #@! TO.N,/MISO/IR*
X162303688Y-113342909D03*
G04 #@! TO.N,/MOSI/INDICATOR*
X162119411Y-114160613D03*
G04 #@! TO.N,/RST*
X150622000Y-118110000D03*
G04 #@! TO.N,Net-(D1-Pad2)*
X163893500Y-108521500D03*
X164973000Y-113030000D03*
G04 #@! TO.N,Net-(D2-Pad1)*
X167576500Y-108712000D03*
X165671500Y-113919000D03*
G04 #@! TO.N,/SCK/BUTTON*
X166560500Y-112585500D03*
X169418000Y-113792000D03*
G04 #@! TD*
D16*
G04 #@! TO.N,+3V3*
X171704000Y-133096000D02*
X172593000Y-132207000D01*
X172593000Y-132207000D02*
X172593000Y-127635000D01*
X148336000Y-128905000D02*
X148336000Y-133096000D01*
D17*
G04 #@! TO.N,/MISO/IR*
X161960789Y-113000010D02*
X162303688Y-113342909D01*
X155003500Y-108712000D02*
X157672779Y-108712000D01*
X157672779Y-108712000D02*
X161960789Y-113000010D01*
G04 #@! TO.N,/MOSI/INDICATOR*
X161634478Y-114160613D02*
X162119411Y-114160613D01*
X155372113Y-114160613D02*
X161634478Y-114160613D01*
X152463500Y-111252000D02*
X155372113Y-114160613D01*
G04 #@! TO.N,/RST*
X150622000Y-118110000D02*
X151002101Y-117729899D01*
X151002101Y-117729899D02*
X151002101Y-112776899D01*
X151002101Y-112776899D02*
X151257000Y-112522000D01*
X151257000Y-112522000D02*
X151257000Y-110045500D01*
X151257000Y-110045500D02*
X149923500Y-108712000D01*
G04 #@! TO.N,Net-(D1-Pad2)*
X164973000Y-113030000D02*
X163893500Y-111950500D01*
X163893500Y-111950500D02*
X163893500Y-108521500D01*
G04 #@! TO.N,Net-(D2-Pad1)*
X167233601Y-109054899D02*
X167576500Y-108712000D01*
X165671500Y-110617000D02*
X167233601Y-109054899D01*
X165671500Y-113919000D02*
X165671500Y-110617000D01*
G04 #@! TO.N,/SCK/BUTTON*
X167767000Y-113792000D02*
X166560500Y-112585500D01*
X169418000Y-113792000D02*
X167767000Y-113792000D01*
G04 #@! TD*
D18*
G04 #@! TO.N,GND*
G36*
X171903698Y-105420958D02*
X172328893Y-105589305D01*
X172698858Y-105858101D01*
X172990356Y-106210462D01*
X173185067Y-106624244D01*
X173277093Y-107106662D01*
X173280000Y-107199164D01*
X173280001Y-126489942D01*
X172855723Y-126314200D01*
X172843330Y-126314200D01*
X173080627Y-125959059D01*
X173277761Y-124968000D01*
X173080627Y-123976941D01*
X172519238Y-123136762D01*
X171679059Y-122575373D01*
X170938165Y-122428000D01*
X170437835Y-122428000D01*
X169696941Y-122575373D01*
X168856762Y-123136762D01*
X168295373Y-123976941D01*
X168098239Y-124968000D01*
X168295373Y-125959059D01*
X168856762Y-126799238D01*
X169696941Y-127360627D01*
X170437835Y-127508000D01*
X170938165Y-127508000D01*
X171272200Y-127441556D01*
X171272200Y-127897723D01*
X171473280Y-128383173D01*
X171805601Y-128715494D01*
X171805600Y-131775200D01*
X171441277Y-131775200D01*
X170955827Y-131976280D01*
X170584280Y-132347827D01*
X170383200Y-132833277D01*
X170383200Y-133358723D01*
X170584280Y-133844173D01*
X170650107Y-133910000D01*
X166312929Y-133910000D01*
X166251514Y-133897784D01*
X166243413Y-133893165D01*
X164055317Y-132348628D01*
X164023824Y-132334628D01*
X163916619Y-132273516D01*
X163808661Y-132237530D01*
X163703517Y-132193978D01*
X163460513Y-132145642D01*
X163460509Y-132145642D01*
X163391926Y-132132000D01*
X157156074Y-132132000D01*
X157112211Y-132140725D01*
X156979603Y-132157442D01*
X156871636Y-132193431D01*
X156761404Y-132221672D01*
X156547208Y-132324389D01*
X156492682Y-132348628D01*
X154325253Y-133878578D01*
X154259728Y-133910000D01*
X149389893Y-133910000D01*
X149455720Y-133844173D01*
X149656800Y-133358723D01*
X149656800Y-132833277D01*
X149455720Y-132347827D01*
X149123400Y-132015507D01*
X149123400Y-129985493D01*
X149455720Y-129653173D01*
X149656800Y-129167723D01*
X149656800Y-129064828D01*
X156102777Y-129064828D01*
X156698556Y-129755641D01*
X158783537Y-130662265D01*
X161056758Y-130701989D01*
X163172142Y-129868765D01*
X163341444Y-129755641D01*
X163937223Y-129064828D01*
X160020000Y-125147605D01*
X156102777Y-129064828D01*
X149656800Y-129064828D01*
X149656800Y-128642277D01*
X149455720Y-128156827D01*
X149084173Y-127785280D01*
X148598723Y-127584200D01*
X148073277Y-127584200D01*
X147587827Y-127785280D01*
X147216280Y-128156827D01*
X147015200Y-128642277D01*
X147015200Y-129167723D01*
X147216280Y-129653173D01*
X147548600Y-129985493D01*
X147548601Y-132015506D01*
X147216280Y-132347827D01*
X147015200Y-132833277D01*
X147015200Y-132984341D01*
X146854933Y-132643756D01*
X146762907Y-132161339D01*
X146760000Y-132068836D01*
X146760000Y-124968000D01*
X146762239Y-124968000D01*
X146959373Y-125959059D01*
X147520762Y-126799238D01*
X148360941Y-127360627D01*
X149101835Y-127508000D01*
X149602165Y-127508000D01*
X150343059Y-127360627D01*
X151183238Y-126799238D01*
X151714091Y-126004758D01*
X154286011Y-126004758D01*
X155119235Y-128120142D01*
X155232359Y-128289444D01*
X155923172Y-128885223D01*
X159840395Y-124968000D01*
X160199605Y-124968000D01*
X164116828Y-128885223D01*
X164807641Y-128289444D01*
X165714265Y-126204463D01*
X165753989Y-123931242D01*
X164920765Y-121815858D01*
X164807641Y-121646556D01*
X164116828Y-121050777D01*
X160199605Y-124968000D01*
X159840395Y-124968000D01*
X155923172Y-121050777D01*
X155232359Y-121646556D01*
X154325735Y-123731537D01*
X154286011Y-126004758D01*
X151714091Y-126004758D01*
X151744627Y-125959059D01*
X151941761Y-124968000D01*
X151744627Y-123976941D01*
X151183238Y-123136762D01*
X150343059Y-122575373D01*
X149602165Y-122428000D01*
X149101835Y-122428000D01*
X148360941Y-122575373D01*
X147520762Y-123136762D01*
X146959373Y-123976941D01*
X146762239Y-124968000D01*
X146760000Y-124968000D01*
X146760000Y-120871172D01*
X156102777Y-120871172D01*
X160020000Y-124788395D01*
X163937223Y-120871172D01*
X163341444Y-120180359D01*
X161256463Y-119273735D01*
X158983242Y-119234011D01*
X156867858Y-120067235D01*
X156698556Y-120180359D01*
X156102777Y-120871172D01*
X146760000Y-120871172D01*
X146760000Y-111608892D01*
X148482014Y-111608892D01*
X148728317Y-112133358D01*
X149156576Y-112523645D01*
X149566610Y-112693476D01*
X149796500Y-112572155D01*
X149796500Y-111379000D01*
X148602681Y-111379000D01*
X148482014Y-111608892D01*
X146760000Y-111608892D01*
X146760000Y-108712000D01*
X148409408Y-108712000D01*
X148524661Y-109291418D01*
X148852875Y-109782625D01*
X149153286Y-109983353D01*
X148728317Y-110370642D01*
X148482014Y-110895108D01*
X148602681Y-111125000D01*
X149796500Y-111125000D01*
X149796500Y-111105000D01*
X150050500Y-111105000D01*
X150050500Y-111125000D01*
X150070500Y-111125000D01*
X150070500Y-111379000D01*
X150050500Y-111379000D01*
X150050500Y-112572155D01*
X150280390Y-112693476D01*
X150294745Y-112687530D01*
X150276969Y-112776899D01*
X150290902Y-112846945D01*
X150290901Y-117188675D01*
X150068064Y-117280977D01*
X149792977Y-117556064D01*
X149644100Y-117915484D01*
X149644100Y-118304516D01*
X149792977Y-118663936D01*
X150068064Y-118939023D01*
X150427484Y-119087900D01*
X150816516Y-119087900D01*
X151175936Y-118939023D01*
X151451023Y-118663936D01*
X151599900Y-118304516D01*
X151599900Y-118115355D01*
X151672036Y-118007396D01*
X151672037Y-118007395D01*
X151713301Y-117799945D01*
X151713301Y-117799941D01*
X151726580Y-117733180D01*
X170873000Y-117733180D01*
X170873000Y-118164820D01*
X171038182Y-118563603D01*
X171343397Y-118868818D01*
X171742180Y-119034000D01*
X172173820Y-119034000D01*
X172572603Y-118868818D01*
X172877818Y-118563603D01*
X173043000Y-118164820D01*
X173043000Y-117733180D01*
X172877818Y-117334397D01*
X172572603Y-117029182D01*
X172173820Y-116864000D01*
X171742180Y-116864000D01*
X171343397Y-117029182D01*
X171038182Y-117334397D01*
X170873000Y-117733180D01*
X151726580Y-117733180D01*
X151727233Y-117729899D01*
X151713301Y-117659858D01*
X151713301Y-113072461D01*
X151769745Y-113034746D01*
X151809422Y-112975366D01*
X151809424Y-112975364D01*
X151902889Y-112835484D01*
X151926936Y-112799496D01*
X151953749Y-112664697D01*
X152317244Y-112737000D01*
X152609756Y-112737000D01*
X152887471Y-112681759D01*
X154819691Y-114613980D01*
X154859367Y-114673359D01*
X154918746Y-114713035D01*
X154918748Y-114713037D01*
X155003850Y-114769900D01*
X155094617Y-114830549D01*
X155302067Y-114871813D01*
X155302071Y-114871813D01*
X155372113Y-114885745D01*
X155442155Y-114871813D01*
X161447652Y-114871813D01*
X161565475Y-114989636D01*
X161924895Y-115138513D01*
X162313927Y-115138513D01*
X162673347Y-114989636D01*
X162948434Y-114714549D01*
X163097311Y-114355129D01*
X163097311Y-113966097D01*
X163087396Y-113942160D01*
X163132711Y-113896845D01*
X163281588Y-113537425D01*
X163281588Y-113148393D01*
X163132711Y-112788973D01*
X162857624Y-112513886D01*
X162498204Y-112365009D01*
X162331577Y-112365009D01*
X158225203Y-108258636D01*
X158185525Y-108199254D01*
X157950275Y-108042064D01*
X157742825Y-108000800D01*
X157742820Y-108000800D01*
X157672779Y-107986868D01*
X157602738Y-108000800D01*
X156500940Y-108000800D01*
X156500940Y-107862000D01*
X156451657Y-107614235D01*
X156311309Y-107404191D01*
X156101265Y-107263843D01*
X155853500Y-107214560D01*
X154153500Y-107214560D01*
X153905735Y-107263843D01*
X153695691Y-107404191D01*
X153555343Y-107614235D01*
X153546316Y-107659619D01*
X153534125Y-107641375D01*
X153042918Y-107313161D01*
X152609756Y-107227000D01*
X152317244Y-107227000D01*
X151884082Y-107313161D01*
X151392875Y-107641375D01*
X151193500Y-107939761D01*
X150994125Y-107641375D01*
X150502918Y-107313161D01*
X150069756Y-107227000D01*
X149777244Y-107227000D01*
X149344082Y-107313161D01*
X148852875Y-107641375D01*
X148524661Y-108132582D01*
X148409408Y-108712000D01*
X146760000Y-108712000D01*
X146760000Y-107232666D01*
X146801218Y-106906387D01*
X158285000Y-106906387D01*
X158285000Y-107596613D01*
X158549138Y-108234299D01*
X159037201Y-108722362D01*
X159674887Y-108986500D01*
X160365113Y-108986500D01*
X161002799Y-108722362D01*
X161398177Y-108326984D01*
X162915600Y-108326984D01*
X162915600Y-108716016D01*
X163064477Y-109075436D01*
X163182301Y-109193260D01*
X163182300Y-111880458D01*
X163168368Y-111950500D01*
X163182300Y-112020541D01*
X163182300Y-112020545D01*
X163223564Y-112227995D01*
X163247724Y-112264153D01*
X163341076Y-112403864D01*
X163341078Y-112403866D01*
X163380754Y-112463245D01*
X163440134Y-112502922D01*
X163995100Y-113057889D01*
X163995100Y-113224516D01*
X164143977Y-113583936D01*
X164419064Y-113859023D01*
X164693600Y-113972740D01*
X164693600Y-114113516D01*
X164842477Y-114472936D01*
X165117564Y-114748023D01*
X165476984Y-114896900D01*
X165866016Y-114896900D01*
X166225436Y-114748023D01*
X166500523Y-114472936D01*
X166649400Y-114113516D01*
X166649400Y-113724484D01*
X166618078Y-113648867D01*
X167214578Y-114245367D01*
X167254254Y-114304746D01*
X167313633Y-114344422D01*
X167313635Y-114344424D01*
X167429336Y-114421733D01*
X167489504Y-114461936D01*
X167696954Y-114503200D01*
X167696958Y-114503200D01*
X167767000Y-114517132D01*
X167837042Y-114503200D01*
X168746241Y-114503200D01*
X168864064Y-114621023D01*
X169223484Y-114769900D01*
X169612516Y-114769900D01*
X169971936Y-114621023D01*
X170247023Y-114345936D01*
X170395900Y-113986516D01*
X170395900Y-113597484D01*
X170348554Y-113483180D01*
X170873000Y-113483180D01*
X170873000Y-113914820D01*
X171038182Y-114313603D01*
X171343397Y-114618818D01*
X171742180Y-114784000D01*
X172173820Y-114784000D01*
X172572603Y-114618818D01*
X172877818Y-114313603D01*
X173043000Y-113914820D01*
X173043000Y-113483180D01*
X172877818Y-113084397D01*
X172572603Y-112779182D01*
X172173820Y-112614000D01*
X171742180Y-112614000D01*
X171343397Y-112779182D01*
X171038182Y-113084397D01*
X170873000Y-113483180D01*
X170348554Y-113483180D01*
X170247023Y-113238064D01*
X169971936Y-112962977D01*
X169612516Y-112814100D01*
X169223484Y-112814100D01*
X168864064Y-112962977D01*
X168746241Y-113080800D01*
X168061589Y-113080800D01*
X167538400Y-112557612D01*
X167538400Y-112390984D01*
X167389523Y-112031564D01*
X167114436Y-111756477D01*
X166755016Y-111607600D01*
X166382700Y-111607600D01*
X166382700Y-110911588D01*
X167604389Y-109689900D01*
X167771016Y-109689900D01*
X168130436Y-109541023D01*
X168405523Y-109265936D01*
X168554400Y-108906516D01*
X168554400Y-108517484D01*
X168405523Y-108158064D01*
X168130436Y-107882977D01*
X167771016Y-107734100D01*
X167381984Y-107734100D01*
X167022564Y-107882977D01*
X166747477Y-108158064D01*
X166598600Y-108517484D01*
X166598600Y-108684111D01*
X165218134Y-110064578D01*
X165158755Y-110104254D01*
X165119079Y-110163633D01*
X165119076Y-110163636D01*
X165001565Y-110339504D01*
X164946368Y-110617000D01*
X164960301Y-110687046D01*
X164960301Y-112011512D01*
X164604700Y-111655912D01*
X164604700Y-109193259D01*
X164722523Y-109075436D01*
X164871400Y-108716016D01*
X164871400Y-108326984D01*
X164722523Y-107967564D01*
X164447436Y-107692477D01*
X164088016Y-107543600D01*
X163698984Y-107543600D01*
X163339564Y-107692477D01*
X163064477Y-107967564D01*
X162915600Y-108326984D01*
X161398177Y-108326984D01*
X161490862Y-108234299D01*
X161755000Y-107596613D01*
X161755000Y-106906387D01*
X161490862Y-106268701D01*
X161002799Y-105780638D01*
X160365113Y-105516500D01*
X159674887Y-105516500D01*
X159037201Y-105780638D01*
X158549138Y-106268701D01*
X158285000Y-106906387D01*
X146801218Y-106906387D01*
X146822958Y-106734302D01*
X146991305Y-106309107D01*
X147260101Y-105939142D01*
X147612462Y-105647644D01*
X148026244Y-105452933D01*
X148508662Y-105360907D01*
X148601164Y-105358000D01*
X171405334Y-105358000D01*
X171903698Y-105420958D01*
X171903698Y-105420958D01*
G37*
X171903698Y-105420958D02*
X172328893Y-105589305D01*
X172698858Y-105858101D01*
X172990356Y-106210462D01*
X173185067Y-106624244D01*
X173277093Y-107106662D01*
X173280000Y-107199164D01*
X173280001Y-126489942D01*
X172855723Y-126314200D01*
X172843330Y-126314200D01*
X173080627Y-125959059D01*
X173277761Y-124968000D01*
X173080627Y-123976941D01*
X172519238Y-123136762D01*
X171679059Y-122575373D01*
X170938165Y-122428000D01*
X170437835Y-122428000D01*
X169696941Y-122575373D01*
X168856762Y-123136762D01*
X168295373Y-123976941D01*
X168098239Y-124968000D01*
X168295373Y-125959059D01*
X168856762Y-126799238D01*
X169696941Y-127360627D01*
X170437835Y-127508000D01*
X170938165Y-127508000D01*
X171272200Y-127441556D01*
X171272200Y-127897723D01*
X171473280Y-128383173D01*
X171805601Y-128715494D01*
X171805600Y-131775200D01*
X171441277Y-131775200D01*
X170955827Y-131976280D01*
X170584280Y-132347827D01*
X170383200Y-132833277D01*
X170383200Y-133358723D01*
X170584280Y-133844173D01*
X170650107Y-133910000D01*
X166312929Y-133910000D01*
X166251514Y-133897784D01*
X166243413Y-133893165D01*
X164055317Y-132348628D01*
X164023824Y-132334628D01*
X163916619Y-132273516D01*
X163808661Y-132237530D01*
X163703517Y-132193978D01*
X163460513Y-132145642D01*
X163460509Y-132145642D01*
X163391926Y-132132000D01*
X157156074Y-132132000D01*
X157112211Y-132140725D01*
X156979603Y-132157442D01*
X156871636Y-132193431D01*
X156761404Y-132221672D01*
X156547208Y-132324389D01*
X156492682Y-132348628D01*
X154325253Y-133878578D01*
X154259728Y-133910000D01*
X149389893Y-133910000D01*
X149455720Y-133844173D01*
X149656800Y-133358723D01*
X149656800Y-132833277D01*
X149455720Y-132347827D01*
X149123400Y-132015507D01*
X149123400Y-129985493D01*
X149455720Y-129653173D01*
X149656800Y-129167723D01*
X149656800Y-129064828D01*
X156102777Y-129064828D01*
X156698556Y-129755641D01*
X158783537Y-130662265D01*
X161056758Y-130701989D01*
X163172142Y-129868765D01*
X163341444Y-129755641D01*
X163937223Y-129064828D01*
X160020000Y-125147605D01*
X156102777Y-129064828D01*
X149656800Y-129064828D01*
X149656800Y-128642277D01*
X149455720Y-128156827D01*
X149084173Y-127785280D01*
X148598723Y-127584200D01*
X148073277Y-127584200D01*
X147587827Y-127785280D01*
X147216280Y-128156827D01*
X147015200Y-128642277D01*
X147015200Y-129167723D01*
X147216280Y-129653173D01*
X147548600Y-129985493D01*
X147548601Y-132015506D01*
X147216280Y-132347827D01*
X147015200Y-132833277D01*
X147015200Y-132984341D01*
X146854933Y-132643756D01*
X146762907Y-132161339D01*
X146760000Y-132068836D01*
X146760000Y-124968000D01*
X146762239Y-124968000D01*
X146959373Y-125959059D01*
X147520762Y-126799238D01*
X148360941Y-127360627D01*
X149101835Y-127508000D01*
X149602165Y-127508000D01*
X150343059Y-127360627D01*
X151183238Y-126799238D01*
X151714091Y-126004758D01*
X154286011Y-126004758D01*
X155119235Y-128120142D01*
X155232359Y-128289444D01*
X155923172Y-128885223D01*
X159840395Y-124968000D01*
X160199605Y-124968000D01*
X164116828Y-128885223D01*
X164807641Y-128289444D01*
X165714265Y-126204463D01*
X165753989Y-123931242D01*
X164920765Y-121815858D01*
X164807641Y-121646556D01*
X164116828Y-121050777D01*
X160199605Y-124968000D01*
X159840395Y-124968000D01*
X155923172Y-121050777D01*
X155232359Y-121646556D01*
X154325735Y-123731537D01*
X154286011Y-126004758D01*
X151714091Y-126004758D01*
X151744627Y-125959059D01*
X151941761Y-124968000D01*
X151744627Y-123976941D01*
X151183238Y-123136762D01*
X150343059Y-122575373D01*
X149602165Y-122428000D01*
X149101835Y-122428000D01*
X148360941Y-122575373D01*
X147520762Y-123136762D01*
X146959373Y-123976941D01*
X146762239Y-124968000D01*
X146760000Y-124968000D01*
X146760000Y-120871172D01*
X156102777Y-120871172D01*
X160020000Y-124788395D01*
X163937223Y-120871172D01*
X163341444Y-120180359D01*
X161256463Y-119273735D01*
X158983242Y-119234011D01*
X156867858Y-120067235D01*
X156698556Y-120180359D01*
X156102777Y-120871172D01*
X146760000Y-120871172D01*
X146760000Y-111608892D01*
X148482014Y-111608892D01*
X148728317Y-112133358D01*
X149156576Y-112523645D01*
X149566610Y-112693476D01*
X149796500Y-112572155D01*
X149796500Y-111379000D01*
X148602681Y-111379000D01*
X148482014Y-111608892D01*
X146760000Y-111608892D01*
X146760000Y-108712000D01*
X148409408Y-108712000D01*
X148524661Y-109291418D01*
X148852875Y-109782625D01*
X149153286Y-109983353D01*
X148728317Y-110370642D01*
X148482014Y-110895108D01*
X148602681Y-111125000D01*
X149796500Y-111125000D01*
X149796500Y-111105000D01*
X150050500Y-111105000D01*
X150050500Y-111125000D01*
X150070500Y-111125000D01*
X150070500Y-111379000D01*
X150050500Y-111379000D01*
X150050500Y-112572155D01*
X150280390Y-112693476D01*
X150294745Y-112687530D01*
X150276969Y-112776899D01*
X150290902Y-112846945D01*
X150290901Y-117188675D01*
X150068064Y-117280977D01*
X149792977Y-117556064D01*
X149644100Y-117915484D01*
X149644100Y-118304516D01*
X149792977Y-118663936D01*
X150068064Y-118939023D01*
X150427484Y-119087900D01*
X150816516Y-119087900D01*
X151175936Y-118939023D01*
X151451023Y-118663936D01*
X151599900Y-118304516D01*
X151599900Y-118115355D01*
X151672036Y-118007396D01*
X151672037Y-118007395D01*
X151713301Y-117799945D01*
X151713301Y-117799941D01*
X151726580Y-117733180D01*
X170873000Y-117733180D01*
X170873000Y-118164820D01*
X171038182Y-118563603D01*
X171343397Y-118868818D01*
X171742180Y-119034000D01*
X172173820Y-119034000D01*
X172572603Y-118868818D01*
X172877818Y-118563603D01*
X173043000Y-118164820D01*
X173043000Y-117733180D01*
X172877818Y-117334397D01*
X172572603Y-117029182D01*
X172173820Y-116864000D01*
X171742180Y-116864000D01*
X171343397Y-117029182D01*
X171038182Y-117334397D01*
X170873000Y-117733180D01*
X151726580Y-117733180D01*
X151727233Y-117729899D01*
X151713301Y-117659858D01*
X151713301Y-113072461D01*
X151769745Y-113034746D01*
X151809422Y-112975366D01*
X151809424Y-112975364D01*
X151902889Y-112835484D01*
X151926936Y-112799496D01*
X151953749Y-112664697D01*
X152317244Y-112737000D01*
X152609756Y-112737000D01*
X152887471Y-112681759D01*
X154819691Y-114613980D01*
X154859367Y-114673359D01*
X154918746Y-114713035D01*
X154918748Y-114713037D01*
X155003850Y-114769900D01*
X155094617Y-114830549D01*
X155302067Y-114871813D01*
X155302071Y-114871813D01*
X155372113Y-114885745D01*
X155442155Y-114871813D01*
X161447652Y-114871813D01*
X161565475Y-114989636D01*
X161924895Y-115138513D01*
X162313927Y-115138513D01*
X162673347Y-114989636D01*
X162948434Y-114714549D01*
X163097311Y-114355129D01*
X163097311Y-113966097D01*
X163087396Y-113942160D01*
X163132711Y-113896845D01*
X163281588Y-113537425D01*
X163281588Y-113148393D01*
X163132711Y-112788973D01*
X162857624Y-112513886D01*
X162498204Y-112365009D01*
X162331577Y-112365009D01*
X158225203Y-108258636D01*
X158185525Y-108199254D01*
X157950275Y-108042064D01*
X157742825Y-108000800D01*
X157742820Y-108000800D01*
X157672779Y-107986868D01*
X157602738Y-108000800D01*
X156500940Y-108000800D01*
X156500940Y-107862000D01*
X156451657Y-107614235D01*
X156311309Y-107404191D01*
X156101265Y-107263843D01*
X155853500Y-107214560D01*
X154153500Y-107214560D01*
X153905735Y-107263843D01*
X153695691Y-107404191D01*
X153555343Y-107614235D01*
X153546316Y-107659619D01*
X153534125Y-107641375D01*
X153042918Y-107313161D01*
X152609756Y-107227000D01*
X152317244Y-107227000D01*
X151884082Y-107313161D01*
X151392875Y-107641375D01*
X151193500Y-107939761D01*
X150994125Y-107641375D01*
X150502918Y-107313161D01*
X150069756Y-107227000D01*
X149777244Y-107227000D01*
X149344082Y-107313161D01*
X148852875Y-107641375D01*
X148524661Y-108132582D01*
X148409408Y-108712000D01*
X146760000Y-108712000D01*
X146760000Y-107232666D01*
X146801218Y-106906387D01*
X158285000Y-106906387D01*
X158285000Y-107596613D01*
X158549138Y-108234299D01*
X159037201Y-108722362D01*
X159674887Y-108986500D01*
X160365113Y-108986500D01*
X161002799Y-108722362D01*
X161398177Y-108326984D01*
X162915600Y-108326984D01*
X162915600Y-108716016D01*
X163064477Y-109075436D01*
X163182301Y-109193260D01*
X163182300Y-111880458D01*
X163168368Y-111950500D01*
X163182300Y-112020541D01*
X163182300Y-112020545D01*
X163223564Y-112227995D01*
X163247724Y-112264153D01*
X163341076Y-112403864D01*
X163341078Y-112403866D01*
X163380754Y-112463245D01*
X163440134Y-112502922D01*
X163995100Y-113057889D01*
X163995100Y-113224516D01*
X164143977Y-113583936D01*
X164419064Y-113859023D01*
X164693600Y-113972740D01*
X164693600Y-114113516D01*
X164842477Y-114472936D01*
X165117564Y-114748023D01*
X165476984Y-114896900D01*
X165866016Y-114896900D01*
X166225436Y-114748023D01*
X166500523Y-114472936D01*
X166649400Y-114113516D01*
X166649400Y-113724484D01*
X166618078Y-113648867D01*
X167214578Y-114245367D01*
X167254254Y-114304746D01*
X167313633Y-114344422D01*
X167313635Y-114344424D01*
X167429336Y-114421733D01*
X167489504Y-114461936D01*
X167696954Y-114503200D01*
X167696958Y-114503200D01*
X167767000Y-114517132D01*
X167837042Y-114503200D01*
X168746241Y-114503200D01*
X168864064Y-114621023D01*
X169223484Y-114769900D01*
X169612516Y-114769900D01*
X169971936Y-114621023D01*
X170247023Y-114345936D01*
X170395900Y-113986516D01*
X170395900Y-113597484D01*
X170348554Y-113483180D01*
X170873000Y-113483180D01*
X170873000Y-113914820D01*
X171038182Y-114313603D01*
X171343397Y-114618818D01*
X171742180Y-114784000D01*
X172173820Y-114784000D01*
X172572603Y-114618818D01*
X172877818Y-114313603D01*
X173043000Y-113914820D01*
X173043000Y-113483180D01*
X172877818Y-113084397D01*
X172572603Y-112779182D01*
X172173820Y-112614000D01*
X171742180Y-112614000D01*
X171343397Y-112779182D01*
X171038182Y-113084397D01*
X170873000Y-113483180D01*
X170348554Y-113483180D01*
X170247023Y-113238064D01*
X169971936Y-112962977D01*
X169612516Y-112814100D01*
X169223484Y-112814100D01*
X168864064Y-112962977D01*
X168746241Y-113080800D01*
X168061589Y-113080800D01*
X167538400Y-112557612D01*
X167538400Y-112390984D01*
X167389523Y-112031564D01*
X167114436Y-111756477D01*
X166755016Y-111607600D01*
X166382700Y-111607600D01*
X166382700Y-110911588D01*
X167604389Y-109689900D01*
X167771016Y-109689900D01*
X168130436Y-109541023D01*
X168405523Y-109265936D01*
X168554400Y-108906516D01*
X168554400Y-108517484D01*
X168405523Y-108158064D01*
X168130436Y-107882977D01*
X167771016Y-107734100D01*
X167381984Y-107734100D01*
X167022564Y-107882977D01*
X166747477Y-108158064D01*
X166598600Y-108517484D01*
X166598600Y-108684111D01*
X165218134Y-110064578D01*
X165158755Y-110104254D01*
X165119079Y-110163633D01*
X165119076Y-110163636D01*
X165001565Y-110339504D01*
X164946368Y-110617000D01*
X164960301Y-110687046D01*
X164960301Y-112011512D01*
X164604700Y-111655912D01*
X164604700Y-109193259D01*
X164722523Y-109075436D01*
X164871400Y-108716016D01*
X164871400Y-108326984D01*
X164722523Y-107967564D01*
X164447436Y-107692477D01*
X164088016Y-107543600D01*
X163698984Y-107543600D01*
X163339564Y-107692477D01*
X163064477Y-107967564D01*
X162915600Y-108326984D01*
X161398177Y-108326984D01*
X161490862Y-108234299D01*
X161755000Y-107596613D01*
X161755000Y-106906387D01*
X161490862Y-106268701D01*
X161002799Y-105780638D01*
X160365113Y-105516500D01*
X159674887Y-105516500D01*
X159037201Y-105780638D01*
X158549138Y-106268701D01*
X158285000Y-106906387D01*
X146801218Y-106906387D01*
X146822958Y-106734302D01*
X146991305Y-106309107D01*
X147260101Y-105939142D01*
X147612462Y-105647644D01*
X148026244Y-105452933D01*
X148508662Y-105360907D01*
X148601164Y-105358000D01*
X171405334Y-105358000D01*
X171903698Y-105420958D01*
G04 #@! TD*
M02*
