G04 #@! TF.FileFunction,Copper,L1,Top,Signal*
%FSLAX46Y46*%
G04 Gerber Fmt 4.6, Leading zero omitted, Abs format (unit mm)*
G04 Created by KiCad (PCBNEW 4.0.6) date Monday, March 26, 2018 'PMt' 03:20:40 PM*
%MOMM*%
%LPD*%
G01*
G04 APERTURE LIST*
%ADD10C,0.100000*%
%ADD11R,1.300000X0.700000*%
%ADD12R,1.700000X1.700000*%
%ADD13O,1.700000X1.700000*%
%ADD14R,0.400000X2.100000*%
%ADD15O,3.810000X3.810000*%
%ADD16R,1.000000X1.250000*%
%ADD17R,1.198880X1.198880*%
%ADD18R,0.797560X0.797560*%
%ADD19R,0.800000X0.900000*%
%ADD20R,0.700000X1.300000*%
%ADD21R,1.800000X0.650000*%
%ADD22R,1.800000X0.500000*%
%ADD23R,1.800000X0.660000*%
%ADD24R,0.900000X1.300000*%
%ADD25R,0.700000X1.500000*%
%ADD26R,1.000000X0.800000*%
%ADD27R,0.300000X2.200000*%
%ADD28C,1.371600*%
%ADD29C,0.685800*%
%ADD30C,0.304800*%
%ADD31C,0.152400*%
%ADD32C,0.254000*%
G04 APERTURE END LIST*
D10*
D11*
X163449000Y-115250000D03*
X163449000Y-113350000D03*
D12*
X150622000Y-116713000D03*
D13*
X148082000Y-116713000D03*
X150622000Y-114173000D03*
X148082000Y-114173000D03*
X150622000Y-111633000D03*
X148082000Y-111633000D03*
D14*
X154883000Y-128905000D03*
X156083000Y-128905000D03*
X157283000Y-128905000D03*
D15*
X149352000Y-124968000D03*
X170688000Y-124968000D03*
D16*
X155813000Y-115697000D03*
X153813000Y-115697000D03*
D17*
X165354000Y-108173520D03*
X165354000Y-106075480D03*
D18*
X169418000Y-107429300D03*
X169418000Y-105930700D03*
D19*
X163769000Y-122031000D03*
X165669000Y-122031000D03*
X164719000Y-120031000D03*
D20*
X161864000Y-125603000D03*
X163764000Y-125603000D03*
D11*
X167386000Y-116710500D03*
X167386000Y-114810500D03*
X159512000Y-114488000D03*
X159512000Y-112588000D03*
D21*
X171058000Y-116999000D03*
D22*
X171058000Y-115824000D03*
D23*
X171058000Y-114649000D03*
D24*
X173008000Y-117674000D03*
X173008000Y-113974000D03*
D25*
X150213500Y-108680000D03*
X151713500Y-108680000D03*
X154713500Y-108680000D03*
D26*
X156113500Y-105580000D03*
X156113500Y-107780000D03*
X148813500Y-107780000D03*
X148813500Y-105580000D03*
D27*
X155108000Y-120114500D03*
X155108000Y-124614500D03*
X155758000Y-120114500D03*
X155758000Y-124614500D03*
X156408000Y-120114500D03*
X156408000Y-124614500D03*
X157058000Y-120114500D03*
X157058000Y-124614500D03*
D28*
X156845000Y-117475000D03*
X167132000Y-112014000D03*
X168275000Y-121983500D03*
X155892500Y-111823500D03*
X169907789Y-119064873D03*
D29*
X150685500Y-121158000D03*
X160909000Y-115570000D03*
X152844500Y-113855500D03*
X148717000Y-120586500D03*
D28*
X148209000Y-129730500D03*
X171323000Y-131508500D03*
X153860500Y-113220500D03*
D29*
X163894197Y-111433312D03*
X169265409Y-115735715D03*
D30*
X153813000Y-115697000D02*
X153813000Y-115822000D01*
X153813000Y-115822000D02*
X155466000Y-117475000D01*
X155466000Y-117475000D02*
X155875133Y-117475000D01*
X155875133Y-117475000D02*
X156845000Y-117475000D01*
X167132000Y-112014000D02*
X167132000Y-106949240D01*
X167132000Y-106949240D02*
X166258240Y-106075480D01*
X166258240Y-106075480D02*
X165354000Y-106075480D01*
X156845000Y-117177500D02*
X156845000Y-117475000D01*
X160816166Y-130412201D02*
X162814000Y-128414367D01*
X157512800Y-124614500D02*
X161312667Y-128414367D01*
X162814000Y-128414367D02*
X168275000Y-122953367D01*
X157058000Y-124614500D02*
X157512800Y-124614500D01*
X161312667Y-128414367D02*
X162814000Y-128414367D01*
X156083000Y-128905000D02*
X156083000Y-130259800D01*
X156083000Y-130259800D02*
X156235401Y-130412201D01*
X156235401Y-130412201D02*
X160816166Y-130412201D01*
X168275000Y-122953367D02*
X168275000Y-121983500D01*
X165669000Y-122031000D02*
X168227500Y-122031000D01*
X168227500Y-122031000D02*
X168275000Y-121983500D01*
X155813000Y-115697000D02*
X155813000Y-111903000D01*
X155813000Y-111903000D02*
X155892500Y-111823500D01*
X154713500Y-108680000D02*
X154713500Y-110644500D01*
X154713500Y-110644500D02*
X155892500Y-111823500D01*
X169221990Y-118379074D02*
X169907789Y-119064873D01*
X167686000Y-116843084D02*
X169221990Y-118379074D01*
X167686000Y-116710500D02*
X167686000Y-116843084D01*
X167386000Y-116710500D02*
X167686000Y-116710500D01*
X155813000Y-115572000D02*
X155813000Y-115697000D01*
X169853200Y-114649000D02*
X171058000Y-114649000D01*
X168837348Y-114649000D02*
X169853200Y-114649000D01*
X168493201Y-114993147D02*
X168837348Y-114649000D01*
X168493201Y-115526261D02*
X168493201Y-114993147D01*
X168340800Y-116055700D02*
X168340800Y-115678662D01*
X168340800Y-115678662D02*
X168493201Y-115526261D01*
X167686000Y-116710500D02*
X168340800Y-116055700D01*
X167386000Y-116710500D02*
X170769500Y-116710500D01*
X170769500Y-116710500D02*
X171058000Y-116999000D01*
X148082000Y-116713000D02*
X148082000Y-117915081D01*
X154653200Y-120114500D02*
X155108000Y-120114500D01*
X148082000Y-117915081D02*
X150281419Y-120114500D01*
X150281419Y-120114500D02*
X154653200Y-120114500D01*
D31*
X156408000Y-121366900D02*
X156179399Y-121595501D01*
X156179399Y-121595501D02*
X151123001Y-121595501D01*
X151123001Y-121595501D02*
X150685500Y-121158000D01*
X161864000Y-125603000D02*
X160644100Y-125603000D01*
X160644100Y-125603000D02*
X156408000Y-121366900D01*
X156408000Y-121366900D02*
X156408000Y-120114500D01*
X161345400Y-119316500D02*
X163449000Y-117212900D01*
X160547400Y-120114500D02*
X161345400Y-119316500D01*
X161345400Y-119316500D02*
X161345400Y-116006400D01*
X161345400Y-116006400D02*
X160909000Y-115570000D01*
X163449000Y-115250000D02*
X163449000Y-115752400D01*
X163449000Y-115752400D02*
X163449000Y-116710500D01*
X157058000Y-120114500D02*
X160547400Y-120114500D01*
X163449000Y-117212900D02*
X163449000Y-116710500D01*
X148082000Y-114173000D02*
X149160601Y-113094399D01*
X149160601Y-113094399D02*
X152083399Y-113094399D01*
X152083399Y-113094399D02*
X152844500Y-113855500D01*
X157360400Y-120114500D02*
X157058000Y-120114500D01*
X148717000Y-120586500D02*
X148717000Y-121071433D01*
X148717000Y-121071433D02*
X152260067Y-124614500D01*
X152260067Y-124614500D02*
X154805600Y-124614500D01*
X154805600Y-124614500D02*
X155108000Y-124614500D01*
X165354000Y-108173520D02*
X165354000Y-111315500D01*
X165354000Y-111315500D02*
X165354000Y-111412020D01*
X163449000Y-113350000D02*
X164251400Y-113350000D01*
X165354000Y-112247400D02*
X165354000Y-111315500D01*
X164251400Y-113350000D02*
X165354000Y-112247400D01*
X164719000Y-116066018D02*
X168783000Y-112002018D01*
X168783000Y-112002018D02*
X168790619Y-111994399D01*
X169418000Y-105930700D02*
X168866820Y-105930700D01*
X168866820Y-105930700D02*
X168783000Y-106014520D01*
X168783000Y-106014520D02*
X168783000Y-112002018D01*
X164719000Y-120031000D02*
X164719000Y-116066018D01*
X169418000Y-107429300D02*
X169418000Y-112276100D01*
X169418000Y-112276100D02*
X167386000Y-114308100D01*
X167386000Y-114308100D02*
X167386000Y-114810500D01*
X155758000Y-124614500D02*
X155758000Y-125564500D01*
X155758000Y-125564500D02*
X154883000Y-126439500D01*
X154883000Y-126439500D02*
X154883000Y-127702600D01*
X154883000Y-127702600D02*
X154883000Y-128905000D01*
X156408000Y-124614500D02*
X156408000Y-127294198D01*
X156408000Y-127294198D02*
X156816402Y-127702600D01*
X156816402Y-127702600D02*
X156930600Y-127702600D01*
X156930600Y-127702600D02*
X157283000Y-128055000D01*
X157283000Y-128055000D02*
X157283000Y-128905000D01*
X163769000Y-122031000D02*
X163769000Y-125598000D01*
X163769000Y-125598000D02*
X163764000Y-125603000D01*
D30*
X151713500Y-108680000D02*
X152368300Y-108680000D01*
X152368300Y-108680000D02*
X153860500Y-110172200D01*
X153860500Y-110172200D02*
X153860500Y-112250633D01*
X153860500Y-112250633D02*
X153860500Y-113220500D01*
X171323000Y-131508500D02*
X149987000Y-131508500D01*
X149987000Y-131508500D02*
X148209000Y-129730500D01*
D31*
X155758000Y-120114500D02*
X155758000Y-119164500D01*
X155758000Y-119164500D02*
X156380698Y-118541802D01*
X156380698Y-118541802D02*
X157380698Y-118541802D01*
X157380698Y-118541802D02*
X159512000Y-116410500D01*
X159512000Y-116410500D02*
X159512000Y-114488000D01*
X159512000Y-114488000D02*
X160839509Y-114488000D01*
X160839509Y-114488000D02*
X163894197Y-111433312D01*
X171058000Y-115824000D02*
X169353694Y-115824000D01*
X169353694Y-115824000D02*
X169265409Y-115735715D01*
X150622000Y-114173000D02*
X155082499Y-118633499D01*
X155082499Y-118633499D02*
X155529399Y-118633499D01*
X155529399Y-118633499D02*
X155758000Y-118862100D01*
X155758000Y-118862100D02*
X155758000Y-120114500D01*
D32*
G36*
X166271910Y-115611941D02*
X166484110Y-115756931D01*
X166497197Y-115759581D01*
X166284559Y-115896410D01*
X166139569Y-116108610D01*
X166088560Y-116360500D01*
X166088560Y-117060500D01*
X166132838Y-117295817D01*
X166271910Y-117511941D01*
X166484110Y-117656931D01*
X166736000Y-117707940D01*
X167437304Y-117707940D01*
X168587169Y-118857805D01*
X168586760Y-119326444D01*
X168787416Y-119812069D01*
X169158639Y-120183940D01*
X169643913Y-120385443D01*
X170169360Y-120385902D01*
X170654985Y-120185246D01*
X171026856Y-119814023D01*
X171228359Y-119328749D01*
X171228818Y-118803302D01*
X171194276Y-118719704D01*
X171342595Y-118868282D01*
X171741233Y-119033811D01*
X172172873Y-119034188D01*
X172401456Y-118939739D01*
X172558000Y-118971440D01*
X173280000Y-118971440D01*
X173280000Y-132010069D01*
X173127848Y-132774989D01*
X172734170Y-133364170D01*
X172144989Y-133757848D01*
X171380069Y-133910000D01*
X166312929Y-133910000D01*
X166251514Y-133897784D01*
X166243413Y-133893166D01*
X164112445Y-132388953D01*
X164080788Y-132374880D01*
X164054615Y-132352180D01*
X163955886Y-132295900D01*
X170242761Y-132295900D01*
X170573850Y-132627567D01*
X171059124Y-132829070D01*
X171584571Y-132829529D01*
X172070196Y-132628873D01*
X172442067Y-132257650D01*
X172643570Y-131772376D01*
X172644029Y-131246929D01*
X172443373Y-130761304D01*
X172072150Y-130389433D01*
X171586876Y-130187930D01*
X171061429Y-130187471D01*
X170575804Y-130388127D01*
X170242250Y-130721100D01*
X150313152Y-130721100D01*
X149529620Y-129937568D01*
X149530029Y-129468929D01*
X149329373Y-128983304D01*
X148958150Y-128611433D01*
X148472876Y-128409930D01*
X147947429Y-128409471D01*
X147461804Y-128610127D01*
X147089933Y-128981350D01*
X146888430Y-129466624D01*
X146887971Y-129992071D01*
X147088627Y-130477696D01*
X147459850Y-130849567D01*
X147945124Y-131051070D01*
X148416430Y-131051482D01*
X149430224Y-132065276D01*
X149685675Y-132235963D01*
X149987000Y-132295900D01*
X156606615Y-132295900D01*
X156537998Y-132328805D01*
X156490177Y-132364671D01*
X156435555Y-132388953D01*
X154325252Y-133878578D01*
X154259728Y-133910000D01*
X148659931Y-133910000D01*
X147895011Y-133757848D01*
X147305830Y-133364170D01*
X146912152Y-132774989D01*
X146760000Y-132010069D01*
X146760000Y-117399598D01*
X147002853Y-117763054D01*
X147304444Y-117964570D01*
X147354537Y-118216406D01*
X147525224Y-118471857D01*
X148661919Y-119608552D01*
X148523337Y-119608431D01*
X148163788Y-119756993D01*
X147888460Y-120031841D01*
X147739270Y-120391130D01*
X147738931Y-120780163D01*
X147887493Y-121139712D01*
X148052201Y-121304708D01*
X148059937Y-121343598D01*
X148214106Y-121574327D01*
X149106678Y-122466899D01*
X148330222Y-122621346D01*
X147506187Y-123171949D01*
X146955584Y-123995984D01*
X146762238Y-124968000D01*
X146955584Y-125940016D01*
X147506187Y-126764051D01*
X148330222Y-127314654D01*
X149302238Y-127508000D01*
X149401762Y-127508000D01*
X150373778Y-127314654D01*
X151197813Y-126764051D01*
X151748416Y-125940016D01*
X151893877Y-125208737D01*
X151911341Y-125220406D01*
X151987903Y-125271563D01*
X152260067Y-125325700D01*
X154310560Y-125325700D01*
X154310560Y-125714500D01*
X154354838Y-125949817D01*
X154362904Y-125962351D01*
X154225937Y-126167335D01*
X154208932Y-126252827D01*
X154171800Y-126439500D01*
X154171800Y-127478370D01*
X154086569Y-127603110D01*
X154035560Y-127855000D01*
X154035560Y-129955000D01*
X154079838Y-130190317D01*
X154218910Y-130406441D01*
X154431110Y-130551431D01*
X154683000Y-130602440D01*
X155083000Y-130602440D01*
X155318317Y-130558162D01*
X155482493Y-130452518D01*
X155523302Y-130493327D01*
X155756691Y-130590000D01*
X155824250Y-130590000D01*
X155983000Y-130431250D01*
X155983000Y-129032000D01*
X155936000Y-129032000D01*
X155936000Y-128778000D01*
X155983000Y-128778000D01*
X155983000Y-128758000D01*
X156183000Y-128758000D01*
X156183000Y-128778000D01*
X156230000Y-128778000D01*
X156230000Y-129032000D01*
X156183000Y-129032000D01*
X156183000Y-130431250D01*
X156341750Y-130590000D01*
X156409309Y-130590000D01*
X156642698Y-130493327D01*
X156684660Y-130451366D01*
X156831110Y-130551431D01*
X157083000Y-130602440D01*
X157483000Y-130602440D01*
X157718317Y-130558162D01*
X157934441Y-130419090D01*
X158079431Y-130206890D01*
X158130440Y-129955000D01*
X158130440Y-127855000D01*
X158086162Y-127619683D01*
X157947090Y-127403559D01*
X157734890Y-127258569D01*
X157483000Y-127207560D01*
X157441348Y-127207560D01*
X157433494Y-127199706D01*
X157202765Y-127045537D01*
X157155782Y-127036192D01*
X157119200Y-126999609D01*
X157119200Y-126349500D01*
X157185002Y-126349500D01*
X157185002Y-126242752D01*
X157291750Y-126349500D01*
X157334309Y-126349500D01*
X157567698Y-126252827D01*
X157746327Y-126074199D01*
X157843000Y-125840810D01*
X157843000Y-124900250D01*
X157684250Y-124741500D01*
X157205440Y-124741500D01*
X157205440Y-124487500D01*
X157684250Y-124487500D01*
X157843000Y-124328750D01*
X157843000Y-123807688D01*
X160141206Y-126105894D01*
X160371935Y-126260063D01*
X160417090Y-126269045D01*
X160644100Y-126314200D01*
X160878076Y-126314200D01*
X160910838Y-126488317D01*
X161049910Y-126704441D01*
X161262110Y-126849431D01*
X161514000Y-126900440D01*
X162214000Y-126900440D01*
X162449317Y-126856162D01*
X162665441Y-126717090D01*
X162810431Y-126504890D01*
X162813081Y-126491803D01*
X162949910Y-126704441D01*
X163162110Y-126849431D01*
X163414000Y-126900440D01*
X164114000Y-126900440D01*
X164349317Y-126856162D01*
X164565441Y-126717090D01*
X164710431Y-126504890D01*
X164761440Y-126253000D01*
X164761440Y-124968000D01*
X168098238Y-124968000D01*
X168291584Y-125940016D01*
X168842187Y-126764051D01*
X169666222Y-127314654D01*
X170638238Y-127508000D01*
X170737762Y-127508000D01*
X171709778Y-127314654D01*
X172533813Y-126764051D01*
X173084416Y-125940016D01*
X173277762Y-124968000D01*
X173084416Y-123995984D01*
X172533813Y-123171949D01*
X171709778Y-122621346D01*
X170737762Y-122428000D01*
X170638238Y-122428000D01*
X169666222Y-122621346D01*
X168842187Y-123171949D01*
X168291584Y-123995984D01*
X168098238Y-124968000D01*
X164761440Y-124968000D01*
X164761440Y-124953000D01*
X164717162Y-124717683D01*
X164578090Y-124501559D01*
X164480200Y-124434674D01*
X164480200Y-123035333D01*
X164620441Y-122945090D01*
X164715990Y-122805250D01*
X164730673Y-122840698D01*
X164909301Y-123019327D01*
X165142690Y-123116000D01*
X165383250Y-123116000D01*
X165542000Y-122957250D01*
X165542000Y-122158000D01*
X165796000Y-122158000D01*
X165796000Y-122957250D01*
X165954750Y-123116000D01*
X166195310Y-123116000D01*
X166428699Y-123019327D01*
X166607327Y-122840698D01*
X166704000Y-122607309D01*
X166704000Y-122316750D01*
X166545250Y-122158000D01*
X165796000Y-122158000D01*
X165542000Y-122158000D01*
X165522000Y-122158000D01*
X165522000Y-121904000D01*
X165542000Y-121904000D01*
X165542000Y-121104750D01*
X165796000Y-121104750D01*
X165796000Y-121904000D01*
X166545250Y-121904000D01*
X166704000Y-121745250D01*
X166704000Y-121454691D01*
X166607327Y-121221302D01*
X166428699Y-121042673D01*
X166195310Y-120946000D01*
X165954750Y-120946000D01*
X165796000Y-121104750D01*
X165542000Y-121104750D01*
X165455988Y-121018738D01*
X165570441Y-120945090D01*
X165715431Y-120732890D01*
X165766440Y-120481000D01*
X165766440Y-119581000D01*
X165722162Y-119345683D01*
X165583090Y-119129559D01*
X165430200Y-119025094D01*
X165430200Y-116360606D01*
X166235480Y-115555326D01*
X166271910Y-115611941D01*
X166271910Y-115611941D01*
G37*
X166271910Y-115611941D02*
X166484110Y-115756931D01*
X166497197Y-115759581D01*
X166284559Y-115896410D01*
X166139569Y-116108610D01*
X166088560Y-116360500D01*
X166088560Y-117060500D01*
X166132838Y-117295817D01*
X166271910Y-117511941D01*
X166484110Y-117656931D01*
X166736000Y-117707940D01*
X167437304Y-117707940D01*
X168587169Y-118857805D01*
X168586760Y-119326444D01*
X168787416Y-119812069D01*
X169158639Y-120183940D01*
X169643913Y-120385443D01*
X170169360Y-120385902D01*
X170654985Y-120185246D01*
X171026856Y-119814023D01*
X171228359Y-119328749D01*
X171228818Y-118803302D01*
X171194276Y-118719704D01*
X171342595Y-118868282D01*
X171741233Y-119033811D01*
X172172873Y-119034188D01*
X172401456Y-118939739D01*
X172558000Y-118971440D01*
X173280000Y-118971440D01*
X173280000Y-132010069D01*
X173127848Y-132774989D01*
X172734170Y-133364170D01*
X172144989Y-133757848D01*
X171380069Y-133910000D01*
X166312929Y-133910000D01*
X166251514Y-133897784D01*
X166243413Y-133893166D01*
X164112445Y-132388953D01*
X164080788Y-132374880D01*
X164054615Y-132352180D01*
X163955886Y-132295900D01*
X170242761Y-132295900D01*
X170573850Y-132627567D01*
X171059124Y-132829070D01*
X171584571Y-132829529D01*
X172070196Y-132628873D01*
X172442067Y-132257650D01*
X172643570Y-131772376D01*
X172644029Y-131246929D01*
X172443373Y-130761304D01*
X172072150Y-130389433D01*
X171586876Y-130187930D01*
X171061429Y-130187471D01*
X170575804Y-130388127D01*
X170242250Y-130721100D01*
X150313152Y-130721100D01*
X149529620Y-129937568D01*
X149530029Y-129468929D01*
X149329373Y-128983304D01*
X148958150Y-128611433D01*
X148472876Y-128409930D01*
X147947429Y-128409471D01*
X147461804Y-128610127D01*
X147089933Y-128981350D01*
X146888430Y-129466624D01*
X146887971Y-129992071D01*
X147088627Y-130477696D01*
X147459850Y-130849567D01*
X147945124Y-131051070D01*
X148416430Y-131051482D01*
X149430224Y-132065276D01*
X149685675Y-132235963D01*
X149987000Y-132295900D01*
X156606615Y-132295900D01*
X156537998Y-132328805D01*
X156490177Y-132364671D01*
X156435555Y-132388953D01*
X154325252Y-133878578D01*
X154259728Y-133910000D01*
X148659931Y-133910000D01*
X147895011Y-133757848D01*
X147305830Y-133364170D01*
X146912152Y-132774989D01*
X146760000Y-132010069D01*
X146760000Y-117399598D01*
X147002853Y-117763054D01*
X147304444Y-117964570D01*
X147354537Y-118216406D01*
X147525224Y-118471857D01*
X148661919Y-119608552D01*
X148523337Y-119608431D01*
X148163788Y-119756993D01*
X147888460Y-120031841D01*
X147739270Y-120391130D01*
X147738931Y-120780163D01*
X147887493Y-121139712D01*
X148052201Y-121304708D01*
X148059937Y-121343598D01*
X148214106Y-121574327D01*
X149106678Y-122466899D01*
X148330222Y-122621346D01*
X147506187Y-123171949D01*
X146955584Y-123995984D01*
X146762238Y-124968000D01*
X146955584Y-125940016D01*
X147506187Y-126764051D01*
X148330222Y-127314654D01*
X149302238Y-127508000D01*
X149401762Y-127508000D01*
X150373778Y-127314654D01*
X151197813Y-126764051D01*
X151748416Y-125940016D01*
X151893877Y-125208737D01*
X151911341Y-125220406D01*
X151987903Y-125271563D01*
X152260067Y-125325700D01*
X154310560Y-125325700D01*
X154310560Y-125714500D01*
X154354838Y-125949817D01*
X154362904Y-125962351D01*
X154225937Y-126167335D01*
X154208932Y-126252827D01*
X154171800Y-126439500D01*
X154171800Y-127478370D01*
X154086569Y-127603110D01*
X154035560Y-127855000D01*
X154035560Y-129955000D01*
X154079838Y-130190317D01*
X154218910Y-130406441D01*
X154431110Y-130551431D01*
X154683000Y-130602440D01*
X155083000Y-130602440D01*
X155318317Y-130558162D01*
X155482493Y-130452518D01*
X155523302Y-130493327D01*
X155756691Y-130590000D01*
X155824250Y-130590000D01*
X155983000Y-130431250D01*
X155983000Y-129032000D01*
X155936000Y-129032000D01*
X155936000Y-128778000D01*
X155983000Y-128778000D01*
X155983000Y-128758000D01*
X156183000Y-128758000D01*
X156183000Y-128778000D01*
X156230000Y-128778000D01*
X156230000Y-129032000D01*
X156183000Y-129032000D01*
X156183000Y-130431250D01*
X156341750Y-130590000D01*
X156409309Y-130590000D01*
X156642698Y-130493327D01*
X156684660Y-130451366D01*
X156831110Y-130551431D01*
X157083000Y-130602440D01*
X157483000Y-130602440D01*
X157718317Y-130558162D01*
X157934441Y-130419090D01*
X158079431Y-130206890D01*
X158130440Y-129955000D01*
X158130440Y-127855000D01*
X158086162Y-127619683D01*
X157947090Y-127403559D01*
X157734890Y-127258569D01*
X157483000Y-127207560D01*
X157441348Y-127207560D01*
X157433494Y-127199706D01*
X157202765Y-127045537D01*
X157155782Y-127036192D01*
X157119200Y-126999609D01*
X157119200Y-126349500D01*
X157185002Y-126349500D01*
X157185002Y-126242752D01*
X157291750Y-126349500D01*
X157334309Y-126349500D01*
X157567698Y-126252827D01*
X157746327Y-126074199D01*
X157843000Y-125840810D01*
X157843000Y-124900250D01*
X157684250Y-124741500D01*
X157205440Y-124741500D01*
X157205440Y-124487500D01*
X157684250Y-124487500D01*
X157843000Y-124328750D01*
X157843000Y-123807688D01*
X160141206Y-126105894D01*
X160371935Y-126260063D01*
X160417090Y-126269045D01*
X160644100Y-126314200D01*
X160878076Y-126314200D01*
X160910838Y-126488317D01*
X161049910Y-126704441D01*
X161262110Y-126849431D01*
X161514000Y-126900440D01*
X162214000Y-126900440D01*
X162449317Y-126856162D01*
X162665441Y-126717090D01*
X162810431Y-126504890D01*
X162813081Y-126491803D01*
X162949910Y-126704441D01*
X163162110Y-126849431D01*
X163414000Y-126900440D01*
X164114000Y-126900440D01*
X164349317Y-126856162D01*
X164565441Y-126717090D01*
X164710431Y-126504890D01*
X164761440Y-126253000D01*
X164761440Y-124968000D01*
X168098238Y-124968000D01*
X168291584Y-125940016D01*
X168842187Y-126764051D01*
X169666222Y-127314654D01*
X170638238Y-127508000D01*
X170737762Y-127508000D01*
X171709778Y-127314654D01*
X172533813Y-126764051D01*
X173084416Y-125940016D01*
X173277762Y-124968000D01*
X173084416Y-123995984D01*
X172533813Y-123171949D01*
X171709778Y-122621346D01*
X170737762Y-122428000D01*
X170638238Y-122428000D01*
X169666222Y-122621346D01*
X168842187Y-123171949D01*
X168291584Y-123995984D01*
X168098238Y-124968000D01*
X164761440Y-124968000D01*
X164761440Y-124953000D01*
X164717162Y-124717683D01*
X164578090Y-124501559D01*
X164480200Y-124434674D01*
X164480200Y-123035333D01*
X164620441Y-122945090D01*
X164715990Y-122805250D01*
X164730673Y-122840698D01*
X164909301Y-123019327D01*
X165142690Y-123116000D01*
X165383250Y-123116000D01*
X165542000Y-122957250D01*
X165542000Y-122158000D01*
X165796000Y-122158000D01*
X165796000Y-122957250D01*
X165954750Y-123116000D01*
X166195310Y-123116000D01*
X166428699Y-123019327D01*
X166607327Y-122840698D01*
X166704000Y-122607309D01*
X166704000Y-122316750D01*
X166545250Y-122158000D01*
X165796000Y-122158000D01*
X165542000Y-122158000D01*
X165522000Y-122158000D01*
X165522000Y-121904000D01*
X165542000Y-121904000D01*
X165542000Y-121104750D01*
X165796000Y-121104750D01*
X165796000Y-121904000D01*
X166545250Y-121904000D01*
X166704000Y-121745250D01*
X166704000Y-121454691D01*
X166607327Y-121221302D01*
X166428699Y-121042673D01*
X166195310Y-120946000D01*
X165954750Y-120946000D01*
X165796000Y-121104750D01*
X165542000Y-121104750D01*
X165455988Y-121018738D01*
X165570441Y-120945090D01*
X165715431Y-120732890D01*
X165766440Y-120481000D01*
X165766440Y-119581000D01*
X165722162Y-119345683D01*
X165583090Y-119129559D01*
X165430200Y-119025094D01*
X165430200Y-116360606D01*
X166235480Y-115555326D01*
X166271910Y-115611941D01*
G36*
X154966060Y-105980000D02*
X155010338Y-106215317D01*
X155149410Y-106431441D01*
X155361610Y-106576431D01*
X155613500Y-106627440D01*
X156613500Y-106627440D01*
X156848817Y-106583162D01*
X157064941Y-106444090D01*
X157209931Y-106231890D01*
X157260940Y-105980000D01*
X157260940Y-105358000D01*
X164119560Y-105358000D01*
X164119560Y-105789730D01*
X164278310Y-105948480D01*
X165227000Y-105948480D01*
X165227000Y-105928480D01*
X165481000Y-105928480D01*
X165481000Y-105948480D01*
X166429690Y-105948480D01*
X166588440Y-105789730D01*
X166588440Y-105358000D01*
X168407000Y-105358000D01*
X168397392Y-105405444D01*
X168363925Y-105427806D01*
X168280106Y-105511626D01*
X168125937Y-105742355D01*
X168117175Y-105786404D01*
X168071800Y-106014520D01*
X168071800Y-111707430D01*
X164746440Y-115032790D01*
X164746440Y-114900000D01*
X164702162Y-114664683D01*
X164563090Y-114448559D01*
X164350890Y-114303569D01*
X164337803Y-114300919D01*
X164550441Y-114164090D01*
X164695431Y-113951890D01*
X164709404Y-113882889D01*
X164754294Y-113852894D01*
X165856894Y-112750294D01*
X166011063Y-112519565D01*
X166065200Y-112247400D01*
X166065200Y-109399371D01*
X166188757Y-109376122D01*
X166404881Y-109237050D01*
X166549871Y-109024850D01*
X166600880Y-108772960D01*
X166600880Y-107574080D01*
X166556602Y-107338763D01*
X166417530Y-107122639D01*
X166409341Y-107117044D01*
X166491767Y-107034618D01*
X166588440Y-106801229D01*
X166588440Y-106361230D01*
X166429690Y-106202480D01*
X165481000Y-106202480D01*
X165481000Y-106222480D01*
X165227000Y-106222480D01*
X165227000Y-106202480D01*
X164278310Y-106202480D01*
X164119560Y-106361230D01*
X164119560Y-106801229D01*
X164216233Y-107034618D01*
X164298445Y-107116831D01*
X164158129Y-107322190D01*
X164107120Y-107574080D01*
X164107120Y-108772960D01*
X164151398Y-109008277D01*
X164290470Y-109224401D01*
X164502670Y-109369391D01*
X164642800Y-109397768D01*
X164642800Y-110799055D01*
X164448856Y-110604772D01*
X164089567Y-110455582D01*
X163700534Y-110455243D01*
X163340985Y-110603805D01*
X163065657Y-110878653D01*
X162916467Y-111237942D01*
X162916321Y-111405400D01*
X160629642Y-113692079D01*
X160626090Y-113686559D01*
X160413890Y-113541569D01*
X160380510Y-113534809D01*
X160521699Y-113476327D01*
X160700327Y-113297698D01*
X160797000Y-113064309D01*
X160797000Y-112873750D01*
X160638250Y-112715000D01*
X159639000Y-112715000D01*
X159639000Y-112735000D01*
X159385000Y-112735000D01*
X159385000Y-112715000D01*
X158385750Y-112715000D01*
X158227000Y-112873750D01*
X158227000Y-113064309D01*
X158323673Y-113297698D01*
X158502301Y-113476327D01*
X158638287Y-113532654D01*
X158626683Y-113534838D01*
X158410559Y-113673910D01*
X158265569Y-113886110D01*
X158214560Y-114138000D01*
X158214560Y-114838000D01*
X158258838Y-115073317D01*
X158397910Y-115289441D01*
X158610110Y-115434431D01*
X158800800Y-115473047D01*
X158800800Y-116115912D01*
X157086110Y-117830602D01*
X156380698Y-117830602D01*
X156108533Y-117884739D01*
X155886432Y-118033143D01*
X155801564Y-117976436D01*
X155529399Y-117922299D01*
X155377087Y-117922299D01*
X154411788Y-116957000D01*
X154439309Y-116957000D01*
X154672698Y-116860327D01*
X154813936Y-116719090D01*
X154848910Y-116773441D01*
X155061110Y-116918431D01*
X155313000Y-116969440D01*
X156313000Y-116969440D01*
X156548317Y-116925162D01*
X156764441Y-116786090D01*
X156909431Y-116573890D01*
X156960440Y-116322000D01*
X156960440Y-115072000D01*
X156916162Y-114836683D01*
X156777090Y-114620559D01*
X156600400Y-114499832D01*
X156600400Y-112960110D01*
X156639696Y-112943873D01*
X157011567Y-112572650D01*
X157202973Y-112111691D01*
X158227000Y-112111691D01*
X158227000Y-112302250D01*
X158385750Y-112461000D01*
X159385000Y-112461000D01*
X159385000Y-111761750D01*
X159639000Y-111761750D01*
X159639000Y-112461000D01*
X160638250Y-112461000D01*
X160797000Y-112302250D01*
X160797000Y-112111691D01*
X160700327Y-111878302D01*
X160521699Y-111699673D01*
X160288310Y-111603000D01*
X159797750Y-111603000D01*
X159639000Y-111761750D01*
X159385000Y-111761750D01*
X159226250Y-111603000D01*
X158735690Y-111603000D01*
X158502301Y-111699673D01*
X158323673Y-111878302D01*
X158227000Y-112111691D01*
X157202973Y-112111691D01*
X157213070Y-112087376D01*
X157213529Y-111561929D01*
X157012873Y-111076304D01*
X156641650Y-110704433D01*
X156156376Y-110502930D01*
X155685070Y-110502518D01*
X155500900Y-110318348D01*
X155500900Y-109903125D01*
X155514941Y-109894090D01*
X155659931Y-109681890D01*
X155710940Y-109430000D01*
X155710940Y-108827440D01*
X156613500Y-108827440D01*
X156848817Y-108783162D01*
X157064941Y-108644090D01*
X157209931Y-108431890D01*
X157260940Y-108180000D01*
X157260940Y-107595099D01*
X158284699Y-107595099D01*
X158548281Y-108233015D01*
X159035918Y-108721504D01*
X159673373Y-108986199D01*
X160363599Y-108986801D01*
X161001515Y-108723219D01*
X161490004Y-108235582D01*
X161754699Y-107598127D01*
X161755301Y-106907901D01*
X161491719Y-106269985D01*
X161004082Y-105781496D01*
X160366627Y-105516801D01*
X159676401Y-105516199D01*
X159038485Y-105779781D01*
X158549996Y-106267418D01*
X158285301Y-106904873D01*
X158284699Y-107595099D01*
X157260940Y-107595099D01*
X157260940Y-107380000D01*
X157216662Y-107144683D01*
X157077590Y-106928559D01*
X156865390Y-106783569D01*
X156613500Y-106732560D01*
X155613500Y-106732560D01*
X155378183Y-106776838D01*
X155162059Y-106915910D01*
X155017069Y-107128110D01*
X154985792Y-107282560D01*
X154888116Y-107282560D01*
X155048311Y-106896767D01*
X155048688Y-106465127D01*
X154883854Y-106066200D01*
X154578905Y-105760718D01*
X154180267Y-105595189D01*
X153748627Y-105594812D01*
X153349700Y-105759646D01*
X153044218Y-106064595D01*
X152878689Y-106463233D01*
X152878312Y-106894873D01*
X153043146Y-107293800D01*
X153348095Y-107599282D01*
X153746733Y-107764811D01*
X153749511Y-107764813D01*
X153716060Y-107930000D01*
X153716060Y-108914208D01*
X152925076Y-108123224D01*
X152710940Y-107980143D01*
X152710940Y-107930000D01*
X152666662Y-107694683D01*
X152527590Y-107478559D01*
X152315390Y-107333569D01*
X152063500Y-107282560D01*
X151888116Y-107282560D01*
X152048311Y-106896767D01*
X152048688Y-106465127D01*
X151883854Y-106066200D01*
X151578905Y-105760718D01*
X151180267Y-105595189D01*
X150748627Y-105594812D01*
X150349700Y-105759646D01*
X150044218Y-106064595D01*
X149878689Y-106463233D01*
X149878312Y-106894873D01*
X150038502Y-107282560D01*
X149942605Y-107282560D01*
X149916662Y-107144683D01*
X149777590Y-106928559D01*
X149565390Y-106783569D01*
X149313500Y-106732560D01*
X148313500Y-106732560D01*
X148078183Y-106776838D01*
X147862059Y-106915910D01*
X147717069Y-107128110D01*
X147666060Y-107380000D01*
X147666060Y-108180000D01*
X147710338Y-108415317D01*
X147849410Y-108631441D01*
X148061610Y-108776431D01*
X148313500Y-108827440D01*
X149216060Y-108827440D01*
X149216060Y-109430000D01*
X149260338Y-109665317D01*
X149399410Y-109881441D01*
X149611610Y-110026431D01*
X149863500Y-110077440D01*
X150563500Y-110077440D01*
X150798817Y-110033162D01*
X150964977Y-109926241D01*
X151111610Y-110026431D01*
X151363500Y-110077440D01*
X152063500Y-110077440D01*
X152298817Y-110033162D01*
X152486889Y-109912141D01*
X153073100Y-110498352D01*
X153073100Y-112140261D01*
X152741433Y-112471350D01*
X152660660Y-112665872D01*
X152586293Y-112591505D01*
X152355564Y-112437336D01*
X152083399Y-112383199D01*
X151901503Y-112383199D01*
X152023054Y-112201285D01*
X152136093Y-111633000D01*
X152023054Y-111064715D01*
X151701147Y-110582946D01*
X151219378Y-110261039D01*
X150651093Y-110148000D01*
X150592907Y-110148000D01*
X150024622Y-110261039D01*
X149542853Y-110582946D01*
X149353655Y-110866101D01*
X149353645Y-110866076D01*
X148963358Y-110437817D01*
X148438892Y-110191514D01*
X148209000Y-110312181D01*
X148209000Y-111506000D01*
X148229000Y-111506000D01*
X148229000Y-111760000D01*
X148209000Y-111760000D01*
X148209000Y-111780000D01*
X147955000Y-111780000D01*
X147955000Y-111760000D01*
X147935000Y-111760000D01*
X147935000Y-111506000D01*
X147955000Y-111506000D01*
X147955000Y-110312181D01*
X147725108Y-110191514D01*
X147200642Y-110437817D01*
X146810355Y-110866076D01*
X146760000Y-110987651D01*
X146760000Y-107257931D01*
X146912152Y-106493011D01*
X147305830Y-105903830D01*
X147666060Y-105663132D01*
X147666060Y-105980000D01*
X147710338Y-106215317D01*
X147849410Y-106431441D01*
X148061610Y-106576431D01*
X148313500Y-106627440D01*
X149313500Y-106627440D01*
X149548817Y-106583162D01*
X149764941Y-106444090D01*
X149909931Y-106231890D01*
X149960940Y-105980000D01*
X149960940Y-105358000D01*
X154966060Y-105358000D01*
X154966060Y-105980000D01*
X154966060Y-105980000D01*
G37*
X154966060Y-105980000D02*
X155010338Y-106215317D01*
X155149410Y-106431441D01*
X155361610Y-106576431D01*
X155613500Y-106627440D01*
X156613500Y-106627440D01*
X156848817Y-106583162D01*
X157064941Y-106444090D01*
X157209931Y-106231890D01*
X157260940Y-105980000D01*
X157260940Y-105358000D01*
X164119560Y-105358000D01*
X164119560Y-105789730D01*
X164278310Y-105948480D01*
X165227000Y-105948480D01*
X165227000Y-105928480D01*
X165481000Y-105928480D01*
X165481000Y-105948480D01*
X166429690Y-105948480D01*
X166588440Y-105789730D01*
X166588440Y-105358000D01*
X168407000Y-105358000D01*
X168397392Y-105405444D01*
X168363925Y-105427806D01*
X168280106Y-105511626D01*
X168125937Y-105742355D01*
X168117175Y-105786404D01*
X168071800Y-106014520D01*
X168071800Y-111707430D01*
X164746440Y-115032790D01*
X164746440Y-114900000D01*
X164702162Y-114664683D01*
X164563090Y-114448559D01*
X164350890Y-114303569D01*
X164337803Y-114300919D01*
X164550441Y-114164090D01*
X164695431Y-113951890D01*
X164709404Y-113882889D01*
X164754294Y-113852894D01*
X165856894Y-112750294D01*
X166011063Y-112519565D01*
X166065200Y-112247400D01*
X166065200Y-109399371D01*
X166188757Y-109376122D01*
X166404881Y-109237050D01*
X166549871Y-109024850D01*
X166600880Y-108772960D01*
X166600880Y-107574080D01*
X166556602Y-107338763D01*
X166417530Y-107122639D01*
X166409341Y-107117044D01*
X166491767Y-107034618D01*
X166588440Y-106801229D01*
X166588440Y-106361230D01*
X166429690Y-106202480D01*
X165481000Y-106202480D01*
X165481000Y-106222480D01*
X165227000Y-106222480D01*
X165227000Y-106202480D01*
X164278310Y-106202480D01*
X164119560Y-106361230D01*
X164119560Y-106801229D01*
X164216233Y-107034618D01*
X164298445Y-107116831D01*
X164158129Y-107322190D01*
X164107120Y-107574080D01*
X164107120Y-108772960D01*
X164151398Y-109008277D01*
X164290470Y-109224401D01*
X164502670Y-109369391D01*
X164642800Y-109397768D01*
X164642800Y-110799055D01*
X164448856Y-110604772D01*
X164089567Y-110455582D01*
X163700534Y-110455243D01*
X163340985Y-110603805D01*
X163065657Y-110878653D01*
X162916467Y-111237942D01*
X162916321Y-111405400D01*
X160629642Y-113692079D01*
X160626090Y-113686559D01*
X160413890Y-113541569D01*
X160380510Y-113534809D01*
X160521699Y-113476327D01*
X160700327Y-113297698D01*
X160797000Y-113064309D01*
X160797000Y-112873750D01*
X160638250Y-112715000D01*
X159639000Y-112715000D01*
X159639000Y-112735000D01*
X159385000Y-112735000D01*
X159385000Y-112715000D01*
X158385750Y-112715000D01*
X158227000Y-112873750D01*
X158227000Y-113064309D01*
X158323673Y-113297698D01*
X158502301Y-113476327D01*
X158638287Y-113532654D01*
X158626683Y-113534838D01*
X158410559Y-113673910D01*
X158265569Y-113886110D01*
X158214560Y-114138000D01*
X158214560Y-114838000D01*
X158258838Y-115073317D01*
X158397910Y-115289441D01*
X158610110Y-115434431D01*
X158800800Y-115473047D01*
X158800800Y-116115912D01*
X157086110Y-117830602D01*
X156380698Y-117830602D01*
X156108533Y-117884739D01*
X155886432Y-118033143D01*
X155801564Y-117976436D01*
X155529399Y-117922299D01*
X155377087Y-117922299D01*
X154411788Y-116957000D01*
X154439309Y-116957000D01*
X154672698Y-116860327D01*
X154813936Y-116719090D01*
X154848910Y-116773441D01*
X155061110Y-116918431D01*
X155313000Y-116969440D01*
X156313000Y-116969440D01*
X156548317Y-116925162D01*
X156764441Y-116786090D01*
X156909431Y-116573890D01*
X156960440Y-116322000D01*
X156960440Y-115072000D01*
X156916162Y-114836683D01*
X156777090Y-114620559D01*
X156600400Y-114499832D01*
X156600400Y-112960110D01*
X156639696Y-112943873D01*
X157011567Y-112572650D01*
X157202973Y-112111691D01*
X158227000Y-112111691D01*
X158227000Y-112302250D01*
X158385750Y-112461000D01*
X159385000Y-112461000D01*
X159385000Y-111761750D01*
X159639000Y-111761750D01*
X159639000Y-112461000D01*
X160638250Y-112461000D01*
X160797000Y-112302250D01*
X160797000Y-112111691D01*
X160700327Y-111878302D01*
X160521699Y-111699673D01*
X160288310Y-111603000D01*
X159797750Y-111603000D01*
X159639000Y-111761750D01*
X159385000Y-111761750D01*
X159226250Y-111603000D01*
X158735690Y-111603000D01*
X158502301Y-111699673D01*
X158323673Y-111878302D01*
X158227000Y-112111691D01*
X157202973Y-112111691D01*
X157213070Y-112087376D01*
X157213529Y-111561929D01*
X157012873Y-111076304D01*
X156641650Y-110704433D01*
X156156376Y-110502930D01*
X155685070Y-110502518D01*
X155500900Y-110318348D01*
X155500900Y-109903125D01*
X155514941Y-109894090D01*
X155659931Y-109681890D01*
X155710940Y-109430000D01*
X155710940Y-108827440D01*
X156613500Y-108827440D01*
X156848817Y-108783162D01*
X157064941Y-108644090D01*
X157209931Y-108431890D01*
X157260940Y-108180000D01*
X157260940Y-107595099D01*
X158284699Y-107595099D01*
X158548281Y-108233015D01*
X159035918Y-108721504D01*
X159673373Y-108986199D01*
X160363599Y-108986801D01*
X161001515Y-108723219D01*
X161490004Y-108235582D01*
X161754699Y-107598127D01*
X161755301Y-106907901D01*
X161491719Y-106269985D01*
X161004082Y-105781496D01*
X160366627Y-105516801D01*
X159676401Y-105516199D01*
X159038485Y-105779781D01*
X158549996Y-106267418D01*
X158285301Y-106904873D01*
X158284699Y-107595099D01*
X157260940Y-107595099D01*
X157260940Y-107380000D01*
X157216662Y-107144683D01*
X157077590Y-106928559D01*
X156865390Y-106783569D01*
X156613500Y-106732560D01*
X155613500Y-106732560D01*
X155378183Y-106776838D01*
X155162059Y-106915910D01*
X155017069Y-107128110D01*
X154985792Y-107282560D01*
X154888116Y-107282560D01*
X155048311Y-106896767D01*
X155048688Y-106465127D01*
X154883854Y-106066200D01*
X154578905Y-105760718D01*
X154180267Y-105595189D01*
X153748627Y-105594812D01*
X153349700Y-105759646D01*
X153044218Y-106064595D01*
X152878689Y-106463233D01*
X152878312Y-106894873D01*
X153043146Y-107293800D01*
X153348095Y-107599282D01*
X153746733Y-107764811D01*
X153749511Y-107764813D01*
X153716060Y-107930000D01*
X153716060Y-108914208D01*
X152925076Y-108123224D01*
X152710940Y-107980143D01*
X152710940Y-107930000D01*
X152666662Y-107694683D01*
X152527590Y-107478559D01*
X152315390Y-107333569D01*
X152063500Y-107282560D01*
X151888116Y-107282560D01*
X152048311Y-106896767D01*
X152048688Y-106465127D01*
X151883854Y-106066200D01*
X151578905Y-105760718D01*
X151180267Y-105595189D01*
X150748627Y-105594812D01*
X150349700Y-105759646D01*
X150044218Y-106064595D01*
X149878689Y-106463233D01*
X149878312Y-106894873D01*
X150038502Y-107282560D01*
X149942605Y-107282560D01*
X149916662Y-107144683D01*
X149777590Y-106928559D01*
X149565390Y-106783569D01*
X149313500Y-106732560D01*
X148313500Y-106732560D01*
X148078183Y-106776838D01*
X147862059Y-106915910D01*
X147717069Y-107128110D01*
X147666060Y-107380000D01*
X147666060Y-108180000D01*
X147710338Y-108415317D01*
X147849410Y-108631441D01*
X148061610Y-108776431D01*
X148313500Y-108827440D01*
X149216060Y-108827440D01*
X149216060Y-109430000D01*
X149260338Y-109665317D01*
X149399410Y-109881441D01*
X149611610Y-110026431D01*
X149863500Y-110077440D01*
X150563500Y-110077440D01*
X150798817Y-110033162D01*
X150964977Y-109926241D01*
X151111610Y-110026431D01*
X151363500Y-110077440D01*
X152063500Y-110077440D01*
X152298817Y-110033162D01*
X152486889Y-109912141D01*
X153073100Y-110498352D01*
X153073100Y-112140261D01*
X152741433Y-112471350D01*
X152660660Y-112665872D01*
X152586293Y-112591505D01*
X152355564Y-112437336D01*
X152083399Y-112383199D01*
X151901503Y-112383199D01*
X152023054Y-112201285D01*
X152136093Y-111633000D01*
X152023054Y-111064715D01*
X151701147Y-110582946D01*
X151219378Y-110261039D01*
X150651093Y-110148000D01*
X150592907Y-110148000D01*
X150024622Y-110261039D01*
X149542853Y-110582946D01*
X149353655Y-110866101D01*
X149353645Y-110866076D01*
X148963358Y-110437817D01*
X148438892Y-110191514D01*
X148209000Y-110312181D01*
X148209000Y-111506000D01*
X148229000Y-111506000D01*
X148229000Y-111760000D01*
X148209000Y-111760000D01*
X148209000Y-111780000D01*
X147955000Y-111780000D01*
X147955000Y-111760000D01*
X147935000Y-111760000D01*
X147935000Y-111506000D01*
X147955000Y-111506000D01*
X147955000Y-110312181D01*
X147725108Y-110191514D01*
X147200642Y-110437817D01*
X146810355Y-110866076D01*
X146760000Y-110987651D01*
X146760000Y-107257931D01*
X146912152Y-106493011D01*
X147305830Y-105903830D01*
X147666060Y-105663132D01*
X147666060Y-105980000D01*
X147710338Y-106215317D01*
X147849410Y-106431441D01*
X148061610Y-106576431D01*
X148313500Y-106627440D01*
X149313500Y-106627440D01*
X149548817Y-106583162D01*
X149764941Y-106444090D01*
X149909931Y-106231890D01*
X149960940Y-105980000D01*
X149960940Y-105358000D01*
X154966060Y-105358000D01*
X154966060Y-105980000D01*
G36*
X153940000Y-115570000D02*
X153960000Y-115570000D01*
X153960000Y-115824000D01*
X153940000Y-115824000D01*
X153940000Y-115844000D01*
X153686000Y-115844000D01*
X153686000Y-115824000D01*
X153666000Y-115824000D01*
X153666000Y-115570000D01*
X153686000Y-115570000D01*
X153686000Y-115550000D01*
X153940000Y-115550000D01*
X153940000Y-115570000D01*
X153940000Y-115570000D01*
G37*
X153940000Y-115570000D02*
X153960000Y-115570000D01*
X153960000Y-115824000D01*
X153940000Y-115824000D01*
X153940000Y-115844000D01*
X153686000Y-115844000D01*
X153686000Y-115824000D01*
X153666000Y-115824000D01*
X153666000Y-115570000D01*
X153686000Y-115570000D01*
X153686000Y-115550000D01*
X153940000Y-115550000D01*
X153940000Y-115570000D01*
M02*
