G04 #@! TF.FileFunction,Legend,Bot*
%FSLAX46Y46*%
G04 Gerber Fmt 4.6, Leading zero omitted, Abs format (unit mm)*
G04 Created by KiCad (PCBNEW 4.0.6) date Monday, March 26, 2018 'PMt' 03:20:40 PM*
%MOMM*%
%LPD*%
G01*
G04 APERTURE LIST*
%ADD10C,0.100000*%
%ADD11C,0.127000*%
G04 APERTURE END LIST*
D10*
D11*
X172245262Y-110084810D02*
X172414595Y-109842905D01*
X172535548Y-110084810D02*
X172535548Y-109576810D01*
X172342024Y-109576810D01*
X172293643Y-109601000D01*
X172269452Y-109625190D01*
X172245262Y-109673571D01*
X172245262Y-109746143D01*
X172269452Y-109794524D01*
X172293643Y-109818714D01*
X172342024Y-109842905D01*
X172535548Y-109842905D01*
X171954976Y-110084810D02*
X172003357Y-110060619D01*
X172027548Y-110036429D01*
X172051738Y-109988048D01*
X172051738Y-109842905D01*
X172027548Y-109794524D01*
X172003357Y-109770333D01*
X171954976Y-109746143D01*
X171882405Y-109746143D01*
X171834024Y-109770333D01*
X171809833Y-109794524D01*
X171785643Y-109842905D01*
X171785643Y-109988048D01*
X171809833Y-110036429D01*
X171834024Y-110060619D01*
X171882405Y-110084810D01*
X171954976Y-110084810D01*
X171495357Y-110084810D02*
X171543738Y-110060619D01*
X171567929Y-110036429D01*
X171592119Y-109988048D01*
X171592119Y-109842905D01*
X171567929Y-109794524D01*
X171543738Y-109770333D01*
X171495357Y-109746143D01*
X171422786Y-109746143D01*
X171374405Y-109770333D01*
X171350214Y-109794524D01*
X171326024Y-109842905D01*
X171326024Y-109988048D01*
X171350214Y-110036429D01*
X171374405Y-110060619D01*
X171422786Y-110084810D01*
X171495357Y-110084810D01*
X171108310Y-110084810D02*
X171108310Y-109746143D01*
X171108310Y-109794524D02*
X171084119Y-109770333D01*
X171035738Y-109746143D01*
X170963167Y-109746143D01*
X170914786Y-109770333D01*
X170890595Y-109818714D01*
X170890595Y-110084810D01*
X170890595Y-109818714D02*
X170866405Y-109770333D01*
X170818024Y-109746143D01*
X170745452Y-109746143D01*
X170697072Y-109770333D01*
X170672881Y-109818714D01*
X170672881Y-110084810D01*
X170430977Y-110084810D02*
X170430977Y-109576810D01*
X170430977Y-109770333D02*
X170382596Y-109746143D01*
X170285834Y-109746143D01*
X170237453Y-109770333D01*
X170213262Y-109794524D01*
X170189072Y-109842905D01*
X170189072Y-109988048D01*
X170213262Y-110036429D01*
X170237453Y-110060619D01*
X170285834Y-110084810D01*
X170382596Y-110084810D01*
X170430977Y-110060619D01*
X169753643Y-110084810D02*
X169753643Y-109818714D01*
X169777834Y-109770333D01*
X169826215Y-109746143D01*
X169922977Y-109746143D01*
X169971358Y-109770333D01*
X169753643Y-110060619D02*
X169802024Y-110084810D01*
X169922977Y-110084810D01*
X169971358Y-110060619D01*
X169995548Y-110012238D01*
X169995548Y-109963857D01*
X169971358Y-109915476D01*
X169922977Y-109891286D01*
X169802024Y-109891286D01*
X169753643Y-109867095D01*
X169173072Y-109576810D02*
X169052119Y-110084810D01*
X168955357Y-109721952D01*
X168858595Y-110084810D01*
X168737643Y-109576810D01*
X168326405Y-110084810D02*
X168326405Y-109818714D01*
X168350596Y-109770333D01*
X168398977Y-109746143D01*
X168495739Y-109746143D01*
X168544120Y-109770333D01*
X168326405Y-110060619D02*
X168374786Y-110084810D01*
X168495739Y-110084810D01*
X168544120Y-110060619D01*
X168568310Y-110012238D01*
X168568310Y-109963857D01*
X168544120Y-109915476D01*
X168495739Y-109891286D01*
X168374786Y-109891286D01*
X168326405Y-109867095D01*
X168011929Y-110084810D02*
X168060310Y-110060619D01*
X168084501Y-110012238D01*
X168084501Y-109576810D01*
X167745834Y-110084810D02*
X167794215Y-110060619D01*
X167818406Y-110012238D01*
X167818406Y-109576810D01*
X167213644Y-109746143D02*
X167092691Y-110084810D01*
X166971739Y-109746143D01*
X166826596Y-109576810D02*
X166512119Y-109576810D01*
X166681453Y-109770333D01*
X166608881Y-109770333D01*
X166560500Y-109794524D01*
X166536310Y-109818714D01*
X166512119Y-109867095D01*
X166512119Y-109988048D01*
X166536310Y-110036429D01*
X166560500Y-110060619D01*
X166608881Y-110084810D01*
X166754024Y-110084810D01*
X166802405Y-110060619D01*
X166826596Y-110036429D01*
X166270214Y-110060619D02*
X166270214Y-110084810D01*
X166294405Y-110133190D01*
X166318595Y-110157381D01*
X165375166Y-110084810D02*
X165544499Y-109842905D01*
X165665452Y-110084810D02*
X165665452Y-109576810D01*
X165471928Y-109576810D01*
X165423547Y-109601000D01*
X165399356Y-109625190D01*
X165375166Y-109673571D01*
X165375166Y-109746143D01*
X165399356Y-109794524D01*
X165423547Y-109818714D01*
X165471928Y-109842905D01*
X165665452Y-109842905D01*
X164963928Y-110060619D02*
X165012309Y-110084810D01*
X165109071Y-110084810D01*
X165157452Y-110060619D01*
X165181642Y-110012238D01*
X165181642Y-109818714D01*
X165157452Y-109770333D01*
X165109071Y-109746143D01*
X165012309Y-109746143D01*
X164963928Y-109770333D01*
X164939737Y-109818714D01*
X164939737Y-109867095D01*
X165181642Y-109915476D01*
X164770404Y-109746143D02*
X164649451Y-110084810D01*
X164528499Y-109746143D01*
X163972117Y-109939667D02*
X163730212Y-109939667D01*
X164020498Y-110084810D02*
X163851165Y-109576810D01*
X163681831Y-110084810D01*
X172390405Y-111167333D02*
X172414595Y-111143143D01*
X172462976Y-111070571D01*
X172487167Y-111022190D01*
X172511357Y-110949619D01*
X172535548Y-110828667D01*
X172535548Y-110731905D01*
X172511357Y-110610952D01*
X172487167Y-110538381D01*
X172462976Y-110490000D01*
X172414595Y-110417429D01*
X172390405Y-110393238D01*
X171906595Y-110925429D02*
X171930785Y-110949619D01*
X172003357Y-110973810D01*
X172051738Y-110973810D01*
X172124309Y-110949619D01*
X172172690Y-110901238D01*
X172196881Y-110852857D01*
X172221071Y-110756095D01*
X172221071Y-110683524D01*
X172196881Y-110586762D01*
X172172690Y-110538381D01*
X172124309Y-110490000D01*
X172051738Y-110465810D01*
X172003357Y-110465810D01*
X171930785Y-110490000D01*
X171906595Y-110514190D01*
X171737262Y-111167333D02*
X171713071Y-111143143D01*
X171664690Y-111070571D01*
X171640500Y-111022190D01*
X171616309Y-110949619D01*
X171592119Y-110828667D01*
X171592119Y-110731905D01*
X171616309Y-110610952D01*
X171640500Y-110538381D01*
X171664690Y-110490000D01*
X171713071Y-110417429D01*
X171737262Y-110393238D01*
X170672880Y-110925429D02*
X170697070Y-110949619D01*
X170769642Y-110973810D01*
X170818023Y-110973810D01*
X170890594Y-110949619D01*
X170938975Y-110901238D01*
X170963166Y-110852857D01*
X170987356Y-110756095D01*
X170987356Y-110683524D01*
X170963166Y-110586762D01*
X170938975Y-110538381D01*
X170890594Y-110490000D01*
X170818023Y-110465810D01*
X170769642Y-110465810D01*
X170697070Y-110490000D01*
X170672880Y-110514190D01*
X170382594Y-110973810D02*
X170430975Y-110949619D01*
X170455166Y-110925429D01*
X170479356Y-110877048D01*
X170479356Y-110731905D01*
X170455166Y-110683524D01*
X170430975Y-110659333D01*
X170382594Y-110635143D01*
X170310023Y-110635143D01*
X170261642Y-110659333D01*
X170237451Y-110683524D01*
X170213261Y-110731905D01*
X170213261Y-110877048D01*
X170237451Y-110925429D01*
X170261642Y-110949619D01*
X170310023Y-110973810D01*
X170382594Y-110973810D01*
X169995547Y-110635143D02*
X169995547Y-111143143D01*
X169995547Y-110659333D02*
X169947166Y-110635143D01*
X169850404Y-110635143D01*
X169802023Y-110659333D01*
X169777832Y-110683524D01*
X169753642Y-110731905D01*
X169753642Y-110877048D01*
X169777832Y-110925429D01*
X169802023Y-110949619D01*
X169850404Y-110973810D01*
X169947166Y-110973810D01*
X169995547Y-110949619D01*
X169584309Y-110635143D02*
X169463356Y-110973810D01*
X169342404Y-110635143D02*
X169463356Y-110973810D01*
X169511737Y-111094762D01*
X169535928Y-111118952D01*
X169584309Y-111143143D01*
X169148880Y-110973810D02*
X169148880Y-110635143D01*
X169148880Y-110731905D02*
X169124689Y-110683524D01*
X169100499Y-110659333D01*
X169052118Y-110635143D01*
X169003737Y-110635143D01*
X168834404Y-110973810D02*
X168834404Y-110635143D01*
X168834404Y-110465810D02*
X168858594Y-110490000D01*
X168834404Y-110514190D01*
X168810213Y-110490000D01*
X168834404Y-110465810D01*
X168834404Y-110514190D01*
X168374784Y-110635143D02*
X168374784Y-111046381D01*
X168398975Y-111094762D01*
X168423165Y-111118952D01*
X168471546Y-111143143D01*
X168544118Y-111143143D01*
X168592499Y-111118952D01*
X168374784Y-110949619D02*
X168423165Y-110973810D01*
X168519927Y-110973810D01*
X168568308Y-110949619D01*
X168592499Y-110925429D01*
X168616689Y-110877048D01*
X168616689Y-110731905D01*
X168592499Y-110683524D01*
X168568308Y-110659333D01*
X168519927Y-110635143D01*
X168423165Y-110635143D01*
X168374784Y-110659333D01*
X168132880Y-110973810D02*
X168132880Y-110465810D01*
X167915165Y-110973810D02*
X167915165Y-110707714D01*
X167939356Y-110659333D01*
X167987737Y-110635143D01*
X168060308Y-110635143D01*
X168108689Y-110659333D01*
X168132880Y-110683524D01*
X167745832Y-110635143D02*
X167552308Y-110635143D01*
X167673261Y-110465810D02*
X167673261Y-110901238D01*
X167649070Y-110949619D01*
X167600689Y-110973810D01*
X167552308Y-110973810D01*
X167020117Y-110514190D02*
X166995927Y-110490000D01*
X166947546Y-110465810D01*
X166826593Y-110465810D01*
X166778212Y-110490000D01*
X166754022Y-110514190D01*
X166729831Y-110562571D01*
X166729831Y-110610952D01*
X166754022Y-110683524D01*
X167044308Y-110973810D01*
X166729831Y-110973810D01*
X166415355Y-110465810D02*
X166366974Y-110465810D01*
X166318593Y-110490000D01*
X166294402Y-110514190D01*
X166270212Y-110562571D01*
X166246021Y-110659333D01*
X166246021Y-110780286D01*
X166270212Y-110877048D01*
X166294402Y-110925429D01*
X166318593Y-110949619D01*
X166366974Y-110973810D01*
X166415355Y-110973810D01*
X166463736Y-110949619D01*
X166487926Y-110925429D01*
X166512117Y-110877048D01*
X166536307Y-110780286D01*
X166536307Y-110659333D01*
X166512117Y-110562571D01*
X166487926Y-110514190D01*
X166463736Y-110490000D01*
X166415355Y-110465810D01*
X165762211Y-110973810D02*
X166052497Y-110973810D01*
X165907354Y-110973810D02*
X165907354Y-110465810D01*
X165955735Y-110538381D01*
X166004116Y-110586762D01*
X166052497Y-110610952D01*
X165471925Y-110683524D02*
X165520306Y-110659333D01*
X165544497Y-110635143D01*
X165568687Y-110586762D01*
X165568687Y-110562571D01*
X165544497Y-110514190D01*
X165520306Y-110490000D01*
X165471925Y-110465810D01*
X165375163Y-110465810D01*
X165326782Y-110490000D01*
X165302592Y-110514190D01*
X165278401Y-110562571D01*
X165278401Y-110586762D01*
X165302592Y-110635143D01*
X165326782Y-110659333D01*
X165375163Y-110683524D01*
X165471925Y-110683524D01*
X165520306Y-110707714D01*
X165544497Y-110731905D01*
X165568687Y-110780286D01*
X165568687Y-110877048D01*
X165544497Y-110925429D01*
X165520306Y-110949619D01*
X165471925Y-110973810D01*
X165375163Y-110973810D01*
X165326782Y-110949619D01*
X165302592Y-110925429D01*
X165278401Y-110877048D01*
X165278401Y-110780286D01*
X165302592Y-110731905D01*
X165326782Y-110707714D01*
X165375163Y-110683524D01*
X164673639Y-110973810D02*
X164673639Y-110465810D01*
X164480115Y-110465810D01*
X164431734Y-110490000D01*
X164407543Y-110514190D01*
X164383353Y-110562571D01*
X164383353Y-110635143D01*
X164407543Y-110683524D01*
X164431734Y-110707714D01*
X164480115Y-110731905D01*
X164673639Y-110731905D01*
X163972115Y-110949619D02*
X164020496Y-110973810D01*
X164117258Y-110973810D01*
X164165639Y-110949619D01*
X164189829Y-110901238D01*
X164189829Y-110707714D01*
X164165639Y-110659333D01*
X164117258Y-110635143D01*
X164020496Y-110635143D01*
X163972115Y-110659333D01*
X163947924Y-110707714D01*
X163947924Y-110756095D01*
X164189829Y-110804476D01*
X163802781Y-110635143D02*
X163609257Y-110635143D01*
X163730210Y-110465810D02*
X163730210Y-110901238D01*
X163706019Y-110949619D01*
X163657638Y-110973810D01*
X163609257Y-110973810D01*
X163246400Y-110949619D02*
X163294781Y-110973810D01*
X163391543Y-110973810D01*
X163439924Y-110949619D01*
X163464114Y-110901238D01*
X163464114Y-110707714D01*
X163439924Y-110659333D01*
X163391543Y-110635143D01*
X163294781Y-110635143D01*
X163246400Y-110659333D01*
X163222209Y-110707714D01*
X163222209Y-110756095D01*
X163464114Y-110804476D01*
X163004495Y-110973810D02*
X163004495Y-110635143D01*
X163004495Y-110731905D02*
X162980304Y-110683524D01*
X162956114Y-110659333D01*
X162907733Y-110635143D01*
X162859352Y-110635143D01*
X162302971Y-110973810D02*
X162302971Y-110465810D01*
X162182018Y-110465810D01*
X162109447Y-110490000D01*
X162061066Y-110538381D01*
X162036875Y-110586762D01*
X162012685Y-110683524D01*
X162012685Y-110756095D01*
X162036875Y-110852857D01*
X162061066Y-110901238D01*
X162109447Y-110949619D01*
X162182018Y-110973810D01*
X162302971Y-110973810D01*
X161577256Y-110635143D02*
X161577256Y-110973810D01*
X161794971Y-110635143D02*
X161794971Y-110901238D01*
X161770780Y-110949619D01*
X161722399Y-110973810D01*
X161649828Y-110973810D01*
X161601447Y-110949619D01*
X161577256Y-110925429D01*
X161335352Y-110635143D02*
X161335352Y-110973810D01*
X161335352Y-110683524D02*
X161311161Y-110659333D01*
X161262780Y-110635143D01*
X161190209Y-110635143D01*
X161141828Y-110659333D01*
X161117637Y-110707714D01*
X161117637Y-110973810D01*
X160899923Y-110949619D02*
X160851542Y-110973810D01*
X160754780Y-110973810D01*
X160706399Y-110949619D01*
X160682209Y-110901238D01*
X160682209Y-110877048D01*
X160706399Y-110828667D01*
X160754780Y-110804476D01*
X160827352Y-110804476D01*
X160875733Y-110780286D01*
X160899923Y-110731905D01*
X160899923Y-110707714D01*
X160875733Y-110659333D01*
X160827352Y-110635143D01*
X160754780Y-110635143D01*
X160706399Y-110659333D01*
X160464495Y-110973810D02*
X160464495Y-110465810D01*
X160246780Y-110973810D02*
X160246780Y-110707714D01*
X160270971Y-110659333D01*
X160319352Y-110635143D01*
X160391923Y-110635143D01*
X160440304Y-110659333D01*
X160464495Y-110683524D01*
X159811352Y-110949619D02*
X159859733Y-110973810D01*
X159956495Y-110973810D01*
X160004876Y-110949619D01*
X160029066Y-110901238D01*
X160029066Y-110707714D01*
X160004876Y-110659333D01*
X159956495Y-110635143D01*
X159859733Y-110635143D01*
X159811352Y-110659333D01*
X159787161Y-110707714D01*
X159787161Y-110756095D01*
X160029066Y-110804476D01*
X159375923Y-110949619D02*
X159424304Y-110973810D01*
X159521066Y-110973810D01*
X159569447Y-110949619D01*
X159593637Y-110901238D01*
X159593637Y-110707714D01*
X159569447Y-110659333D01*
X159521066Y-110635143D01*
X159424304Y-110635143D01*
X159375923Y-110659333D01*
X159351732Y-110707714D01*
X159351732Y-110756095D01*
X159593637Y-110804476D01*
X172221071Y-111620905D02*
X172245262Y-111596714D01*
X172293643Y-111572524D01*
X172342024Y-111572524D01*
X172390405Y-111596714D01*
X172414595Y-111620905D01*
X172438786Y-111669286D01*
X172438786Y-111717667D01*
X172414595Y-111766048D01*
X172390405Y-111790238D01*
X172342024Y-111814429D01*
X172293643Y-111814429D01*
X172245262Y-111790238D01*
X172221071Y-111766048D01*
X172221071Y-111572524D02*
X172221071Y-111766048D01*
X172196881Y-111790238D01*
X172172690Y-111790238D01*
X172124310Y-111766048D01*
X172100119Y-111717667D01*
X172100119Y-111596714D01*
X172148500Y-111524143D01*
X172221071Y-111475762D01*
X172317833Y-111451571D01*
X172414595Y-111475762D01*
X172487167Y-111524143D01*
X172535548Y-111596714D01*
X172559738Y-111693476D01*
X172535548Y-111790238D01*
X172487167Y-111862810D01*
X172414595Y-111911190D01*
X172317833Y-111935381D01*
X172221071Y-111911190D01*
X172148500Y-111862810D01*
X171882405Y-111862810D02*
X171882405Y-111354810D01*
X171688881Y-111354810D01*
X171640500Y-111379000D01*
X171616309Y-111403190D01*
X171592119Y-111451571D01*
X171592119Y-111524143D01*
X171616309Y-111572524D01*
X171640500Y-111596714D01*
X171688881Y-111620905D01*
X171882405Y-111620905D01*
X171180881Y-111838619D02*
X171229262Y-111862810D01*
X171326024Y-111862810D01*
X171374405Y-111838619D01*
X171398595Y-111790238D01*
X171398595Y-111596714D01*
X171374405Y-111548333D01*
X171326024Y-111524143D01*
X171229262Y-111524143D01*
X171180881Y-111548333D01*
X171156690Y-111596714D01*
X171156690Y-111645095D01*
X171398595Y-111693476D01*
X171011547Y-111524143D02*
X170818023Y-111524143D01*
X170938976Y-111354810D02*
X170938976Y-111790238D01*
X170914785Y-111838619D01*
X170866404Y-111862810D01*
X170818023Y-111862810D01*
X170455166Y-111838619D02*
X170503547Y-111862810D01*
X170600309Y-111862810D01*
X170648690Y-111838619D01*
X170672880Y-111790238D01*
X170672880Y-111596714D01*
X170648690Y-111548333D01*
X170600309Y-111524143D01*
X170503547Y-111524143D01*
X170455166Y-111548333D01*
X170430975Y-111596714D01*
X170430975Y-111645095D01*
X170672880Y-111693476D01*
X170261642Y-111524143D02*
X169995546Y-111524143D01*
X170261642Y-111862810D01*
X169995546Y-111862810D01*
X169584308Y-111862810D02*
X169584308Y-111596714D01*
X169608499Y-111548333D01*
X169656880Y-111524143D01*
X169753642Y-111524143D01*
X169802023Y-111548333D01*
X169584308Y-111838619D02*
X169632689Y-111862810D01*
X169753642Y-111862810D01*
X169802023Y-111838619D01*
X169826213Y-111790238D01*
X169826213Y-111741857D01*
X169802023Y-111693476D01*
X169753642Y-111669286D01*
X169632689Y-111669286D01*
X169584308Y-111645095D01*
X169342404Y-111862810D02*
X169342404Y-111354810D01*
X169124689Y-111862810D02*
X169124689Y-111596714D01*
X169148880Y-111548333D01*
X169197261Y-111524143D01*
X169269832Y-111524143D01*
X169318213Y-111548333D01*
X169342404Y-111572524D01*
X148844000Y-122428000D02*
X149860000Y-122428000D01*
X149860000Y-122428000D02*
X149860000Y-120396000D01*
X149860000Y-120396000D02*
X155194000Y-114808000D01*
X155194000Y-114808000D02*
X165100000Y-114808000D01*
X165100000Y-114808000D02*
X170180000Y-120142000D01*
X170180000Y-120142000D02*
X170180000Y-122428000D01*
X170180000Y-122428000D02*
X171196000Y-122428000D01*
X171196000Y-122428000D02*
X171196000Y-127508000D01*
X171196000Y-127508000D02*
X170180000Y-127508000D01*
X170180000Y-127508000D02*
X170180000Y-134620000D01*
X170180000Y-134620000D02*
X165862000Y-134620000D01*
X165862000Y-134620000D02*
X163322000Y-132842000D01*
X163322000Y-132842000D02*
X156972000Y-132842000D01*
X156972000Y-132842000D02*
X154686000Y-134620000D01*
X154686000Y-134620000D02*
X149860000Y-134620000D01*
X149860000Y-134620000D02*
X149860000Y-127508000D01*
X149860000Y-127508000D02*
X148844000Y-127508000D01*
X148844000Y-127508000D02*
X148844000Y-122428000D01*
M02*
