G04 #@! TF.GenerationSoftware,KiCad,Pcbnew,(5.0.2)-1*
G04 #@! TF.CreationDate,2019-05-02T14:31:50-05:00*
G04 #@! TF.ProjectId,roomba_wall_v3,726f6f6d-6261-45f7-9761-6c6c5f76332e,B*
G04 #@! TF.SameCoordinates,Original*
G04 #@! TF.FileFunction,Soldermask,Bot*
G04 #@! TF.FilePolarity,Negative*
%FSLAX46Y46*%
G04 Gerber Fmt 4.6, Leading zero omitted, Abs format (unit mm)*
G04 Created by KiCad (PCBNEW (5.0.2)-1) date 5/2/2019 2:31:50 PM*
%MOMM*%
%LPD*%
G01*
G04 APERTURE LIST*
%ADD10C,0.127000*%
%ADD11C,0.100000*%
G04 APERTURE END LIST*
D10*
G04 #@! TO.C,BT1*
X160020000Y-132588000D02*
G75*
G02X152400000Y-124968000I0J7620000D01*
G01*
X152400000Y-124968000D02*
G75*
G02X160020000Y-117348000I7620000J0D01*
G01*
X160020000Y-117348000D02*
G75*
G02X167640000Y-124968000I0J-7620000D01*
G01*
X167640000Y-124968000D02*
G75*
G02X160020000Y-132588000I-7620000J0D01*
G01*
D11*
G36*
X161516598Y-120034373D02*
X162450344Y-120421143D01*
X162450345Y-120421144D01*
X163290695Y-120982647D01*
X164005353Y-121697305D01*
X164379688Y-122257538D01*
X164566857Y-122537656D01*
X164953627Y-123471402D01*
X165150800Y-124462659D01*
X165150800Y-125473341D01*
X164953627Y-126464598D01*
X164566857Y-127398344D01*
X164566856Y-127398345D01*
X164005353Y-128238695D01*
X163290695Y-128953353D01*
X162730462Y-129327688D01*
X162450344Y-129514857D01*
X161516598Y-129901627D01*
X160525341Y-130098800D01*
X159514659Y-130098800D01*
X158523402Y-129901627D01*
X157589656Y-129514857D01*
X157309538Y-129327688D01*
X156749305Y-128953353D01*
X156034647Y-128238695D01*
X155473144Y-127398345D01*
X155473143Y-127398344D01*
X155086373Y-126464598D01*
X154889200Y-125473341D01*
X154889200Y-124462659D01*
X155086373Y-123471402D01*
X155473143Y-122537656D01*
X155660312Y-122257538D01*
X156034647Y-121697305D01*
X156749305Y-120982647D01*
X157589655Y-120421144D01*
X157589656Y-120421143D01*
X158523402Y-120034373D01*
X159514659Y-119837200D01*
X160525341Y-119837200D01*
X161516598Y-120034373D01*
X161516598Y-120034373D01*
G37*
G36*
X171071400Y-123040498D02*
X171071403Y-123040499D01*
X171071404Y-123040499D01*
X171440074Y-123152334D01*
X171779842Y-123333944D01*
X172077651Y-123578349D01*
X172322056Y-123876158D01*
X172503666Y-124215926D01*
X172578512Y-124462660D01*
X172615502Y-124584600D01*
X172653263Y-124968000D01*
X172615502Y-125351400D01*
X172615501Y-125351403D01*
X172615501Y-125351404D01*
X172503666Y-125720074D01*
X172322056Y-126059842D01*
X172077651Y-126357651D01*
X171779842Y-126602056D01*
X171440074Y-126783666D01*
X171071404Y-126895501D01*
X171071403Y-126895501D01*
X171071400Y-126895502D01*
X170784083Y-126923800D01*
X170591917Y-126923800D01*
X170304600Y-126895502D01*
X170304597Y-126895501D01*
X170304596Y-126895501D01*
X169935926Y-126783666D01*
X169596158Y-126602056D01*
X169298349Y-126357651D01*
X169053944Y-126059842D01*
X168872334Y-125720074D01*
X168760499Y-125351404D01*
X168760499Y-125351403D01*
X168760498Y-125351400D01*
X168722737Y-124968000D01*
X168760498Y-124584600D01*
X168797488Y-124462660D01*
X168872334Y-124215926D01*
X169053944Y-123876158D01*
X169298349Y-123578349D01*
X169596158Y-123333944D01*
X169935926Y-123152334D01*
X170304596Y-123040499D01*
X170304597Y-123040499D01*
X170304600Y-123040498D01*
X170591917Y-123012200D01*
X170784083Y-123012200D01*
X171071400Y-123040498D01*
X171071400Y-123040498D01*
G37*
G36*
X149735400Y-123040498D02*
X149735403Y-123040499D01*
X149735404Y-123040499D01*
X150104074Y-123152334D01*
X150443842Y-123333944D01*
X150741651Y-123578349D01*
X150986056Y-123876158D01*
X151167666Y-124215926D01*
X151242512Y-124462660D01*
X151279502Y-124584600D01*
X151317263Y-124968000D01*
X151279502Y-125351400D01*
X151279501Y-125351403D01*
X151279501Y-125351404D01*
X151167666Y-125720074D01*
X150986056Y-126059842D01*
X150741651Y-126357651D01*
X150443842Y-126602056D01*
X150104074Y-126783666D01*
X149735404Y-126895501D01*
X149735403Y-126895501D01*
X149735400Y-126895502D01*
X149448083Y-126923800D01*
X149255917Y-126923800D01*
X148968600Y-126895502D01*
X148968597Y-126895501D01*
X148968596Y-126895501D01*
X148599926Y-126783666D01*
X148260158Y-126602056D01*
X147962349Y-126357651D01*
X147717944Y-126059842D01*
X147536334Y-125720074D01*
X147424499Y-125351404D01*
X147424499Y-125351403D01*
X147424498Y-125351400D01*
X147386737Y-124968000D01*
X147424498Y-124584600D01*
X147461488Y-124462660D01*
X147536334Y-124215926D01*
X147717944Y-123876158D01*
X147962349Y-123578349D01*
X148260158Y-123333944D01*
X148599926Y-123152334D01*
X148968596Y-123040499D01*
X148968597Y-123040499D01*
X148968600Y-123040498D01*
X149255917Y-123012200D01*
X149448083Y-123012200D01*
X149735400Y-123040498D01*
X149735400Y-123040498D01*
G37*
G36*
X172104077Y-117467445D02*
X172195216Y-117505196D01*
X172195218Y-117505197D01*
X172276153Y-117559276D01*
X172277244Y-117560005D01*
X172346995Y-117629756D01*
X172401804Y-117711784D01*
X172439555Y-117802923D01*
X172458800Y-117899674D01*
X172458800Y-117998326D01*
X172439555Y-118095077D01*
X172401804Y-118186216D01*
X172346995Y-118268244D01*
X172277244Y-118337995D01*
X172277241Y-118337997D01*
X172195218Y-118392803D01*
X172195217Y-118392804D01*
X172195216Y-118392804D01*
X172104077Y-118430555D01*
X172007326Y-118449800D01*
X171908674Y-118449800D01*
X171811923Y-118430555D01*
X171720784Y-118392804D01*
X171720783Y-118392804D01*
X171720782Y-118392803D01*
X171638759Y-118337997D01*
X171638756Y-118337995D01*
X171569005Y-118268244D01*
X171514196Y-118186216D01*
X171476445Y-118095077D01*
X171457200Y-117998326D01*
X171457200Y-117899674D01*
X171476445Y-117802923D01*
X171514196Y-117711784D01*
X171569005Y-117629756D01*
X171638756Y-117560005D01*
X171639847Y-117559276D01*
X171720782Y-117505197D01*
X171720784Y-117505196D01*
X171811923Y-117467445D01*
X171908674Y-117448200D01*
X172007326Y-117448200D01*
X172104077Y-117467445D01*
X172104077Y-117467445D01*
G37*
G36*
X172104077Y-113217445D02*
X172195216Y-113255196D01*
X172195218Y-113255197D01*
X172276153Y-113309276D01*
X172277244Y-113310005D01*
X172346995Y-113379756D01*
X172401804Y-113461784D01*
X172439555Y-113552923D01*
X172458800Y-113649674D01*
X172458800Y-113748326D01*
X172439555Y-113845077D01*
X172401804Y-113936216D01*
X172346995Y-114018244D01*
X172277244Y-114087995D01*
X172277241Y-114087997D01*
X172195218Y-114142803D01*
X172195217Y-114142804D01*
X172195216Y-114142804D01*
X172104077Y-114180555D01*
X172007326Y-114199800D01*
X171908674Y-114199800D01*
X171811923Y-114180555D01*
X171720784Y-114142804D01*
X171720783Y-114142804D01*
X171720782Y-114142803D01*
X171638759Y-114087997D01*
X171638756Y-114087995D01*
X171569005Y-114018244D01*
X171514196Y-113936216D01*
X171476445Y-113845077D01*
X171457200Y-113748326D01*
X171457200Y-113649674D01*
X171476445Y-113552923D01*
X171514196Y-113461784D01*
X171569005Y-113379756D01*
X171638756Y-113310005D01*
X171639847Y-113309276D01*
X171720782Y-113255197D01*
X171720784Y-113255196D01*
X171811923Y-113217445D01*
X171908674Y-113198200D01*
X172007326Y-113198200D01*
X172104077Y-113217445D01*
X172104077Y-113217445D01*
G37*
G36*
X150011862Y-110355545D02*
X150100088Y-110364234D01*
X150213289Y-110398573D01*
X150269890Y-110415743D01*
X150408480Y-110489822D01*
X150426379Y-110499389D01*
X150462109Y-110528712D01*
X150563544Y-110611956D01*
X150646788Y-110713391D01*
X150676111Y-110749121D01*
X150676112Y-110749123D01*
X150759757Y-110905610D01*
X150759757Y-110905611D01*
X150811266Y-111075412D01*
X150828658Y-111252000D01*
X150811266Y-111428588D01*
X150776927Y-111541789D01*
X150759757Y-111598390D01*
X150685678Y-111736980D01*
X150676111Y-111754879D01*
X150646788Y-111790609D01*
X150563544Y-111892044D01*
X150462109Y-111975288D01*
X150426379Y-112004611D01*
X150426377Y-112004612D01*
X150269890Y-112088257D01*
X150213289Y-112105427D01*
X150100088Y-112139766D01*
X150011862Y-112148455D01*
X149967750Y-112152800D01*
X149879250Y-112152800D01*
X149835138Y-112148455D01*
X149746912Y-112139766D01*
X149633711Y-112105427D01*
X149577110Y-112088257D01*
X149420623Y-112004612D01*
X149420621Y-112004611D01*
X149384891Y-111975288D01*
X149283456Y-111892044D01*
X149200212Y-111790609D01*
X149170889Y-111754879D01*
X149161322Y-111736980D01*
X149087243Y-111598390D01*
X149070073Y-111541789D01*
X149035734Y-111428588D01*
X149018342Y-111252000D01*
X149035734Y-111075412D01*
X149087243Y-110905611D01*
X149087243Y-110905610D01*
X149170888Y-110749123D01*
X149170889Y-110749121D01*
X149200212Y-110713391D01*
X149283456Y-110611956D01*
X149384891Y-110528712D01*
X149420621Y-110499389D01*
X149438520Y-110489822D01*
X149577110Y-110415743D01*
X149633711Y-110398573D01*
X149746912Y-110364234D01*
X149835138Y-110355545D01*
X149879250Y-110351200D01*
X149967750Y-110351200D01*
X150011862Y-110355545D01*
X150011862Y-110355545D01*
G37*
G36*
X152551862Y-110355545D02*
X152640088Y-110364234D01*
X152753289Y-110398573D01*
X152809890Y-110415743D01*
X152948480Y-110489822D01*
X152966379Y-110499389D01*
X153002109Y-110528712D01*
X153103544Y-110611956D01*
X153186788Y-110713391D01*
X153216111Y-110749121D01*
X153216112Y-110749123D01*
X153299757Y-110905610D01*
X153299757Y-110905611D01*
X153351266Y-111075412D01*
X153368658Y-111252000D01*
X153351266Y-111428588D01*
X153316927Y-111541789D01*
X153299757Y-111598390D01*
X153225678Y-111736980D01*
X153216111Y-111754879D01*
X153186788Y-111790609D01*
X153103544Y-111892044D01*
X153002109Y-111975288D01*
X152966379Y-112004611D01*
X152966377Y-112004612D01*
X152809890Y-112088257D01*
X152753289Y-112105427D01*
X152640088Y-112139766D01*
X152551862Y-112148455D01*
X152507750Y-112152800D01*
X152419250Y-112152800D01*
X152375138Y-112148455D01*
X152286912Y-112139766D01*
X152173711Y-112105427D01*
X152117110Y-112088257D01*
X151960623Y-112004612D01*
X151960621Y-112004611D01*
X151924891Y-111975288D01*
X151823456Y-111892044D01*
X151740212Y-111790609D01*
X151710889Y-111754879D01*
X151701322Y-111736980D01*
X151627243Y-111598390D01*
X151610073Y-111541789D01*
X151575734Y-111428588D01*
X151558342Y-111252000D01*
X151575734Y-111075412D01*
X151627243Y-110905611D01*
X151627243Y-110905610D01*
X151710888Y-110749123D01*
X151710889Y-110749121D01*
X151740212Y-110713391D01*
X151823456Y-110611956D01*
X151924891Y-110528712D01*
X151960621Y-110499389D01*
X151978520Y-110489822D01*
X152117110Y-110415743D01*
X152173711Y-110398573D01*
X152286912Y-110364234D01*
X152375138Y-110355545D01*
X152419250Y-110351200D01*
X152507750Y-110351200D01*
X152551862Y-110355545D01*
X152551862Y-110355545D01*
G37*
G36*
X155091862Y-110355545D02*
X155180088Y-110364234D01*
X155293289Y-110398573D01*
X155349890Y-110415743D01*
X155488480Y-110489822D01*
X155506379Y-110499389D01*
X155542109Y-110528712D01*
X155643544Y-110611956D01*
X155726788Y-110713391D01*
X155756111Y-110749121D01*
X155756112Y-110749123D01*
X155839757Y-110905610D01*
X155839757Y-110905611D01*
X155891266Y-111075412D01*
X155908658Y-111252000D01*
X155891266Y-111428588D01*
X155856927Y-111541789D01*
X155839757Y-111598390D01*
X155765678Y-111736980D01*
X155756111Y-111754879D01*
X155726788Y-111790609D01*
X155643544Y-111892044D01*
X155542109Y-111975288D01*
X155506379Y-112004611D01*
X155506377Y-112004612D01*
X155349890Y-112088257D01*
X155293289Y-112105427D01*
X155180088Y-112139766D01*
X155091862Y-112148455D01*
X155047750Y-112152800D01*
X154959250Y-112152800D01*
X154915138Y-112148455D01*
X154826912Y-112139766D01*
X154713711Y-112105427D01*
X154657110Y-112088257D01*
X154500623Y-112004612D01*
X154500621Y-112004611D01*
X154464891Y-111975288D01*
X154363456Y-111892044D01*
X154280212Y-111790609D01*
X154250889Y-111754879D01*
X154241322Y-111736980D01*
X154167243Y-111598390D01*
X154150073Y-111541789D01*
X154115734Y-111428588D01*
X154098342Y-111252000D01*
X154115734Y-111075412D01*
X154167243Y-110905611D01*
X154167243Y-110905610D01*
X154250888Y-110749123D01*
X154250889Y-110749121D01*
X154280212Y-110713391D01*
X154363456Y-110611956D01*
X154464891Y-110528712D01*
X154500621Y-110499389D01*
X154518520Y-110489822D01*
X154657110Y-110415743D01*
X154713711Y-110398573D01*
X154826912Y-110364234D01*
X154915138Y-110355545D01*
X154959250Y-110351200D01*
X155047750Y-110351200D01*
X155091862Y-110355545D01*
X155091862Y-110355545D01*
G37*
G36*
X155904300Y-109612800D02*
X154102700Y-109612800D01*
X154102700Y-107811200D01*
X155904300Y-107811200D01*
X155904300Y-109612800D01*
X155904300Y-109612800D01*
G37*
G36*
X150011862Y-107815545D02*
X150100088Y-107824234D01*
X150213289Y-107858573D01*
X150269890Y-107875743D01*
X150408480Y-107949822D01*
X150426379Y-107959389D01*
X150457698Y-107985092D01*
X150563544Y-108071956D01*
X150646788Y-108173391D01*
X150676111Y-108209121D01*
X150676112Y-108209123D01*
X150759757Y-108365610D01*
X150759757Y-108365611D01*
X150811266Y-108535412D01*
X150828658Y-108712000D01*
X150811266Y-108888588D01*
X150776927Y-109001789D01*
X150759757Y-109058390D01*
X150685678Y-109196980D01*
X150676111Y-109214879D01*
X150646788Y-109250609D01*
X150563544Y-109352044D01*
X150462109Y-109435288D01*
X150426379Y-109464611D01*
X150426377Y-109464612D01*
X150269890Y-109548257D01*
X150213289Y-109565427D01*
X150100088Y-109599766D01*
X150011862Y-109608455D01*
X149967750Y-109612800D01*
X149879250Y-109612800D01*
X149835138Y-109608455D01*
X149746912Y-109599766D01*
X149633711Y-109565427D01*
X149577110Y-109548257D01*
X149420623Y-109464612D01*
X149420621Y-109464611D01*
X149384891Y-109435288D01*
X149283456Y-109352044D01*
X149200212Y-109250609D01*
X149170889Y-109214879D01*
X149161322Y-109196980D01*
X149087243Y-109058390D01*
X149070073Y-109001789D01*
X149035734Y-108888588D01*
X149018342Y-108712000D01*
X149035734Y-108535412D01*
X149087243Y-108365611D01*
X149087243Y-108365610D01*
X149170888Y-108209123D01*
X149170889Y-108209121D01*
X149200212Y-108173391D01*
X149283456Y-108071956D01*
X149389302Y-107985092D01*
X149420621Y-107959389D01*
X149438520Y-107949822D01*
X149577110Y-107875743D01*
X149633711Y-107858573D01*
X149746912Y-107824234D01*
X149835138Y-107815545D01*
X149879250Y-107811200D01*
X149967750Y-107811200D01*
X150011862Y-107815545D01*
X150011862Y-107815545D01*
G37*
G36*
X152551862Y-107815545D02*
X152640088Y-107824234D01*
X152753289Y-107858573D01*
X152809890Y-107875743D01*
X152948480Y-107949822D01*
X152966379Y-107959389D01*
X152997698Y-107985092D01*
X153103544Y-108071956D01*
X153186788Y-108173391D01*
X153216111Y-108209121D01*
X153216112Y-108209123D01*
X153299757Y-108365610D01*
X153299757Y-108365611D01*
X153351266Y-108535412D01*
X153368658Y-108712000D01*
X153351266Y-108888588D01*
X153316927Y-109001789D01*
X153299757Y-109058390D01*
X153225678Y-109196980D01*
X153216111Y-109214879D01*
X153186788Y-109250609D01*
X153103544Y-109352044D01*
X153002109Y-109435288D01*
X152966379Y-109464611D01*
X152966377Y-109464612D01*
X152809890Y-109548257D01*
X152753289Y-109565427D01*
X152640088Y-109599766D01*
X152551862Y-109608455D01*
X152507750Y-109612800D01*
X152419250Y-109612800D01*
X152375138Y-109608455D01*
X152286912Y-109599766D01*
X152173711Y-109565427D01*
X152117110Y-109548257D01*
X151960623Y-109464612D01*
X151960621Y-109464611D01*
X151924891Y-109435288D01*
X151823456Y-109352044D01*
X151740212Y-109250609D01*
X151710889Y-109214879D01*
X151701322Y-109196980D01*
X151627243Y-109058390D01*
X151610073Y-109001789D01*
X151575734Y-108888588D01*
X151558342Y-108712000D01*
X151575734Y-108535412D01*
X151627243Y-108365611D01*
X151627243Y-108365610D01*
X151710888Y-108209123D01*
X151710889Y-108209121D01*
X151740212Y-108173391D01*
X151823456Y-108071956D01*
X151929302Y-107985092D01*
X151960621Y-107959389D01*
X151978520Y-107949822D01*
X152117110Y-107875743D01*
X152173711Y-107858573D01*
X152286912Y-107824234D01*
X152375138Y-107815545D01*
X152419250Y-107811200D01*
X152507750Y-107811200D01*
X152551862Y-107815545D01*
X152551862Y-107815545D01*
G37*
G36*
X160355673Y-106144924D02*
X160355675Y-106144925D01*
X160355676Y-106144925D01*
X160565108Y-106231674D01*
X160565109Y-106231675D01*
X160753595Y-106357617D01*
X160913883Y-106517905D01*
X160913885Y-106517908D01*
X161039826Y-106706392D01*
X161126575Y-106915824D01*
X161170800Y-107138156D01*
X161170800Y-107364844D01*
X161126575Y-107587176D01*
X161039826Y-107796608D01*
X160931060Y-107959388D01*
X160913883Y-107985095D01*
X160753595Y-108145383D01*
X160753592Y-108145385D01*
X160565108Y-108271326D01*
X160355676Y-108358075D01*
X160355675Y-108358075D01*
X160355673Y-108358076D01*
X160133345Y-108402300D01*
X159906655Y-108402300D01*
X159684327Y-108358076D01*
X159684325Y-108358075D01*
X159684324Y-108358075D01*
X159474892Y-108271326D01*
X159286408Y-108145385D01*
X159286405Y-108145383D01*
X159126117Y-107985095D01*
X159108940Y-107959388D01*
X159000174Y-107796608D01*
X158913425Y-107587176D01*
X158869200Y-107364844D01*
X158869200Y-107138156D01*
X158913425Y-106915824D01*
X159000174Y-106706392D01*
X159126115Y-106517908D01*
X159126117Y-106517905D01*
X159286405Y-106357617D01*
X159474891Y-106231675D01*
X159474892Y-106231674D01*
X159684324Y-106144925D01*
X159684325Y-106144925D01*
X159684327Y-106144924D01*
X159906655Y-106100700D01*
X160133345Y-106100700D01*
X160355673Y-106144924D01*
X160355673Y-106144924D01*
G37*
M02*
