M48
;DRILL file {KiCad 4.0.7} date 08/05/18 15:32:27
;FORMAT={-:-/ absolute / inch / decimal}
FMAT,2
INCH,TZ
T1C0.013
T2C0.026
T3C0.039
T4C0.079
%
G90
G05
M72
T1
X5.93Y-4.65
X6.3827Y-4.4945
X6.3899Y-4.4623
X6.4525Y-4.2725
X6.495Y-4.45
X6.5225Y-4.485
X6.5575Y-4.4325
X6.5975Y-4.28
X6.67Y-4.48
T2
X5.84Y-5.075
X5.84Y-5.24
X6.76Y-5.24
X6.795Y-5.025
T3
X5.9025Y-4.28
X5.9025Y-4.38
X6.0025Y-4.28
X6.0025Y-4.38
X6.1025Y-4.28
X6.1025Y-4.38
T4
X5.88Y-4.92
X6.72Y-4.92
T0
M30
