G04 #@! TF.GenerationSoftware,KiCad,Pcbnew,(5.0.2)-1*
G04 #@! TF.CreationDate,2019-05-02T14:31:50-05:00*
G04 #@! TF.ProjectId,roomba_wall_v3,726f6f6d-6261-45f7-9761-6c6c5f76332e,B*
G04 #@! TF.SameCoordinates,Original*
G04 #@! TF.FileFunction,Legend,Top*
G04 #@! TF.FilePolarity,Positive*
%FSLAX46Y46*%
G04 Gerber Fmt 4.6, Leading zero omitted, Abs format (unit mm)*
G04 Created by KiCad (PCBNEW (5.0.2)-1) date 5/2/2019 2:31:50 PM*
%MOMM*%
%LPD*%
G01*
G04 APERTURE LIST*
%ADD10C,0.300000*%
%ADD11C,0.150000*%
%ADD12C,0.120000*%
%ADD13C,0.010000*%
%ADD14C,0.152400*%
G04 APERTURE END LIST*
D10*
X161437357Y-130964785D02*
X161365928Y-130893357D01*
X161223071Y-130821928D01*
X161080214Y-130821928D01*
X160937357Y-130893357D01*
X160865928Y-130964785D01*
X160794500Y-131107642D01*
X160794500Y-131250500D01*
X160865928Y-131393357D01*
X160937357Y-131464785D01*
X161080214Y-131536214D01*
X161223071Y-131536214D01*
X161365928Y-131464785D01*
X161437357Y-131393357D01*
X161437357Y-130821928D02*
X161437357Y-131393357D01*
X161508785Y-131464785D01*
X161580214Y-131464785D01*
X161723071Y-131393357D01*
X161794500Y-131250500D01*
X161794500Y-130893357D01*
X161651642Y-130679071D01*
X161437357Y-130536214D01*
X161151642Y-130464785D01*
X160865928Y-130536214D01*
X160651642Y-130679071D01*
X160508785Y-130893357D01*
X160437357Y-131179071D01*
X160508785Y-131464785D01*
X160651642Y-131679071D01*
X160865928Y-131821928D01*
X161151642Y-131893357D01*
X161437357Y-131821928D01*
X161651642Y-131679071D01*
X162437357Y-131679071D02*
X162437357Y-130179071D01*
X163008785Y-130179071D01*
X163151642Y-130250500D01*
X163223071Y-130321928D01*
X163294500Y-130464785D01*
X163294500Y-130679071D01*
X163223071Y-130821928D01*
X163151642Y-130893357D01*
X163008785Y-130964785D01*
X162437357Y-130964785D01*
X164508785Y-131607642D02*
X164365928Y-131679071D01*
X164080214Y-131679071D01*
X163937357Y-131607642D01*
X163865928Y-131464785D01*
X163865928Y-130893357D01*
X163937357Y-130750500D01*
X164080214Y-130679071D01*
X164365928Y-130679071D01*
X164508785Y-130750500D01*
X164580214Y-130893357D01*
X164580214Y-131036214D01*
X163865928Y-131179071D01*
X165008785Y-130679071D02*
X165580214Y-130679071D01*
X165223071Y-130179071D02*
X165223071Y-131464785D01*
X165294500Y-131607642D01*
X165437357Y-131679071D01*
X165580214Y-131679071D01*
X166651642Y-131607642D02*
X166508785Y-131679071D01*
X166223071Y-131679071D01*
X166080214Y-131607642D01*
X166008785Y-131464785D01*
X166008785Y-130893357D01*
X166080214Y-130750500D01*
X166223071Y-130679071D01*
X166508785Y-130679071D01*
X166651642Y-130750500D01*
X166723071Y-130893357D01*
X166723071Y-131036214D01*
X166008785Y-131179071D01*
X167223071Y-130679071D02*
X168008785Y-130679071D01*
X167223071Y-131679071D01*
X168008785Y-131679071D01*
X169223071Y-131679071D02*
X169223071Y-130893357D01*
X169151642Y-130750500D01*
X169008785Y-130679071D01*
X168723071Y-130679071D01*
X168580214Y-130750500D01*
X169223071Y-131607642D02*
X169080214Y-131679071D01*
X168723071Y-131679071D01*
X168580214Y-131607642D01*
X168508785Y-131464785D01*
X168508785Y-131321928D01*
X168580214Y-131179071D01*
X168723071Y-131107642D01*
X169080214Y-131107642D01*
X169223071Y-131036214D01*
X169937357Y-131679071D02*
X169937357Y-130179071D01*
X170580214Y-131679071D02*
X170580214Y-130893357D01*
X170508785Y-130750500D01*
X170365928Y-130679071D01*
X170151642Y-130679071D01*
X170008785Y-130750500D01*
X169937357Y-130821928D01*
D11*
G04 #@! TO.C,R1*
X164324000Y-113700000D02*
X164324000Y-114900000D01*
X162574000Y-114900000D02*
X162574000Y-113700000D01*
D12*
G04 #@! TO.C,CON1*
X148593500Y-107382000D02*
X148593500Y-112582000D01*
X153733500Y-107382000D02*
X148593500Y-107382000D01*
X156333500Y-112582000D02*
X148593500Y-112582000D01*
X153733500Y-107382000D02*
X153733500Y-109982000D01*
X153733500Y-109982000D02*
X156333500Y-109982000D01*
X156333500Y-109982000D02*
X156333500Y-112582000D01*
X155003500Y-107382000D02*
X156333500Y-107382000D01*
X156333500Y-107382000D02*
X156333500Y-108712000D01*
D11*
G04 #@! TO.C,Y1*
X157583000Y-127755000D02*
X154583000Y-127755000D01*
X157583000Y-130055000D02*
X157583000Y-127755000D01*
G04 #@! TO.C,C2*
X154313000Y-116547000D02*
X155313000Y-116547000D01*
X155313000Y-114847000D02*
X154313000Y-114847000D01*
G04 #@! TO.C,D1*
X164604000Y-105524500D02*
X164604000Y-108224500D01*
X166104000Y-105524500D02*
X166104000Y-108224500D01*
X165204000Y-107024500D02*
X165454000Y-107024500D01*
X165454000Y-107024500D02*
X165304000Y-106874500D01*
X165704000Y-106774500D02*
X165004000Y-106774500D01*
X165354000Y-107124500D02*
X165354000Y-107474500D01*
X165354000Y-106774500D02*
X165704000Y-107124500D01*
X165704000Y-107124500D02*
X165004000Y-107124500D01*
X165004000Y-107124500D02*
X165354000Y-106774500D01*
D12*
G04 #@! TO.C,Q1*
X166299000Y-120271000D02*
X165369000Y-120271000D01*
X163139000Y-120271000D02*
X164069000Y-120271000D01*
X163139000Y-120271000D02*
X163139000Y-122431000D01*
X166299000Y-120271000D02*
X166299000Y-121731000D01*
D11*
G04 #@! TO.C,R2*
X163414000Y-126478000D02*
X162214000Y-126478000D01*
X162214000Y-124728000D02*
X163414000Y-124728000D01*
G04 #@! TO.C,R3*
X168261000Y-115160500D02*
X168261000Y-116360500D01*
X166511000Y-116360500D02*
X166511000Y-115160500D01*
G04 #@! TO.C,R4*
X160387000Y-112938000D02*
X160387000Y-114138000D01*
X158637000Y-114138000D02*
X158637000Y-112938000D01*
G04 #@! TO.C,SW1*
X173458000Y-116824000D02*
X174308000Y-116824000D01*
X173458000Y-114824000D02*
X174308000Y-114824000D01*
X174308000Y-116824000D02*
X174308000Y-114824000D01*
X173458000Y-116824000D02*
X173458000Y-114824000D01*
G04 #@! TO.C,U1*
X155458000Y-118514500D02*
X154458000Y-119514500D01*
X154458000Y-119514500D02*
X154458000Y-126214500D01*
X154458000Y-126214500D02*
X157708000Y-126214500D01*
X157708000Y-126214500D02*
X157708000Y-118514500D01*
X157708000Y-118514500D02*
X155458000Y-118514500D01*
D13*
G04 #@! TO.C,G\002A\002A\002A*
G36*
X160428817Y-115260756D02*
X160512837Y-115265724D01*
X160563316Y-115276507D01*
X160591693Y-115295154D01*
X160604618Y-115314145D01*
X160615288Y-115361640D01*
X160624158Y-115454200D01*
X160630512Y-115580455D01*
X160633634Y-115729035D01*
X160633834Y-115778211D01*
X160634267Y-115938468D01*
X160636443Y-116051796D01*
X160641680Y-116127711D01*
X160651292Y-116175728D01*
X160666597Y-116205362D01*
X160688911Y-116226127D01*
X160696558Y-116231622D01*
X160766088Y-116260355D01*
X160856278Y-116273587D01*
X160944948Y-116270731D01*
X161009914Y-116251199D01*
X161022977Y-116240278D01*
X161042545Y-116201345D01*
X161075277Y-116120012D01*
X161116878Y-116007553D01*
X161163052Y-115875244D01*
X161170834Y-115852223D01*
X161217286Y-115716192D01*
X161259416Y-115596530D01*
X161292975Y-115505055D01*
X161313712Y-115453587D01*
X161315450Y-115450056D01*
X161341184Y-115418408D01*
X161382291Y-115404769D01*
X161448341Y-115409730D01*
X161548901Y-115433884D01*
X161676350Y-115472372D01*
X161792723Y-115511816D01*
X161865021Y-115544512D01*
X161904116Y-115576614D01*
X161919935Y-115610217D01*
X161918126Y-115666136D01*
X161898471Y-115766686D01*
X161862862Y-115903619D01*
X161819167Y-116049778D01*
X161776524Y-116193250D01*
X161743387Y-116320132D01*
X161722438Y-116418968D01*
X161716362Y-116478298D01*
X161717270Y-116484841D01*
X161754666Y-116538620D01*
X161827946Y-116590225D01*
X161917267Y-116628524D01*
X161998220Y-116642445D01*
X162032840Y-116631471D01*
X162078264Y-116594753D01*
X162139734Y-116526601D01*
X162222493Y-116421322D01*
X162307234Y-116306979D01*
X162396992Y-116186853D01*
X162478328Y-116083333D01*
X162544144Y-116005064D01*
X162587344Y-115960686D01*
X162596850Y-115954302D01*
X162637921Y-115949229D01*
X162691367Y-115966026D01*
X162765885Y-116009228D01*
X162870175Y-116083367D01*
X162926889Y-116126310D01*
X163025339Y-116209553D01*
X163077518Y-116274250D01*
X163089167Y-116315041D01*
X163073240Y-116360538D01*
X163029391Y-116441385D01*
X162963514Y-116547741D01*
X162881505Y-116669764D01*
X162849278Y-116715479D01*
X162764147Y-116837226D01*
X162692314Y-116944717D01*
X162639664Y-117028771D01*
X162612084Y-117080205D01*
X162609389Y-117089688D01*
X162631061Y-117139820D01*
X162684914Y-117202944D01*
X162754206Y-117263899D01*
X162822194Y-117307528D01*
X162863513Y-117319778D01*
X162908309Y-117304057D01*
X162988407Y-117260906D01*
X163093642Y-117196348D01*
X163213853Y-117116403D01*
X163253934Y-117088477D01*
X163376239Y-117004857D01*
X163486139Y-116934472D01*
X163573664Y-116883363D01*
X163628848Y-116857569D01*
X163638175Y-116855643D01*
X163685589Y-116877437D01*
X163749769Y-116936152D01*
X163821018Y-117018847D01*
X163889644Y-117112586D01*
X163945951Y-117204429D01*
X163980245Y-117281439D01*
X163985942Y-117319778D01*
X163969870Y-117359681D01*
X163925787Y-117412300D01*
X163848226Y-117482853D01*
X163731721Y-117576557D01*
X163656405Y-117634291D01*
X163538915Y-117725064D01*
X163437074Y-117806929D01*
X163359780Y-117872492D01*
X163315930Y-117914363D01*
X163310227Y-117921877D01*
X163306602Y-117976653D01*
X163330333Y-118054939D01*
X163371822Y-118137581D01*
X163421471Y-118205422D01*
X163469219Y-118239194D01*
X163516647Y-118236232D01*
X163605496Y-118217941D01*
X163723766Y-118187214D01*
X163859454Y-118146944D01*
X163883187Y-118139422D01*
X164022616Y-118096543D01*
X164148436Y-118061020D01*
X164247951Y-118036222D01*
X164308465Y-118025516D01*
X164313197Y-118025334D01*
X164357357Y-118034478D01*
X164395245Y-118067123D01*
X164431174Y-118131088D01*
X164469456Y-118234193D01*
X164514403Y-118384257D01*
X164517795Y-118396309D01*
X164543324Y-118491005D01*
X164552586Y-118547280D01*
X164544915Y-118580961D01*
X164519641Y-118607875D01*
X164508487Y-118617028D01*
X164460734Y-118643248D01*
X164371175Y-118681706D01*
X164251818Y-118727604D01*
X164114669Y-118776142D01*
X164087302Y-118785363D01*
X163951880Y-118831694D01*
X163835419Y-118873576D01*
X163748639Y-118907004D01*
X163702259Y-118927971D01*
X163698335Y-118930700D01*
X163680137Y-118978577D01*
X163677234Y-119058724D01*
X163687884Y-119149602D01*
X163710343Y-119229671D01*
X163724808Y-119257939D01*
X163743617Y-119283237D01*
X163767616Y-119301025D01*
X163806140Y-119312625D01*
X163868522Y-119319356D01*
X163964095Y-119322541D01*
X164102192Y-119323499D01*
X164188468Y-119323556D01*
X164369239Y-119323983D01*
X164501234Y-119328662D01*
X164592119Y-119342688D01*
X164649556Y-119371157D01*
X164681210Y-119419164D01*
X164694744Y-119491803D01*
X164697822Y-119594172D01*
X164697834Y-119662223D01*
X164697191Y-119782413D01*
X164690153Y-119870174D01*
X164669058Y-119930602D01*
X164626240Y-119968791D01*
X164554037Y-119989837D01*
X164444784Y-119998835D01*
X164290819Y-120000881D01*
X164188468Y-120000889D01*
X164026057Y-120001237D01*
X163910755Y-120003163D01*
X163833231Y-120007987D01*
X163784151Y-120017029D01*
X163754181Y-120031611D01*
X163733988Y-120053054D01*
X163724808Y-120066506D01*
X163697298Y-120133733D01*
X163680762Y-120222111D01*
X163676942Y-120310097D01*
X163687581Y-120376153D01*
X163698335Y-120393745D01*
X163733446Y-120411133D01*
X163811525Y-120441940D01*
X163921852Y-120482162D01*
X164053709Y-120527792D01*
X164087302Y-120539082D01*
X164226494Y-120587578D01*
X164350198Y-120634355D01*
X164446410Y-120674614D01*
X164503122Y-120703556D01*
X164508487Y-120707417D01*
X164539189Y-120735393D01*
X164552089Y-120765372D01*
X164547854Y-120813182D01*
X164527151Y-120894647D01*
X164517795Y-120928136D01*
X164472240Y-121081662D01*
X164433643Y-121187699D01*
X164397691Y-121254068D01*
X164360072Y-121288587D01*
X164316473Y-121299075D01*
X164313197Y-121299111D01*
X164259311Y-121290701D01*
X164164604Y-121267715D01*
X164041774Y-121233522D01*
X163903515Y-121191490D01*
X163883187Y-121185023D01*
X163745745Y-121143429D01*
X163623698Y-121110891D01*
X163529049Y-121090301D01*
X163473797Y-121084552D01*
X163469219Y-121085251D01*
X163420942Y-121119590D01*
X163371329Y-121187685D01*
X163329976Y-121270381D01*
X163306482Y-121348520D01*
X163310227Y-121402568D01*
X163340709Y-121434722D01*
X163407653Y-121493075D01*
X163502163Y-121570238D01*
X163615341Y-121658817D01*
X163656405Y-121690154D01*
X163794639Y-121797522D01*
X163891171Y-121879107D01*
X163951466Y-121940125D01*
X163980991Y-121985793D01*
X163985942Y-122004667D01*
X163972973Y-122063461D01*
X163931163Y-122146203D01*
X163870205Y-122239953D01*
X163799794Y-122331775D01*
X163729625Y-122408728D01*
X163669392Y-122457876D01*
X163638175Y-122468802D01*
X163595684Y-122452562D01*
X163517604Y-122409039D01*
X163413901Y-122344273D01*
X163294544Y-122264303D01*
X163253934Y-122235968D01*
X163131071Y-122152362D01*
X163019923Y-122082211D01*
X162930652Y-122031535D01*
X162873421Y-122006356D01*
X162863513Y-122004667D01*
X162808144Y-122024289D01*
X162738427Y-122073049D01*
X162671105Y-122135787D01*
X162622919Y-122197346D01*
X162609389Y-122234757D01*
X162625084Y-122270291D01*
X162668243Y-122342180D01*
X162732981Y-122441242D01*
X162813412Y-122558297D01*
X162849278Y-122608966D01*
X162935638Y-122734212D01*
X163007981Y-122847322D01*
X163060412Y-122938453D01*
X163087035Y-122997765D01*
X163089167Y-123009404D01*
X163069465Y-123063573D01*
X163007179Y-123132001D01*
X162926889Y-123198135D01*
X162806975Y-123287110D01*
X162720605Y-123343180D01*
X162659083Y-123370879D01*
X162613710Y-123374740D01*
X162596850Y-123370143D01*
X162564939Y-123342108D01*
X162507511Y-123276648D01*
X162431661Y-123182406D01*
X162344488Y-123068024D01*
X162307234Y-123017466D01*
X162203744Y-122878507D01*
X162125724Y-122781214D01*
X162067930Y-122719893D01*
X162025120Y-122688854D01*
X161998220Y-122682000D01*
X161911933Y-122697603D01*
X161823006Y-122736991D01*
X161751284Y-122789031D01*
X161717270Y-122839604D01*
X161719762Y-122888842D01*
X161737709Y-122980074D01*
X161768429Y-123101840D01*
X161809236Y-123242684D01*
X161819167Y-123274667D01*
X161867413Y-123437095D01*
X161901392Y-123570500D01*
X161919213Y-123666634D01*
X161919935Y-123714228D01*
X161901482Y-123751082D01*
X161859649Y-123782973D01*
X161783561Y-123816053D01*
X161676350Y-123852073D01*
X161536686Y-123893949D01*
X161440117Y-123916101D01*
X161377074Y-123919122D01*
X161337990Y-123903603D01*
X161315450Y-123874389D01*
X161296997Y-123829923D01*
X161265085Y-123743682D01*
X161223967Y-123627485D01*
X161177892Y-123493152D01*
X161170834Y-123472223D01*
X161124318Y-123337716D01*
X161081664Y-123221194D01*
X161047167Y-123133932D01*
X161025125Y-123087205D01*
X161022977Y-123084167D01*
X160971593Y-123058641D01*
X160888719Y-123049998D01*
X160796535Y-123057649D01*
X160717225Y-123081007D01*
X160696558Y-123092823D01*
X160671582Y-123113300D01*
X160654292Y-123140220D01*
X160643280Y-123183360D01*
X160637139Y-123252494D01*
X160634460Y-123357400D01*
X160633837Y-123507852D01*
X160633834Y-123528430D01*
X160631819Y-123719379D01*
X160624750Y-123860729D01*
X160611088Y-123959214D01*
X160589295Y-124021572D01*
X160557833Y-124054536D01*
X160515164Y-124064842D01*
X160511316Y-124064889D01*
X160485896Y-124066260D01*
X160467429Y-124075838D01*
X160454309Y-124101823D01*
X160444931Y-124152415D01*
X160437688Y-124235812D01*
X160430975Y-124360216D01*
X160424264Y-124509389D01*
X160390319Y-125182054D01*
X160349351Y-125810486D01*
X160300309Y-126406582D01*
X160242141Y-126982236D01*
X160173797Y-127549344D01*
X160122330Y-127926661D01*
X160097815Y-128104437D01*
X160077526Y-128262904D01*
X160062401Y-128393725D01*
X160053378Y-128488564D01*
X160051398Y-128539085D01*
X160052689Y-128544930D01*
X160084149Y-128542380D01*
X160156534Y-128522828D01*
X160258162Y-128489726D01*
X160347105Y-128457880D01*
X160463663Y-128415276D01*
X160560053Y-128381229D01*
X160624371Y-128359871D01*
X160644338Y-128354667D01*
X160636860Y-128376485D01*
X160602795Y-128436088D01*
X160547463Y-128524701D01*
X160476185Y-128633549D01*
X160466277Y-128648352D01*
X160382740Y-128771375D01*
X160320759Y-128856218D01*
X160271106Y-128912013D01*
X160224557Y-128947893D01*
X160171885Y-128972989D01*
X160119924Y-128991180D01*
X160033581Y-129023707D01*
X159970340Y-129055092D01*
X159949877Y-129071440D01*
X159929394Y-129143197D01*
X159962266Y-129208112D01*
X160010624Y-129242467D01*
X160069650Y-129291294D01*
X160139431Y-129384147D01*
X160223286Y-129525524D01*
X160234528Y-129546103D01*
X160291831Y-129654131D01*
X160336155Y-129742229D01*
X160362290Y-129799747D01*
X160366768Y-129816473D01*
X160339245Y-129808796D01*
X160273317Y-129780427D01*
X160180731Y-129736579D01*
X160129380Y-129711117D01*
X160025875Y-129660307D01*
X159941218Y-129621038D01*
X159888136Y-129599110D01*
X159877799Y-129596445D01*
X159865950Y-129622891D01*
X159846163Y-129696823D01*
X159820260Y-129810134D01*
X159790061Y-129954715D01*
X159757388Y-130122458D01*
X159746274Y-130182056D01*
X159675631Y-130555604D01*
X159610956Y-130878064D01*
X159552452Y-131148576D01*
X159500321Y-131366281D01*
X159454765Y-131530320D01*
X159415986Y-131639832D01*
X159392779Y-131683874D01*
X159315829Y-131768003D01*
X159196854Y-131868448D01*
X159045660Y-131979187D01*
X158872059Y-132094199D01*
X158685859Y-132207459D01*
X158496870Y-132312946D01*
X158314900Y-132404638D01*
X158149760Y-132476511D01*
X158039322Y-132514830D01*
X157898858Y-132547785D01*
X157785045Y-132558110D01*
X157707182Y-132545556D01*
X157679930Y-132524500D01*
X157651668Y-132475919D01*
X157613869Y-132407151D01*
X157612478Y-132404556D01*
X157578876Y-132344115D01*
X157525213Y-132250131D01*
X157460128Y-132137664D01*
X157418199Y-132065889D01*
X157181203Y-131637826D01*
X156962167Y-131194682D01*
X156765304Y-130746851D01*
X156594829Y-130304725D01*
X156454959Y-129878698D01*
X156349906Y-129479165D01*
X156328270Y-129378222D01*
X156290777Y-129151288D01*
X156259974Y-128879489D01*
X156236075Y-128574031D01*
X156219296Y-128246121D01*
X156209851Y-127906965D01*
X156207953Y-127567769D01*
X156213818Y-127239740D01*
X156227660Y-126934084D01*
X156249693Y-126662008D01*
X156272797Y-126479699D01*
X156296045Y-126353065D01*
X156332720Y-126182923D01*
X156380101Y-125979850D01*
X156435464Y-125754420D01*
X156496086Y-125517212D01*
X156559244Y-125278801D01*
X156622216Y-125049762D01*
X156682278Y-124840674D01*
X156736707Y-124662111D01*
X156756454Y-124601111D01*
X156798629Y-124480081D01*
X156841895Y-124366544D01*
X156882813Y-124267913D01*
X156917945Y-124191606D01*
X156943851Y-124145036D01*
X156957092Y-124135620D01*
X156954232Y-124170773D01*
X156952765Y-124177778D01*
X156941709Y-124228705D01*
X156921083Y-124323665D01*
X156893304Y-124451532D01*
X156860788Y-124601181D01*
X156839339Y-124699889D01*
X156735397Y-125199937D01*
X156650964Y-125655976D01*
X156584947Y-126076545D01*
X156536249Y-126470183D01*
X156503774Y-126845429D01*
X156486428Y-127210824D01*
X156482686Y-127479778D01*
X156488343Y-127802223D01*
X156505976Y-128076322D01*
X156536389Y-128309056D01*
X156580382Y-128507409D01*
X156612461Y-128609516D01*
X156653206Y-128708528D01*
X156717379Y-128844764D01*
X156799086Y-129007217D01*
X156892437Y-129184879D01*
X156991538Y-129366742D01*
X157090499Y-129541797D01*
X157183428Y-129699037D01*
X157263998Y-129826800D01*
X157358315Y-129959220D01*
X157463907Y-130091549D01*
X157565362Y-130205070D01*
X157617227Y-130255816D01*
X157702702Y-130326292D01*
X157803887Y-130399439D01*
X157909817Y-130468637D01*
X158009528Y-130527267D01*
X158092054Y-130568709D01*
X158146430Y-130586346D01*
X158160246Y-130583623D01*
X158171824Y-130551333D01*
X158191431Y-130475380D01*
X158216794Y-130366667D01*
X158245642Y-130236092D01*
X158275703Y-130094558D01*
X158304706Y-129952964D01*
X158330378Y-129822210D01*
X158350448Y-129713198D01*
X158362645Y-129636827D01*
X158364696Y-129603998D01*
X158364472Y-129603676D01*
X158334072Y-129607197D01*
X158261362Y-129627014D01*
X158157010Y-129659937D01*
X158031680Y-129702774D01*
X158022756Y-129705934D01*
X157894713Y-129750626D01*
X157785449Y-129787361D01*
X157706231Y-129812451D01*
X157668326Y-129822203D01*
X157667775Y-129822223D01*
X157673708Y-129801862D01*
X157709775Y-129746331D01*
X157770135Y-129663953D01*
X157848946Y-129563051D01*
X157854502Y-129556132D01*
X157947635Y-129442029D01*
X158017696Y-129363124D01*
X158076100Y-129309932D01*
X158134263Y-129272970D01*
X158203598Y-129242750D01*
X158253583Y-129224521D01*
X158371979Y-129174818D01*
X158444132Y-129120994D01*
X158479845Y-129052196D01*
X158488945Y-128963888D01*
X158472915Y-128912584D01*
X158416969Y-128872494D01*
X158382493Y-128857636D01*
X158334443Y-128835006D01*
X158294373Y-128803316D01*
X158255012Y-128752679D01*
X158209088Y-128673211D01*
X158149329Y-128555024D01*
X158128493Y-128512345D01*
X158071247Y-128393654D01*
X158024354Y-128294626D01*
X157992643Y-128225586D01*
X157980945Y-128196861D01*
X157980945Y-128196844D01*
X158004409Y-128203856D01*
X158068146Y-128231969D01*
X158162167Y-128276593D01*
X158266128Y-128327930D01*
X158380398Y-128383882D01*
X158474914Y-128427534D01*
X158539183Y-128454215D01*
X158562495Y-128459857D01*
X158571530Y-128427109D01*
X158585918Y-128345994D01*
X158604570Y-128224223D01*
X158626396Y-128069503D01*
X158650308Y-127889544D01*
X158675217Y-127692056D01*
X158698967Y-127493889D01*
X158749604Y-127024278D01*
X158792804Y-126544142D01*
X158829209Y-126043865D01*
X158859458Y-125513828D01*
X158884193Y-124944415D01*
X158899640Y-124481343D01*
X158917778Y-123867685D01*
X158792103Y-123813815D01*
X158714654Y-123773718D01*
X158661514Y-123733447D01*
X158650151Y-123717529D01*
X158652489Y-123676724D01*
X158669863Y-123592950D01*
X158699657Y-123476852D01*
X158739256Y-123339076D01*
X158758966Y-123274794D01*
X158809020Y-123111202D01*
X158843682Y-122985811D01*
X158865722Y-122883379D01*
X158877911Y-122788663D01*
X158883021Y-122686423D01*
X158883873Y-122587737D01*
X158881738Y-122436631D01*
X158875905Y-122241806D01*
X158866992Y-122015824D01*
X158855618Y-121771244D01*
X158842400Y-121520628D01*
X158827958Y-121276535D01*
X158812909Y-121051528D01*
X158799913Y-120882371D01*
X158773481Y-120564409D01*
X158875828Y-120388482D01*
X159057696Y-120092804D01*
X159231248Y-119844770D01*
X159395269Y-119645661D01*
X159548546Y-119496761D01*
X159689867Y-119399350D01*
X159818017Y-119354710D01*
X159857037Y-119351778D01*
X159954386Y-119366002D01*
X160032193Y-119414046D01*
X160099754Y-119503969D01*
X160150338Y-119606130D01*
X160180463Y-119682605D01*
X160206650Y-119768525D01*
X160230035Y-119871020D01*
X160251757Y-119997220D01*
X160272956Y-120154255D01*
X160294769Y-120349254D01*
X160318335Y-120589348D01*
X160333153Y-120750935D01*
X160393945Y-121426111D01*
X160577389Y-121434765D01*
X160877373Y-121421433D01*
X161167228Y-121354831D01*
X161441296Y-121237959D01*
X161693919Y-121073815D01*
X161919440Y-120865396D01*
X162106540Y-120624389D01*
X162214625Y-120441528D01*
X162290595Y-120265530D01*
X162338800Y-120080482D01*
X162363590Y-119870466D01*
X162369500Y-119662223D01*
X162361077Y-119418781D01*
X162332906Y-119213728D01*
X162280638Y-119031149D01*
X162199924Y-118855128D01*
X162106540Y-118700056D01*
X161908137Y-118445924D01*
X161677421Y-118236876D01*
X161418144Y-118074576D01*
X161134062Y-117960690D01*
X160828929Y-117896885D01*
X160506498Y-117884825D01*
X160309398Y-117902693D01*
X160174640Y-117921164D01*
X160194959Y-118524868D01*
X160201339Y-118740551D01*
X160204051Y-118905622D01*
X160202972Y-119025798D01*
X160197981Y-119106801D01*
X160188954Y-119154350D01*
X160181211Y-119169620D01*
X160141420Y-119184464D01*
X160056407Y-119196376D01*
X159937149Y-119205300D01*
X159794623Y-119211180D01*
X159639806Y-119213958D01*
X159483674Y-119213578D01*
X159337206Y-119209984D01*
X159211377Y-119203120D01*
X159117166Y-119192928D01*
X159065548Y-119179353D01*
X159060558Y-119175389D01*
X159052391Y-119138346D01*
X159043875Y-119051498D01*
X159035377Y-118921480D01*
X159027266Y-118754927D01*
X159019910Y-118558475D01*
X159013674Y-118338758D01*
X159013265Y-118321667D01*
X159001166Y-117891041D01*
X158986509Y-117515169D01*
X158969315Y-117194398D01*
X158949605Y-116929076D01*
X158927401Y-116719548D01*
X158909938Y-116603752D01*
X158890369Y-116515034D01*
X158857499Y-116388069D01*
X158815534Y-116238269D01*
X158768681Y-116081048D01*
X158757105Y-116043695D01*
X158714405Y-115900852D01*
X158680417Y-115775053D01*
X158657771Y-115677041D01*
X158649099Y-115617561D01*
X158650151Y-115606916D01*
X158690563Y-115565539D01*
X158776513Y-115518928D01*
X158897947Y-115471626D01*
X159044810Y-115428175D01*
X159046901Y-115427641D01*
X159136969Y-115407368D01*
X159190692Y-115404896D01*
X159225379Y-115420509D01*
X159236675Y-115430747D01*
X159260070Y-115471169D01*
X159296630Y-115554551D01*
X159342036Y-115670184D01*
X159391968Y-115807361D01*
X159412497Y-115866616D01*
X159547278Y-116261445D01*
X159712450Y-116260598D01*
X159798338Y-116257981D01*
X159861284Y-116246072D01*
X159904848Y-116217272D01*
X159932589Y-116163982D01*
X159948068Y-116078600D01*
X159954844Y-115953528D01*
X159956477Y-115781165D01*
X159956500Y-115739584D01*
X159958621Y-115549924D01*
X159965119Y-115413881D01*
X159976196Y-115328782D01*
X159990367Y-115293423D01*
X160038713Y-115275431D01*
X160138380Y-115263977D01*
X160284566Y-115259587D01*
X160299818Y-115259556D01*
X160428817Y-115260756D01*
X160428817Y-115260756D01*
G37*
X160428817Y-115260756D02*
X160512837Y-115265724D01*
X160563316Y-115276507D01*
X160591693Y-115295154D01*
X160604618Y-115314145D01*
X160615288Y-115361640D01*
X160624158Y-115454200D01*
X160630512Y-115580455D01*
X160633634Y-115729035D01*
X160633834Y-115778211D01*
X160634267Y-115938468D01*
X160636443Y-116051796D01*
X160641680Y-116127711D01*
X160651292Y-116175728D01*
X160666597Y-116205362D01*
X160688911Y-116226127D01*
X160696558Y-116231622D01*
X160766088Y-116260355D01*
X160856278Y-116273587D01*
X160944948Y-116270731D01*
X161009914Y-116251199D01*
X161022977Y-116240278D01*
X161042545Y-116201345D01*
X161075277Y-116120012D01*
X161116878Y-116007553D01*
X161163052Y-115875244D01*
X161170834Y-115852223D01*
X161217286Y-115716192D01*
X161259416Y-115596530D01*
X161292975Y-115505055D01*
X161313712Y-115453587D01*
X161315450Y-115450056D01*
X161341184Y-115418408D01*
X161382291Y-115404769D01*
X161448341Y-115409730D01*
X161548901Y-115433884D01*
X161676350Y-115472372D01*
X161792723Y-115511816D01*
X161865021Y-115544512D01*
X161904116Y-115576614D01*
X161919935Y-115610217D01*
X161918126Y-115666136D01*
X161898471Y-115766686D01*
X161862862Y-115903619D01*
X161819167Y-116049778D01*
X161776524Y-116193250D01*
X161743387Y-116320132D01*
X161722438Y-116418968D01*
X161716362Y-116478298D01*
X161717270Y-116484841D01*
X161754666Y-116538620D01*
X161827946Y-116590225D01*
X161917267Y-116628524D01*
X161998220Y-116642445D01*
X162032840Y-116631471D01*
X162078264Y-116594753D01*
X162139734Y-116526601D01*
X162222493Y-116421322D01*
X162307234Y-116306979D01*
X162396992Y-116186853D01*
X162478328Y-116083333D01*
X162544144Y-116005064D01*
X162587344Y-115960686D01*
X162596850Y-115954302D01*
X162637921Y-115949229D01*
X162691367Y-115966026D01*
X162765885Y-116009228D01*
X162870175Y-116083367D01*
X162926889Y-116126310D01*
X163025339Y-116209553D01*
X163077518Y-116274250D01*
X163089167Y-116315041D01*
X163073240Y-116360538D01*
X163029391Y-116441385D01*
X162963514Y-116547741D01*
X162881505Y-116669764D01*
X162849278Y-116715479D01*
X162764147Y-116837226D01*
X162692314Y-116944717D01*
X162639664Y-117028771D01*
X162612084Y-117080205D01*
X162609389Y-117089688D01*
X162631061Y-117139820D01*
X162684914Y-117202944D01*
X162754206Y-117263899D01*
X162822194Y-117307528D01*
X162863513Y-117319778D01*
X162908309Y-117304057D01*
X162988407Y-117260906D01*
X163093642Y-117196348D01*
X163213853Y-117116403D01*
X163253934Y-117088477D01*
X163376239Y-117004857D01*
X163486139Y-116934472D01*
X163573664Y-116883363D01*
X163628848Y-116857569D01*
X163638175Y-116855643D01*
X163685589Y-116877437D01*
X163749769Y-116936152D01*
X163821018Y-117018847D01*
X163889644Y-117112586D01*
X163945951Y-117204429D01*
X163980245Y-117281439D01*
X163985942Y-117319778D01*
X163969870Y-117359681D01*
X163925787Y-117412300D01*
X163848226Y-117482853D01*
X163731721Y-117576557D01*
X163656405Y-117634291D01*
X163538915Y-117725064D01*
X163437074Y-117806929D01*
X163359780Y-117872492D01*
X163315930Y-117914363D01*
X163310227Y-117921877D01*
X163306602Y-117976653D01*
X163330333Y-118054939D01*
X163371822Y-118137581D01*
X163421471Y-118205422D01*
X163469219Y-118239194D01*
X163516647Y-118236232D01*
X163605496Y-118217941D01*
X163723766Y-118187214D01*
X163859454Y-118146944D01*
X163883187Y-118139422D01*
X164022616Y-118096543D01*
X164148436Y-118061020D01*
X164247951Y-118036222D01*
X164308465Y-118025516D01*
X164313197Y-118025334D01*
X164357357Y-118034478D01*
X164395245Y-118067123D01*
X164431174Y-118131088D01*
X164469456Y-118234193D01*
X164514403Y-118384257D01*
X164517795Y-118396309D01*
X164543324Y-118491005D01*
X164552586Y-118547280D01*
X164544915Y-118580961D01*
X164519641Y-118607875D01*
X164508487Y-118617028D01*
X164460734Y-118643248D01*
X164371175Y-118681706D01*
X164251818Y-118727604D01*
X164114669Y-118776142D01*
X164087302Y-118785363D01*
X163951880Y-118831694D01*
X163835419Y-118873576D01*
X163748639Y-118907004D01*
X163702259Y-118927971D01*
X163698335Y-118930700D01*
X163680137Y-118978577D01*
X163677234Y-119058724D01*
X163687884Y-119149602D01*
X163710343Y-119229671D01*
X163724808Y-119257939D01*
X163743617Y-119283237D01*
X163767616Y-119301025D01*
X163806140Y-119312625D01*
X163868522Y-119319356D01*
X163964095Y-119322541D01*
X164102192Y-119323499D01*
X164188468Y-119323556D01*
X164369239Y-119323983D01*
X164501234Y-119328662D01*
X164592119Y-119342688D01*
X164649556Y-119371157D01*
X164681210Y-119419164D01*
X164694744Y-119491803D01*
X164697822Y-119594172D01*
X164697834Y-119662223D01*
X164697191Y-119782413D01*
X164690153Y-119870174D01*
X164669058Y-119930602D01*
X164626240Y-119968791D01*
X164554037Y-119989837D01*
X164444784Y-119998835D01*
X164290819Y-120000881D01*
X164188468Y-120000889D01*
X164026057Y-120001237D01*
X163910755Y-120003163D01*
X163833231Y-120007987D01*
X163784151Y-120017029D01*
X163754181Y-120031611D01*
X163733988Y-120053054D01*
X163724808Y-120066506D01*
X163697298Y-120133733D01*
X163680762Y-120222111D01*
X163676942Y-120310097D01*
X163687581Y-120376153D01*
X163698335Y-120393745D01*
X163733446Y-120411133D01*
X163811525Y-120441940D01*
X163921852Y-120482162D01*
X164053709Y-120527792D01*
X164087302Y-120539082D01*
X164226494Y-120587578D01*
X164350198Y-120634355D01*
X164446410Y-120674614D01*
X164503122Y-120703556D01*
X164508487Y-120707417D01*
X164539189Y-120735393D01*
X164552089Y-120765372D01*
X164547854Y-120813182D01*
X164527151Y-120894647D01*
X164517795Y-120928136D01*
X164472240Y-121081662D01*
X164433643Y-121187699D01*
X164397691Y-121254068D01*
X164360072Y-121288587D01*
X164316473Y-121299075D01*
X164313197Y-121299111D01*
X164259311Y-121290701D01*
X164164604Y-121267715D01*
X164041774Y-121233522D01*
X163903515Y-121191490D01*
X163883187Y-121185023D01*
X163745745Y-121143429D01*
X163623698Y-121110891D01*
X163529049Y-121090301D01*
X163473797Y-121084552D01*
X163469219Y-121085251D01*
X163420942Y-121119590D01*
X163371329Y-121187685D01*
X163329976Y-121270381D01*
X163306482Y-121348520D01*
X163310227Y-121402568D01*
X163340709Y-121434722D01*
X163407653Y-121493075D01*
X163502163Y-121570238D01*
X163615341Y-121658817D01*
X163656405Y-121690154D01*
X163794639Y-121797522D01*
X163891171Y-121879107D01*
X163951466Y-121940125D01*
X163980991Y-121985793D01*
X163985942Y-122004667D01*
X163972973Y-122063461D01*
X163931163Y-122146203D01*
X163870205Y-122239953D01*
X163799794Y-122331775D01*
X163729625Y-122408728D01*
X163669392Y-122457876D01*
X163638175Y-122468802D01*
X163595684Y-122452562D01*
X163517604Y-122409039D01*
X163413901Y-122344273D01*
X163294544Y-122264303D01*
X163253934Y-122235968D01*
X163131071Y-122152362D01*
X163019923Y-122082211D01*
X162930652Y-122031535D01*
X162873421Y-122006356D01*
X162863513Y-122004667D01*
X162808144Y-122024289D01*
X162738427Y-122073049D01*
X162671105Y-122135787D01*
X162622919Y-122197346D01*
X162609389Y-122234757D01*
X162625084Y-122270291D01*
X162668243Y-122342180D01*
X162732981Y-122441242D01*
X162813412Y-122558297D01*
X162849278Y-122608966D01*
X162935638Y-122734212D01*
X163007981Y-122847322D01*
X163060412Y-122938453D01*
X163087035Y-122997765D01*
X163089167Y-123009404D01*
X163069465Y-123063573D01*
X163007179Y-123132001D01*
X162926889Y-123198135D01*
X162806975Y-123287110D01*
X162720605Y-123343180D01*
X162659083Y-123370879D01*
X162613710Y-123374740D01*
X162596850Y-123370143D01*
X162564939Y-123342108D01*
X162507511Y-123276648D01*
X162431661Y-123182406D01*
X162344488Y-123068024D01*
X162307234Y-123017466D01*
X162203744Y-122878507D01*
X162125724Y-122781214D01*
X162067930Y-122719893D01*
X162025120Y-122688854D01*
X161998220Y-122682000D01*
X161911933Y-122697603D01*
X161823006Y-122736991D01*
X161751284Y-122789031D01*
X161717270Y-122839604D01*
X161719762Y-122888842D01*
X161737709Y-122980074D01*
X161768429Y-123101840D01*
X161809236Y-123242684D01*
X161819167Y-123274667D01*
X161867413Y-123437095D01*
X161901392Y-123570500D01*
X161919213Y-123666634D01*
X161919935Y-123714228D01*
X161901482Y-123751082D01*
X161859649Y-123782973D01*
X161783561Y-123816053D01*
X161676350Y-123852073D01*
X161536686Y-123893949D01*
X161440117Y-123916101D01*
X161377074Y-123919122D01*
X161337990Y-123903603D01*
X161315450Y-123874389D01*
X161296997Y-123829923D01*
X161265085Y-123743682D01*
X161223967Y-123627485D01*
X161177892Y-123493152D01*
X161170834Y-123472223D01*
X161124318Y-123337716D01*
X161081664Y-123221194D01*
X161047167Y-123133932D01*
X161025125Y-123087205D01*
X161022977Y-123084167D01*
X160971593Y-123058641D01*
X160888719Y-123049998D01*
X160796535Y-123057649D01*
X160717225Y-123081007D01*
X160696558Y-123092823D01*
X160671582Y-123113300D01*
X160654292Y-123140220D01*
X160643280Y-123183360D01*
X160637139Y-123252494D01*
X160634460Y-123357400D01*
X160633837Y-123507852D01*
X160633834Y-123528430D01*
X160631819Y-123719379D01*
X160624750Y-123860729D01*
X160611088Y-123959214D01*
X160589295Y-124021572D01*
X160557833Y-124054536D01*
X160515164Y-124064842D01*
X160511316Y-124064889D01*
X160485896Y-124066260D01*
X160467429Y-124075838D01*
X160454309Y-124101823D01*
X160444931Y-124152415D01*
X160437688Y-124235812D01*
X160430975Y-124360216D01*
X160424264Y-124509389D01*
X160390319Y-125182054D01*
X160349351Y-125810486D01*
X160300309Y-126406582D01*
X160242141Y-126982236D01*
X160173797Y-127549344D01*
X160122330Y-127926661D01*
X160097815Y-128104437D01*
X160077526Y-128262904D01*
X160062401Y-128393725D01*
X160053378Y-128488564D01*
X160051398Y-128539085D01*
X160052689Y-128544930D01*
X160084149Y-128542380D01*
X160156534Y-128522828D01*
X160258162Y-128489726D01*
X160347105Y-128457880D01*
X160463663Y-128415276D01*
X160560053Y-128381229D01*
X160624371Y-128359871D01*
X160644338Y-128354667D01*
X160636860Y-128376485D01*
X160602795Y-128436088D01*
X160547463Y-128524701D01*
X160476185Y-128633549D01*
X160466277Y-128648352D01*
X160382740Y-128771375D01*
X160320759Y-128856218D01*
X160271106Y-128912013D01*
X160224557Y-128947893D01*
X160171885Y-128972989D01*
X160119924Y-128991180D01*
X160033581Y-129023707D01*
X159970340Y-129055092D01*
X159949877Y-129071440D01*
X159929394Y-129143197D01*
X159962266Y-129208112D01*
X160010624Y-129242467D01*
X160069650Y-129291294D01*
X160139431Y-129384147D01*
X160223286Y-129525524D01*
X160234528Y-129546103D01*
X160291831Y-129654131D01*
X160336155Y-129742229D01*
X160362290Y-129799747D01*
X160366768Y-129816473D01*
X160339245Y-129808796D01*
X160273317Y-129780427D01*
X160180731Y-129736579D01*
X160129380Y-129711117D01*
X160025875Y-129660307D01*
X159941218Y-129621038D01*
X159888136Y-129599110D01*
X159877799Y-129596445D01*
X159865950Y-129622891D01*
X159846163Y-129696823D01*
X159820260Y-129810134D01*
X159790061Y-129954715D01*
X159757388Y-130122458D01*
X159746274Y-130182056D01*
X159675631Y-130555604D01*
X159610956Y-130878064D01*
X159552452Y-131148576D01*
X159500321Y-131366281D01*
X159454765Y-131530320D01*
X159415986Y-131639832D01*
X159392779Y-131683874D01*
X159315829Y-131768003D01*
X159196854Y-131868448D01*
X159045660Y-131979187D01*
X158872059Y-132094199D01*
X158685859Y-132207459D01*
X158496870Y-132312946D01*
X158314900Y-132404638D01*
X158149760Y-132476511D01*
X158039322Y-132514830D01*
X157898858Y-132547785D01*
X157785045Y-132558110D01*
X157707182Y-132545556D01*
X157679930Y-132524500D01*
X157651668Y-132475919D01*
X157613869Y-132407151D01*
X157612478Y-132404556D01*
X157578876Y-132344115D01*
X157525213Y-132250131D01*
X157460128Y-132137664D01*
X157418199Y-132065889D01*
X157181203Y-131637826D01*
X156962167Y-131194682D01*
X156765304Y-130746851D01*
X156594829Y-130304725D01*
X156454959Y-129878698D01*
X156349906Y-129479165D01*
X156328270Y-129378222D01*
X156290777Y-129151288D01*
X156259974Y-128879489D01*
X156236075Y-128574031D01*
X156219296Y-128246121D01*
X156209851Y-127906965D01*
X156207953Y-127567769D01*
X156213818Y-127239740D01*
X156227660Y-126934084D01*
X156249693Y-126662008D01*
X156272797Y-126479699D01*
X156296045Y-126353065D01*
X156332720Y-126182923D01*
X156380101Y-125979850D01*
X156435464Y-125754420D01*
X156496086Y-125517212D01*
X156559244Y-125278801D01*
X156622216Y-125049762D01*
X156682278Y-124840674D01*
X156736707Y-124662111D01*
X156756454Y-124601111D01*
X156798629Y-124480081D01*
X156841895Y-124366544D01*
X156882813Y-124267913D01*
X156917945Y-124191606D01*
X156943851Y-124145036D01*
X156957092Y-124135620D01*
X156954232Y-124170773D01*
X156952765Y-124177778D01*
X156941709Y-124228705D01*
X156921083Y-124323665D01*
X156893304Y-124451532D01*
X156860788Y-124601181D01*
X156839339Y-124699889D01*
X156735397Y-125199937D01*
X156650964Y-125655976D01*
X156584947Y-126076545D01*
X156536249Y-126470183D01*
X156503774Y-126845429D01*
X156486428Y-127210824D01*
X156482686Y-127479778D01*
X156488343Y-127802223D01*
X156505976Y-128076322D01*
X156536389Y-128309056D01*
X156580382Y-128507409D01*
X156612461Y-128609516D01*
X156653206Y-128708528D01*
X156717379Y-128844764D01*
X156799086Y-129007217D01*
X156892437Y-129184879D01*
X156991538Y-129366742D01*
X157090499Y-129541797D01*
X157183428Y-129699037D01*
X157263998Y-129826800D01*
X157358315Y-129959220D01*
X157463907Y-130091549D01*
X157565362Y-130205070D01*
X157617227Y-130255816D01*
X157702702Y-130326292D01*
X157803887Y-130399439D01*
X157909817Y-130468637D01*
X158009528Y-130527267D01*
X158092054Y-130568709D01*
X158146430Y-130586346D01*
X158160246Y-130583623D01*
X158171824Y-130551333D01*
X158191431Y-130475380D01*
X158216794Y-130366667D01*
X158245642Y-130236092D01*
X158275703Y-130094558D01*
X158304706Y-129952964D01*
X158330378Y-129822210D01*
X158350448Y-129713198D01*
X158362645Y-129636827D01*
X158364696Y-129603998D01*
X158364472Y-129603676D01*
X158334072Y-129607197D01*
X158261362Y-129627014D01*
X158157010Y-129659937D01*
X158031680Y-129702774D01*
X158022756Y-129705934D01*
X157894713Y-129750626D01*
X157785449Y-129787361D01*
X157706231Y-129812451D01*
X157668326Y-129822203D01*
X157667775Y-129822223D01*
X157673708Y-129801862D01*
X157709775Y-129746331D01*
X157770135Y-129663953D01*
X157848946Y-129563051D01*
X157854502Y-129556132D01*
X157947635Y-129442029D01*
X158017696Y-129363124D01*
X158076100Y-129309932D01*
X158134263Y-129272970D01*
X158203598Y-129242750D01*
X158253583Y-129224521D01*
X158371979Y-129174818D01*
X158444132Y-129120994D01*
X158479845Y-129052196D01*
X158488945Y-128963888D01*
X158472915Y-128912584D01*
X158416969Y-128872494D01*
X158382493Y-128857636D01*
X158334443Y-128835006D01*
X158294373Y-128803316D01*
X158255012Y-128752679D01*
X158209088Y-128673211D01*
X158149329Y-128555024D01*
X158128493Y-128512345D01*
X158071247Y-128393654D01*
X158024354Y-128294626D01*
X157992643Y-128225586D01*
X157980945Y-128196861D01*
X157980945Y-128196844D01*
X158004409Y-128203856D01*
X158068146Y-128231969D01*
X158162167Y-128276593D01*
X158266128Y-128327930D01*
X158380398Y-128383882D01*
X158474914Y-128427534D01*
X158539183Y-128454215D01*
X158562495Y-128459857D01*
X158571530Y-128427109D01*
X158585918Y-128345994D01*
X158604570Y-128224223D01*
X158626396Y-128069503D01*
X158650308Y-127889544D01*
X158675217Y-127692056D01*
X158698967Y-127493889D01*
X158749604Y-127024278D01*
X158792804Y-126544142D01*
X158829209Y-126043865D01*
X158859458Y-125513828D01*
X158884193Y-124944415D01*
X158899640Y-124481343D01*
X158917778Y-123867685D01*
X158792103Y-123813815D01*
X158714654Y-123773718D01*
X158661514Y-123733447D01*
X158650151Y-123717529D01*
X158652489Y-123676724D01*
X158669863Y-123592950D01*
X158699657Y-123476852D01*
X158739256Y-123339076D01*
X158758966Y-123274794D01*
X158809020Y-123111202D01*
X158843682Y-122985811D01*
X158865722Y-122883379D01*
X158877911Y-122788663D01*
X158883021Y-122686423D01*
X158883873Y-122587737D01*
X158881738Y-122436631D01*
X158875905Y-122241806D01*
X158866992Y-122015824D01*
X158855618Y-121771244D01*
X158842400Y-121520628D01*
X158827958Y-121276535D01*
X158812909Y-121051528D01*
X158799913Y-120882371D01*
X158773481Y-120564409D01*
X158875828Y-120388482D01*
X159057696Y-120092804D01*
X159231248Y-119844770D01*
X159395269Y-119645661D01*
X159548546Y-119496761D01*
X159689867Y-119399350D01*
X159818017Y-119354710D01*
X159857037Y-119351778D01*
X159954386Y-119366002D01*
X160032193Y-119414046D01*
X160099754Y-119503969D01*
X160150338Y-119606130D01*
X160180463Y-119682605D01*
X160206650Y-119768525D01*
X160230035Y-119871020D01*
X160251757Y-119997220D01*
X160272956Y-120154255D01*
X160294769Y-120349254D01*
X160318335Y-120589348D01*
X160333153Y-120750935D01*
X160393945Y-121426111D01*
X160577389Y-121434765D01*
X160877373Y-121421433D01*
X161167228Y-121354831D01*
X161441296Y-121237959D01*
X161693919Y-121073815D01*
X161919440Y-120865396D01*
X162106540Y-120624389D01*
X162214625Y-120441528D01*
X162290595Y-120265530D01*
X162338800Y-120080482D01*
X162363590Y-119870466D01*
X162369500Y-119662223D01*
X162361077Y-119418781D01*
X162332906Y-119213728D01*
X162280638Y-119031149D01*
X162199924Y-118855128D01*
X162106540Y-118700056D01*
X161908137Y-118445924D01*
X161677421Y-118236876D01*
X161418144Y-118074576D01*
X161134062Y-117960690D01*
X160828929Y-117896885D01*
X160506498Y-117884825D01*
X160309398Y-117902693D01*
X160174640Y-117921164D01*
X160194959Y-118524868D01*
X160201339Y-118740551D01*
X160204051Y-118905622D01*
X160202972Y-119025798D01*
X160197981Y-119106801D01*
X160188954Y-119154350D01*
X160181211Y-119169620D01*
X160141420Y-119184464D01*
X160056407Y-119196376D01*
X159937149Y-119205300D01*
X159794623Y-119211180D01*
X159639806Y-119213958D01*
X159483674Y-119213578D01*
X159337206Y-119209984D01*
X159211377Y-119203120D01*
X159117166Y-119192928D01*
X159065548Y-119179353D01*
X159060558Y-119175389D01*
X159052391Y-119138346D01*
X159043875Y-119051498D01*
X159035377Y-118921480D01*
X159027266Y-118754927D01*
X159019910Y-118558475D01*
X159013674Y-118338758D01*
X159013265Y-118321667D01*
X159001166Y-117891041D01*
X158986509Y-117515169D01*
X158969315Y-117194398D01*
X158949605Y-116929076D01*
X158927401Y-116719548D01*
X158909938Y-116603752D01*
X158890369Y-116515034D01*
X158857499Y-116388069D01*
X158815534Y-116238269D01*
X158768681Y-116081048D01*
X158757105Y-116043695D01*
X158714405Y-115900852D01*
X158680417Y-115775053D01*
X158657771Y-115677041D01*
X158649099Y-115617561D01*
X158650151Y-115606916D01*
X158690563Y-115565539D01*
X158776513Y-115518928D01*
X158897947Y-115471626D01*
X159044810Y-115428175D01*
X159046901Y-115427641D01*
X159136969Y-115407368D01*
X159190692Y-115404896D01*
X159225379Y-115420509D01*
X159236675Y-115430747D01*
X159260070Y-115471169D01*
X159296630Y-115554551D01*
X159342036Y-115670184D01*
X159391968Y-115807361D01*
X159412497Y-115866616D01*
X159547278Y-116261445D01*
X159712450Y-116260598D01*
X159798338Y-116257981D01*
X159861284Y-116246072D01*
X159904848Y-116217272D01*
X159932589Y-116163982D01*
X159948068Y-116078600D01*
X159954844Y-115953528D01*
X159956477Y-115781165D01*
X159956500Y-115739584D01*
X159958621Y-115549924D01*
X159965119Y-115413881D01*
X159976196Y-115328782D01*
X159990367Y-115293423D01*
X160038713Y-115275431D01*
X160138380Y-115263977D01*
X160284566Y-115259587D01*
X160299818Y-115259556D01*
X160428817Y-115260756D01*
D14*
G04 #@! TO.C,D2*
X169926000Y-106095800D02*
X169926000Y-104825800D01*
X170561000Y-105079800D02*
X169291000Y-105079800D01*
X169926000Y-105079800D02*
X170561000Y-105841800D01*
X169926000Y-105079800D02*
X170434000Y-105841800D01*
X169926000Y-105079800D02*
X170307000Y-105841800D01*
X169926000Y-105079800D02*
X170180000Y-105841800D01*
X169926000Y-105079800D02*
X170053000Y-105841800D01*
X169926000Y-105079800D02*
X169291000Y-105841800D01*
X169926000Y-105079800D02*
X169418000Y-105841800D01*
X169926000Y-105079800D02*
X169545000Y-105841800D01*
X169926000Y-105079800D02*
X169672000Y-105841800D01*
X169926000Y-105079800D02*
X169799000Y-105841800D01*
X170561000Y-105841800D02*
X169291000Y-105841800D01*
X168325800Y-106476800D02*
X168325800Y-110439200D01*
X168325800Y-110439200D02*
X168488360Y-110439200D01*
X171526200Y-110439200D02*
X171526200Y-106476800D01*
X171526200Y-106476800D02*
X171363640Y-106476800D01*
X168488360Y-106476800D02*
X168325800Y-106476800D01*
X171363640Y-110439200D02*
X171526200Y-110439200D01*
G04 #@! TO.C,R1*
D11*
X161932880Y-114466666D02*
X161456690Y-114800000D01*
X161932880Y-115038095D02*
X160932880Y-115038095D01*
X160932880Y-114657142D01*
X160980500Y-114561904D01*
X161028119Y-114514285D01*
X161123357Y-114466666D01*
X161266214Y-114466666D01*
X161361452Y-114514285D01*
X161409071Y-114561904D01*
X161456690Y-114657142D01*
X161456690Y-115038095D01*
X161932880Y-113514285D02*
X161932880Y-114085714D01*
X161932880Y-113800000D02*
X160932880Y-113800000D01*
X161075738Y-113895238D01*
X161170976Y-113990476D01*
X161218595Y-114085714D01*
G04 #@! TO.C,CON1*
X153789214Y-106529142D02*
X153741595Y-106576761D01*
X153598738Y-106624380D01*
X153503500Y-106624380D01*
X153360642Y-106576761D01*
X153265404Y-106481523D01*
X153217785Y-106386285D01*
X153170166Y-106195809D01*
X153170166Y-106052952D01*
X153217785Y-105862476D01*
X153265404Y-105767238D01*
X153360642Y-105672000D01*
X153503500Y-105624380D01*
X153598738Y-105624380D01*
X153741595Y-105672000D01*
X153789214Y-105719619D01*
X154408261Y-105624380D02*
X154598738Y-105624380D01*
X154693976Y-105672000D01*
X154789214Y-105767238D01*
X154836833Y-105957714D01*
X154836833Y-106291047D01*
X154789214Y-106481523D01*
X154693976Y-106576761D01*
X154598738Y-106624380D01*
X154408261Y-106624380D01*
X154313023Y-106576761D01*
X154217785Y-106481523D01*
X154170166Y-106291047D01*
X154170166Y-105957714D01*
X154217785Y-105767238D01*
X154313023Y-105672000D01*
X154408261Y-105624380D01*
X155265404Y-106624380D02*
X155265404Y-105624380D01*
X155836833Y-106624380D01*
X155836833Y-105624380D01*
X156836833Y-106624380D02*
X156265404Y-106624380D01*
X156551119Y-106624380D02*
X156551119Y-105624380D01*
X156455880Y-105767238D01*
X156360642Y-105862476D01*
X156265404Y-105910095D01*
G04 #@! TO.C,Y1*
X155606809Y-130881190D02*
X155606809Y-131357380D01*
X155273476Y-130357380D02*
X155606809Y-130881190D01*
X155940142Y-130357380D01*
X156797285Y-131357380D02*
X156225857Y-131357380D01*
X156511571Y-131357380D02*
X156511571Y-130357380D01*
X156416333Y-130500238D01*
X156321095Y-130595476D01*
X156225857Y-130643095D01*
G04 #@! TO.C,C2*
X154646333Y-118154142D02*
X154598714Y-118201761D01*
X154455857Y-118249380D01*
X154360619Y-118249380D01*
X154217761Y-118201761D01*
X154122523Y-118106523D01*
X154074904Y-118011285D01*
X154027285Y-117820809D01*
X154027285Y-117677952D01*
X154074904Y-117487476D01*
X154122523Y-117392238D01*
X154217761Y-117297000D01*
X154360619Y-117249380D01*
X154455857Y-117249380D01*
X154598714Y-117297000D01*
X154646333Y-117344619D01*
X155027285Y-117344619D02*
X155074904Y-117297000D01*
X155170142Y-117249380D01*
X155408238Y-117249380D01*
X155503476Y-117297000D01*
X155551095Y-117344619D01*
X155598714Y-117439857D01*
X155598714Y-117535095D01*
X155551095Y-117677952D01*
X154979666Y-118249380D01*
X155598714Y-118249380D01*
G04 #@! TO.C,D1*
X167556380Y-107862595D02*
X166556380Y-107862595D01*
X166556380Y-107624500D01*
X166604000Y-107481642D01*
X166699238Y-107386404D01*
X166794476Y-107338785D01*
X166984952Y-107291166D01*
X167127809Y-107291166D01*
X167318285Y-107338785D01*
X167413523Y-107386404D01*
X167508761Y-107481642D01*
X167556380Y-107624500D01*
X167556380Y-107862595D01*
X167556380Y-106338785D02*
X167556380Y-106910214D01*
X167556380Y-106624500D02*
X166556380Y-106624500D01*
X166699238Y-106719738D01*
X166794476Y-106814976D01*
X166842095Y-106910214D01*
G04 #@! TO.C,Q1*
X167743119Y-120872238D02*
X167695500Y-120967476D01*
X167600261Y-121062714D01*
X167457404Y-121205571D01*
X167409785Y-121300809D01*
X167409785Y-121396047D01*
X167647880Y-121348428D02*
X167600261Y-121443666D01*
X167505023Y-121538904D01*
X167314547Y-121586523D01*
X166981214Y-121586523D01*
X166790738Y-121538904D01*
X166695500Y-121443666D01*
X166647880Y-121348428D01*
X166647880Y-121157952D01*
X166695500Y-121062714D01*
X166790738Y-120967476D01*
X166981214Y-120919857D01*
X167314547Y-120919857D01*
X167505023Y-120967476D01*
X167600261Y-121062714D01*
X167647880Y-121157952D01*
X167647880Y-121348428D01*
X167647880Y-119967476D02*
X167647880Y-120538904D01*
X167647880Y-120253190D02*
X166647880Y-120253190D01*
X166790738Y-120348428D01*
X166885976Y-120443666D01*
X166933595Y-120538904D01*
G04 #@! TO.C,R2*
X162647333Y-127896880D02*
X162314000Y-127420690D01*
X162075904Y-127896880D02*
X162075904Y-126896880D01*
X162456857Y-126896880D01*
X162552095Y-126944500D01*
X162599714Y-126992119D01*
X162647333Y-127087357D01*
X162647333Y-127230214D01*
X162599714Y-127325452D01*
X162552095Y-127373071D01*
X162456857Y-127420690D01*
X162075904Y-127420690D01*
X163028285Y-126992119D02*
X163075904Y-126944500D01*
X163171142Y-126896880D01*
X163409238Y-126896880D01*
X163504476Y-126944500D01*
X163552095Y-126992119D01*
X163599714Y-127087357D01*
X163599714Y-127182595D01*
X163552095Y-127325452D01*
X162980666Y-127896880D01*
X163599714Y-127896880D01*
G04 #@! TO.C,R3*
X165933380Y-115927166D02*
X165457190Y-116260500D01*
X165933380Y-116498595D02*
X164933380Y-116498595D01*
X164933380Y-116117642D01*
X164981000Y-116022404D01*
X165028619Y-115974785D01*
X165123857Y-115927166D01*
X165266714Y-115927166D01*
X165361952Y-115974785D01*
X165409571Y-116022404D01*
X165457190Y-116117642D01*
X165457190Y-116498595D01*
X164933380Y-115593833D02*
X164933380Y-114974785D01*
X165314333Y-115308119D01*
X165314333Y-115165261D01*
X165361952Y-115070023D01*
X165409571Y-115022404D01*
X165504809Y-114974785D01*
X165742904Y-114974785D01*
X165838142Y-115022404D01*
X165885761Y-115070023D01*
X165933380Y-115165261D01*
X165933380Y-115450976D01*
X165885761Y-115546214D01*
X165838142Y-115593833D01*
G04 #@! TO.C,R4*
X158059380Y-113704666D02*
X157583190Y-114038000D01*
X158059380Y-114276095D02*
X157059380Y-114276095D01*
X157059380Y-113895142D01*
X157107000Y-113799904D01*
X157154619Y-113752285D01*
X157249857Y-113704666D01*
X157392714Y-113704666D01*
X157487952Y-113752285D01*
X157535571Y-113799904D01*
X157583190Y-113895142D01*
X157583190Y-114276095D01*
X157392714Y-112847523D02*
X158059380Y-112847523D01*
X157011761Y-113085619D02*
X157726047Y-113323714D01*
X157726047Y-112704666D01*
G04 #@! TO.C,SW1*
X169695761Y-117157333D02*
X169743380Y-117014476D01*
X169743380Y-116776380D01*
X169695761Y-116681142D01*
X169648142Y-116633523D01*
X169552904Y-116585904D01*
X169457666Y-116585904D01*
X169362428Y-116633523D01*
X169314809Y-116681142D01*
X169267190Y-116776380D01*
X169219571Y-116966857D01*
X169171952Y-117062095D01*
X169124333Y-117109714D01*
X169029095Y-117157333D01*
X168933857Y-117157333D01*
X168838619Y-117109714D01*
X168791000Y-117062095D01*
X168743380Y-116966857D01*
X168743380Y-116728761D01*
X168791000Y-116585904D01*
X168743380Y-116252571D02*
X169743380Y-116014476D01*
X169029095Y-115824000D01*
X169743380Y-115633523D01*
X168743380Y-115395428D01*
X169743380Y-114490666D02*
X169743380Y-115062095D01*
X169743380Y-114776380D02*
X168743380Y-114776380D01*
X168886238Y-114871619D01*
X168981476Y-114966857D01*
X169029095Y-115062095D01*
G04 #@! TO.C,U1*
X152600857Y-123278785D02*
X153572285Y-123278785D01*
X153686571Y-123221642D01*
X153743714Y-123164500D01*
X153800857Y-123050214D01*
X153800857Y-122821642D01*
X153743714Y-122707357D01*
X153686571Y-122650214D01*
X153572285Y-122593071D01*
X152600857Y-122593071D01*
X153800857Y-121393071D02*
X153800857Y-122078785D01*
X153800857Y-121735928D02*
X152600857Y-121735928D01*
X152772285Y-121850214D01*
X152886571Y-121964500D01*
X152943714Y-122078785D01*
G04 #@! TO.C,D2*
X172918380Y-109196095D02*
X171918380Y-109196095D01*
X171918380Y-108958000D01*
X171966000Y-108815142D01*
X172061238Y-108719904D01*
X172156476Y-108672285D01*
X172346952Y-108624666D01*
X172489809Y-108624666D01*
X172680285Y-108672285D01*
X172775523Y-108719904D01*
X172870761Y-108815142D01*
X172918380Y-108958000D01*
X172918380Y-109196095D01*
X172013619Y-108243714D02*
X171966000Y-108196095D01*
X171918380Y-108100857D01*
X171918380Y-107862761D01*
X171966000Y-107767523D01*
X172013619Y-107719904D01*
X172108857Y-107672285D01*
X172204095Y-107672285D01*
X172346952Y-107719904D01*
X172918380Y-108291333D01*
X172918380Y-107672285D01*
X170902380Y-105410000D02*
X171140476Y-105410000D01*
X171045238Y-105648095D02*
X171140476Y-105410000D01*
X171045238Y-105171904D01*
X171330952Y-105552857D02*
X171140476Y-105410000D01*
X171330952Y-105267142D01*
G04 #@! TD*
M02*
